<svg class="float-right" version="1.1" xmlns="http://www.w3.org/2000/svg" xmlns:xlink="http://www.w3.org/1999/xlink" x="0px" y="0px"
	 viewBox="0 0 72.24 68.16" xml:space="preserve">
	<title>AREA2071</title>
	<g>
		<path d="M0,67.68c0.23-0.36,0.49-0.71,0.69-1.09c11.53-21.75,23.06-43.5,34.6-65.25c0.2-0.37,0.42-0.74,0.74-1.29
			C48.04,22.72,59.97,45.22,72,67.91c-2.05,0-3.91,0.05-5.76-0.04c-0.32-0.02-0.69-0.57-0.89-0.95
			c-6.94-13.06-13.86-26.13-20.78-39.19c-2.68-5.05-5.36-10.1-8.04-15.14c-0.14-0.27-0.3-0.53-0.53-0.91
			c-0.27,0.46-0.47,0.79-0.65,1.13c-9.54,17.99-19.09,36-28.61,54.02c-0.42,0.8-0.86,1.17-1.82,1.12c-1.63-0.1-3.28-0.03-4.92-0.03
			C0,67.84,0,67.76,0,67.68z"/>
		<path d="M30.54,44.17c1.55,0,3.05,0,4.63,0c0,3.15,0,6.28,0,9.47c-1.55,0-3.05,0-4.63,0C30.54,50.48,30.54,47.35,30.54,44.17z
			 M32.13,52.09c0.58-0.03,1-0.06,1.41-0.08c0-2.16,0-4.21,0-6.27c-0.51,0-0.92,0-1.41,0C32.13,47.86,32.13,49.91,32.13,52.09z"/>
		<path d="M27.77,49.68c-1.01,0-1.96,0-2.99,0c0,0.82,0,1.54,0,2.4c1.01,0,1.99,0,3.01,0c0,0.59,0,1.04,0,1.56c-1.56,0-3.06,0-4.65,0
			c0-1.82,0-3.6,0-5.52c0.97,0,1.94,0,3.01,0c0-0.87,0-1.6,0-2.43c-1.01,0-1.96,0-3,0c0-0.55,0-1,0-1.52c1.52,0,3.02,0,4.61,0
			C27.77,45.95,27.77,47.72,27.77,49.68z"/>
		<path d="M46.7,45.75c-0.51-0.05-0.94-0.09-1.46-0.14c0-0.46,0-0.91,0-1.43c1.01,0,1.99,0,3.11,0c0,2.61,0,5.19,0,7.83
			c0.56,0.05,0.98,0.08,1.5,0.13c0,0.47,0,0.92,0,1.48c-1.51,0-3.04,0-4.63,0c0-0.49,0-0.94,0-1.47c0.5-0.05,0.96-0.09,1.48-0.13
			C46.7,49.93,46.7,47.91,46.7,45.75z"/>
		<path d="M42.54,44.2c0,3.12,0,6.22,0,9.41c-0.49,0-0.94,0-1.51,0c0-2.6,0-5.18,0-7.91c-1.09,0-2.07,0-3.14,0
			c-0.03-0.56-0.05-0.98-0.07-1.5C39.41,44.2,40.94,44.2,42.54,44.2z"/>
	</g>
</svg>