<svg id="Layer_1" data-name="Layer 1" xmlns="http://www.w3.org/2000/svg" viewBox="0 0 1272 1280"><title>Artboard 1</title><path d="M15.8,2C3.3,5.8-2.2,19.1,4.2,30.2a23.92,23.92,0,0,0,5.1,6.1,19,19,0,0,0,28.1-8.5C41.8,17.4,35.8,5,25.2,2,21,.9,19.6.9,15.8,2Z" fill="#63328e"/><path d="M138.8,2c-8.9,2.8-13.9,9.5-13.9,18.5,0,17,20.6,25.6,31.7,13.3,4.2-4.5,5.6-8.7,5.2-14.9a18.79,18.79,0,0,0-9.4-15.1C148.8,1.7,142.4.8,138.8,2Z" fill="#63328e"/><path d="M260.6,2.5a18.56,18.56,0,0,0-12.6,18,17.42,17.42,0,0,0,6.3,14.2A17.9,17.9,0,0,0,275,37.4c3.4-1.7,7.7-6.3,8.9-9.7,1.5-3.9,1.4-11.1-.3-15-1.7-4.3-7.6-9.3-12.3-10.6S265.4.8,260.6,2.5Z" fill="#63328e"/><path d="M383.7,2.4A19.29,19.29,0,0,0,378,35.3c11.9,10.1,30.3,1.1,30.3-14.8C408.3,7.6,395.3-1.9,383.7,2.4Z" fill="#63328e"/><path d="M506.7,2.5A18.81,18.81,0,0,0,496.3,29c8.5,17,32.2,12.4,35.3-6.8.5-3.1.1-5.3-1.9-9.5-2.7-5.9-6.1-8.9-12.2-10.6C512.5.7,511.4.8,506.7,2.5Z" fill="#63328e"/><path d="M630,2.3c-4.6,1.5-10.6,7.7-12.1,12.5a20.35,20.35,0,0,0,3,16.9c7.6,10.5,23,10.1,30.6-.6,4-5.7,4.3-14.5.6-20.4C647.5,3.2,638-.4,630,2.3Z" fill="#63328e"/><path d="M753.8,2.4c-5.9,2.1-8.6,4.3-10.8,8.5-3.5,6.9-3.6,11.3-.6,17.6,1.5,3,3.9,6.3,5.4,7.4,16.1,11.4,36.9-6.3,28-23.9C771.6,3.7,761.7-.6,753.8,2.4Z" fill="#63328e"/><path d="M877.8,2c-12.4,3.7-17.9,17.3-11.5,28.2,6.1,10.5,21.3,12.4,29.3,3.6,9.8-10.7,5.3-28-8.4-31.8C883,.9,881.6.9,877.8,2Z" fill="#63328e"/><path d="M999.6,2.5a18.56,18.56,0,0,0-12.6,18,17.42,17.42,0,0,0,6.3,14.2,17.9,17.9,0,0,0,20.7,2.7c3.4-1.7,7.7-6.3,8.9-9.7,1.5-3.9,1.4-11.1-.3-15-1.7-4.3-7.6-9.3-12.3-10.6S1004.4.8,999.6,2.5Z" fill="#63328e"/><path d="M1122.7,2.4a19.29,19.29,0,0,0-5.7,32.9c5.9,5,13.6,5.6,21.1,1.5,11.9-6.5,12.1-25.5.4-32.3C1133.3,1.4,1127.5.6,1122.7,2.4Z" fill="#63328e"/><path d="M1245.7,2.4c-17.5,6.4-16.4,30.8,1.6,36.6,10.8,3.4,23.1-6.4,23.1-18.6C1270.4,7.6,1257.3-1.9,1245.7,2.4Z" fill="#63328e"/><path d="M73.1,65.8C60.9,72,59.5,89.2,70.6,97.6c3.7,2.9,11.7,4.3,16.8,3,3.2-.8,9.3-6.1,11.2-9.7,1.7-3.3,1.9-11.6.3-15.6-1.3-3.4-5.5-8-9.1-9.9C86,63.4,77.2,63.6,73.1,65.8Z" fill="#63328e"/><path d="M196.5,65.7c-4.6,2.4-6.6,4.5-8.6,8.8-5.5,11.9,2,25.2,14.6,26.3,7.1.6,9.7-.2,14-4,6.1-5.3,8.4-11.9,6.5-18.7-1.2-4.6-5.9-10.5-10.1-12.7C209.2,63.5,200.3,63.7,196.5,65.7Z" fill="#63328e"/><path d="M318.7,66.1c-9.1,4.8-12.3,17.9-6.4,26.7,5.1,7.8,16.1,10.6,24.7,6.2,9.3-4.7,12.6-17.5,6.9-26.7C339.1,64.6,327.1,61.6,318.7,66.1Z" fill="#63328e"/><path d="M443.5,65.4c-6.9,3-12.4,13-11,19.9,1.2,5.5,5.1,11.1,9.5,13.6,5.9,3.3,15.2,2.7,20.5-1.3,8.5-6.5,9.8-20,2.7-27.9C460.5,64.5,450.2,62.5,443.5,65.4Z" fill="#63328e"/><path d="M567,65.1c-3.2,1.3-7.8,5.7-9.6,9.1-1.7,3.2-1.8,11.5-.3,15.5,2.6,6.8,9.5,11.3,17.6,11.3,17.8,0,25-22.7,10.7-33.7-2.9-2.2-4.9-2.8-9.8-3C572.3,64.1,568.4,64.5,567,65.1Z" fill="#63328e"/><path d="M689,65.9a17.81,17.81,0,0,0-9.8,14.9c-.8,11.8,6.8,20.2,18.3,20.2a18.64,18.64,0,0,0,17.1-10.2c1.7-3.2,1.8-11.5.3-15.5a19.68,19.68,0,0,0-9.6-9.9C700.7,63.4,693.1,63.7,689,65.9Z" fill="#63328e"/><path d="M812.5,65.6c-4.5,2.3-6.6,4.5-8.6,8.9a19.27,19.27,0,0,0,5.6,23.1c5.3,4,14.6,4.6,20.5,1.3,4.4-2.5,8.3-8.1,9.5-13.6,1.4-6.7-3.7-16.3-10.6-19.9C825.2,63.5,816.3,63.6,812.5,65.6Z" fill="#63328e"/><path d="M933.9,66.9c-5.8,3.6-8.4,8.7-8.4,16.2.1,18,24.2,24.9,34.2,9.7,3.8-5.6,3.9-14.5.5-20.1A19.23,19.23,0,0,0,933.9,66.9Z" fill="#63328e"/><path d="M1059.5,65.4c-4.3,1.8-9.2,7.8-10.5,12.7-1.9,6.8.4,13.4,6.5,18.7,4.3,3.8,6.9,4.6,14,4,12.3-1,19.8-13.9,15-25.5-2-4.8-4.1-7.1-8.7-9.4C1071.5,63.7,1063.9,63.5,1059.5,65.4Z" fill="#63328e"/><path d="M1182.5,65.4a20.51,20.51,0,0,0-9.4,9.9c-1.4,3.7-1.4,12.3,0,15,1.7,3.2,6,7.7,9.1,9.3,3.8,2,12.6,1.8,16.7-.4,12.3-6.2,13.6-23.4,2.5-31.9-2.9-2.2-4.9-2.8-9.8-3C1187.9,64.1,1184.3,64.5,1182.5,65.4Z" fill="#63328e"/><path d="M15.8,126c-12.1,3.7-17.7,16.7-12,27.7,2.6,5,6.3,7.8,12.4,9.3,15.2,3.8,27.8-12.7,20.6-27C32.9,128.4,23.1,123.7,15.8,126Z" fill="#63328e"/><path d="M138.8,126c-8.8,2.6-13.9,9.5-13.9,18.6,0,15.9,18.1,24.8,30.1,14.7,11.7-9.8,8-28.5-6.4-32.8C143.1,124.8,142.7,124.8,138.8,126Z" fill="#63328e"/><path d="M260.6,126.5a18.56,18.56,0,0,0-12.6,18,17.42,17.42,0,0,0,6.3,14.2c3.2,2.8,9,5.3,12.2,5.3,6,0,14.8-6,17.1-11.7,1.8-4.1,1.8-11.5,0-15.6-1.7-4.3-7.6-9.3-12.3-10.6S265.4,124.8,260.6,126.5Z" fill="#63328e"/><path d="M387.5,125.5a33.42,33.42,0,0,1-3.7.9c-3.7.8-8.5,5.1-11,9.9-1.5,3.1-1.9,5.4-1.6,9.9a18.37,18.37,0,0,0,27.9,14.6c12.2-7.1,12.2-25.8,0-32.6C395.5,126.2,389.4,124.8,387.5,125.5Z" fill="#63328e"/><path d="M508,126.1c-14.6,4.3-18.7,23.4-7.1,33.2,12.1,10.2,30.5,1.2,30.5-14.8C531.4,132.3,519.3,122.8,508,126.1Z" fill="#63328e"/><path d="M630.6,126.2a22.08,22.08,0,0,0-7.7,4.9c-12,12-3.7,32.4,13.2,32.4,10.8,0,18.4-8,18.4-19.2,0-5.2-.4-6.8-3-10.4A19.32,19.32,0,0,0,630.6,126.2Z" fill="#63328e"/><path d="M754.8,126c-14.4,4.4-19.1,21.7-8.8,32,11.8,11.8,31.9,3.3,32-13.5C778,132.9,765.3,122.7,754.8,126Z" fill="#63328e"/><path d="M877.8,126c-8.8,2.7-13.9,9.5-14,18.5-.2,15.9,18.2,24.9,30.2,14.8,8.6-7.2,9.3-19.7,1.6-28.1C891.5,126.6,883.3,124.3,877.8,126Z" fill="#63328e"/><path d="M999.6,126.5a18.56,18.56,0,0,0-12.6,18,17.42,17.42,0,0,0,6.3,14.2c3.2,2.8,9,5.3,12.2,5.3,6,0,14.8-6,17.1-11.7,1.8-4.1,1.8-11.5,0-15.6-1.7-4.3-7.6-9.3-12.3-10.6S1004.4,124.8,999.6,126.5Z" fill="#63328e"/><path d="M1126.5,125.5a33.42,33.42,0,0,1-3.7.9c-3.7.8-8.5,5.1-11,9.9-1.5,3.1-1.9,5.4-1.6,9.9a18.37,18.37,0,0,0,27.9,14.6c12-7.1,12.2-25.8.2-32.5C1134.6,126.2,1128.5,124.7,1126.5,125.5Z" fill="#63328e"/><path d="M1247,126.1c-14.6,4.3-18.7,23.4-7.1,33.2,12.1,10.2,30.5,1.2,30.5-14.8C1270.4,132.3,1258.3,122.8,1247,126.1Z" fill="#63328e"/><path d="M74.5,188.9c-7.6,3.5-11.5,9.5-11.5,17.7a18.41,18.41,0,0,0,13.9,18c7.3,1.9,13.1.2,18.3-5.3,3.5-3.7,4.8-7.3,4.8-13.7,0-7.1-3.7-12.8-10.4-16.1C83.7,186.5,79.9,186.4,74.5,188.9Z" fill="#63328e"/><path d="M198.7,188.4c-17.7,6.5-16.2,32.3,2.1,36.4,7.1,1.6,12.9-.4,18-6.2C231.4,204.3,216.4,181.8,198.7,188.4Z" fill="#63328e"/><path d="M321.5,188.5c-8,2.8-13.4,12.2-12.1,20.9,2,12.3,15.7,19.4,27,14.1,5.6-2.7,10.6-10.6,10.6-16.9,0-7.9-6.3-16.5-13.5-18.5C328.4,186.7,326.4,186.8,321.5,188.5Z" fill="#63328e"/><path d="M445.2,188.1c-4.8,1.4-10.6,7.7-12.1,13.1-3.3,11.6,5.5,23.7,17.2,24,5.5.1,8.4-.8,12.6-3.9,11.8-8.9,7.7-29.3-6.7-33.3C451.8,186.8,449.7,186.8,445.2,188.1Z" fill="#63328e"/><path d="M570,187.7c-9.3,3.4-14,9.4-14,17.9a28.74,28.74,0,0,0,1.1,8.1c1.3,3.5,5.5,8,9.2,9.9,3.4,1.8,11.1,2,15.2.4,9.2-3.5,14.1-15.8,10.1-25.3C588.4,191,576.9,185.2,570,187.7Z" fill="#63328e"/><path d="M691.6,188.5c-4.9,1.7-10.2,6.9-11.7,11.3a19.11,19.11,0,0,0,18,25.4,16.7,16.7,0,0,0,13.3-5.9c3.5-3.7,4.8-7.3,4.8-13.6,0-8.1-4.9-14.8-12.9-17.5C698.8,186.7,696.5,186.7,691.6,188.5Z" fill="#63328e"/><path d="M814.6,188.4a19.14,19.14,0,0,0-9,28.9c10.6,14.9,33.7,7.5,33.9-10.8C839.6,193.5,826.6,184,814.6,188.4Z" fill="#63328e"/><path d="M938.2,188.1c-4.7,1.4-10.9,8-12.2,13.1a18.77,18.77,0,0,0,18,24,19,19,0,0,0,15.7-8.4c3.6-5.4,3.9-14.4.7-19.8C956.1,189.6,946.2,185.7,938.2,188.1Z" fill="#63328e"/><path d="M1061.2,188.1c-5.1,1.5-10.7,7.8-12.1,13.7-3.8,15.7,12.3,28.7,26.5,21.4,4.8-2.4,6.9-4.7,8.9-9.5,4.3-10.3-1.7-22.7-12.3-25.7C1067.8,186.8,1065.7,186.8,1061.2,188.1Z" fill="#63328e"/><path d="M1184.5,188.2a18.47,18.47,0,0,0-12.5,17.5c0,6.3,1.3,9.9,4.8,13.6,4,4.3,7.8,5.8,13.8,5.8,9.8,0,17.4-6.9,18.2-16.5.6-7.1-1.1-11.7-5.8-16C1197.4,187.5,1190.8,186,1184.5,188.2Z" fill="#63328e"/><path d="M16.4,250c-16,3.7-20.2,24.8-6.8,34,5.1,3.4,13.6,3.9,19.2,1.1a18.94,18.94,0,0,0,8.4-24.3C33.7,252.8,24.6,248.1,16.4,250Z" fill="#63328e"/><path d="M141.5,249.5a33.42,33.42,0,0,1-3.7.9c-3.4.8-9.4,5.9-11.4,9.8s-2,12.8,0,16.6c2.2,4.3,8.1,9,12.1,9.8,19.6,3.6,31.2-17.4,17.7-31.8C153.3,251.7,144.6,248.6,141.5,249.5Z" fill="#63328e"/><path d="M262.5,250c-4.4,1-6.9,2.5-10.3,6.4-10.3,11.7-1.4,30.6,14.3,30.6s24.6-18.9,14.3-30.6C275.9,250.8,269.2,248.5,262.5,250Z" fill="#63328e"/><path d="M384.7,250.5c-11,2.8-16.6,14.6-12.2,25.2a17.77,17.77,0,0,0,17,11.3c9,0,15.8-5.2,18-13.8,2.1-7.8.2-13.6-6-19-3.1-2.8-4.7-3.5-10.5-4.6C390.1,249.4,387.3,249.8,384.7,250.5Z" fill="#63328e"/><path d="M508.6,250.2C495.9,253,490.1,268,497.4,279s25,10.5,31.5-1c3.5-6.3,3.7-11.2.7-17.5C525.5,252.2,517.4,248.2,508.6,250.2Z" fill="#63328e"/><path d="M632.5,250a19.74,19.74,0,0,0-12.3,8.2c-2.2,3.4-2.7,5.3-2.7,10.3s.5,6.9,2.8,10.2c9.2,13.3,28.6,10.4,33.7-5C658.2,260.7,645.7,246.9,632.5,250Z" fill="#63328e"/><path d="M755.3,250a18.65,18.65,0,0,0-10,30.7c10.8,12.3,30.9,5.8,32.5-10.6C779,257.7,767.3,247.2,755.3,250Z" fill="#63328e"/><path d="M880.5,249.5a33.42,33.42,0,0,1-3.7.9c-3.5.8-9.4,5.9-11.5,10a20.8,20.8,0,0,0-1.6,8.1c0,19.4,26.5,25.8,35.3,8.5,3.9-7.7,1.8-17.6-5-23.4a16.72,16.72,0,0,0-5.6-3.1C883.3,249.4,881.5,249.2,880.5,249.5Z" fill="#63328e"/><path d="M1001.5,250a21.73,21.73,0,0,0-5.1,1.8c-3.7,1.9-8.3,8-9,11.7-2.4,13,5.7,23.5,18.1,23.5s20.5-10.6,18.1-23.5C1021.9,254.9,1010.5,247.9,1001.5,250Z" fill="#63328e"/><path d="M1123.7,250.5c-11.3,2.9-16.8,15.1-11.8,26.1s20,14,29.1,5.8c4.4-4,6.3-8.6,6.2-15-.1-5.4-2-9.2-6.7-13.2-3.1-2.8-4.7-3.5-10.5-4.6C1129.1,249.4,1126.3,249.8,1123.7,250.5Z" fill="#63328e"/><path d="M1247.6,250.2c-12.7,2.8-18.5,17.8-11.2,28.8,7.5,11.3,25,10.5,31.8-1.5C1276,263.6,1263.2,246.6,1247.6,250.2Z" fill="#63328e"/><path d="M75.6,312.4A18.78,18.78,0,0,0,63,330.5a17.77,17.77,0,0,0,11.3,17,19,19,0,0,0,22.4-6.1c2.2-3,2.8-4.9,3.1-10.3.3-5.8,0-7.1-2.4-10.8C92.6,313,83.3,309.6,75.6,312.4Z" fill="#63328e"/><path d="M198.6,312.5c-15.3,5.4-16.8,27.4-2.4,34.4,14.8,7.1,30.5-5.4,26.7-21.2a19.5,19.5,0,0,0-12.5-13.5C205.3,310.7,203.5,310.7,198.6,312.5Z" fill="#63328e"/><path d="M321.5,312.4c-7.1,2.7-12.5,10.7-12.5,18.6.1,6,6.3,14.7,12.3,16.9a21,21,0,0,0,14-.3c4.1-1.7,9.1-7.4,10.7-12.1C350.7,321.4,335.6,307.3,321.5,312.4Z" fill="#63328e"/><path d="M445,312.3c-8.6,2.8-14.4,13.7-12,22.6,1.3,5,6.3,10.9,10.7,12.7,7.9,3.3,18.4.2,23-6.7,6.9-10.5,1.5-25.5-10.4-28.8C451.7,310.8,449.6,310.8,445,312.3Z" fill="#63328e"/><path d="M569.1,312.2c-5.1,1.4-7.9,3.7-10.8,8.5-2.2,3.7-2.5,5.3-2.1,10.7.3,5,1,7.1,3.1,10,10.9,14.2,33.7,6.8,33.7-10.9a23.09,23.09,0,0,0-1.4-7.8c-1.7-4.3-7.6-9.3-12.3-10.6C574.9,310.8,573.7,310.8,569.1,312.2Z" fill="#63328e"/><path d="M691.6,312.4A18.78,18.78,0,0,0,679,330.5a17.77,17.77,0,0,0,11.3,17,19,19,0,0,0,22.4-6.1c3.9-5.2,4.5-14.5,1.2-20.4C709.6,313.5,699.5,309.5,691.6,312.4Z" fill="#63328e"/><path d="M814.6,312.5c-15.3,5.4-16.8,27.4-2.4,34.4,14.7,7.1,30.5-5.4,26.7-21.2a19.5,19.5,0,0,0-12.5-13.5C821.3,310.7,819.5,310.7,814.6,312.5Z" fill="#63328e"/><path d="M938.7,312c-7.4,2.2-13.7,10.5-13.7,18,0,4.5,3,10.8,6.6,14.2,9.4,8.7,23.9,5.5,29.5-6.7C967.7,323.2,953.8,307.5,938.7,312Z" fill="#63328e"/><path d="M1061.5,312.2c-12.7,4.5-17.3,19.8-8.8,29.8,10.6,12.7,31.2,6.8,33.1-9.5C1087.3,319,1074,307.8,1061.5,312.2Z" fill="#63328e"/><path d="M1183.5,312.9c-8.5,4-11.9,9.5-11.3,18.6.5,7.4,3.6,12.3,9.8,15.5,6.5,3.3,15.9,2.1,21.3-2.8,5.2-4.7,7.2-14.7,4.3-21.5-2.5-6.2-11.2-11.7-18.1-11.7A20.82,20.82,0,0,0,1183.5,312.9Z" fill="#63328e"/><path d="M12.4,374.9c-8,3.6-12.7,13.6-10.5,21.9,1.3,4.7,6,10.6,10.2,12.8A23.32,23.32,0,0,0,20,411c20.4,0,26.2-27.7,7.5-36.1C22.4,372.5,17.6,372.6,12.4,374.9Z" fill="#63328e"/><path d="M137.8,374c-13.1,3.9-17.5,21.5-7.8,31.6,4.2,4.2,8.7,5.8,15.5,5.2,15-1.3,22-20.1,11.7-31.2A19.19,19.19,0,0,0,137.8,374Z" fill="#63328e"/><path d="M260.5,374.3c-5.7,2.3-7.4,3.7-10.1,8.3-2.3,3.9-2.6,5.3-2.2,10.9.3,5.3.9,7.1,3.4,10.2,4,5,8.7,7.3,14.9,7.3s10.9-2.3,14.9-7.3c6.3-7.8,4.2-21.3-4.3-27.1C272.7,373.5,265,372.4,260.5,374.3Z" fill="#63328e"/><path d="M382.1,375.2c-9.8,5.1-13.6,15.3-9.3,25,3.8,8.7,14,13,23.4,9.9,13.8-4.6,16.2-25.5,3.9-33.6A17.73,17.73,0,0,0,382.1,375.2Z" fill="#63328e"/><path d="M505.5,374.9c-18.7,8.4-12.9,36.1,7.5,36.1,6.1,0,9.6-1.7,13.8-6.4a18.58,18.58,0,0,0,1-23.7A17.91,17.91,0,0,0,505.5,374.9Z" fill="#63328e"/><path d="M628.5,374.9c-14.4,6.6-15.3,25.5-1.7,33.8,5.2,3.2,13.1,3.1,18.8-.2,4.5-2.7,9.4-10.6,9.4-15.4a20.08,20.08,0,0,0-11.5-18.2A16.53,16.53,0,0,0,628.5,374.9Z" fill="#63328e"/><path d="M751.2,375.1a18.86,18.86,0,0,0-6,29.5c4.2,4.7,7.7,6.4,13.8,6.4,20.4,0,26.2-27.7,7.5-36.1A16.54,16.54,0,0,0,751.2,375.1Z" fill="#63328e"/><path d="M876.8,374c-7.7,2.3-13.1,9.9-13.1,18.5,0,19.6,27.3,25.8,35.4,8.1,4.7-10.3.7-20.9-9.6-25.7A16.5,16.5,0,0,0,876.8,374Z" fill="#63328e"/><path d="M999.8,373.9a18.1,18.1,0,0,0-10.8,9.7,19.43,19.43,0,0,0,8.1,25.7c5.2,2.8,14.6,2,19.3-1.6,13.6-10.5,7.8-32.7-9-34.2A28.9,28.9,0,0,0,999.8,373.9Z" fill="#63328e"/><path d="M1122.5,374.1c-4,1.5-9.4,6.7-11.1,10.6-2,4.6-1.7,11.7.6,16.3a18.69,18.69,0,0,0,29,5.4c9-8.1,8-23.4-1.9-29.9C1134.7,373.6,1127,372.5,1122.5,374.1Z" fill="#63328e"/><path d="M1244.5,374.9c-18.7,8.4-12.9,36.1,7.5,36.1,6.1,0,9.6-1.7,13.8-6.4,4.2-4.9,5.7-10.6,4.2-16.5C1267,376,1255.3,370,1244.5,374.9Z" fill="#63328e"/><path d="M73.2,437.1c-10.4,5.2-13.4,20-6,29.4,5.6,7.2,18.3,8.7,25.4,2.9,5.1-4.1,7.4-8.8,7.4-15.2,0-8.5-3.9-14.6-11.3-17.7A18.31,18.31,0,0,0,73.2,437.1Z" fill="#63328e"/><path d="M197.5,436.4c-17.7,7.8-13.7,34.5,5.4,36.4,6.6.6,11.3-1.2,15.5-5.8a19.33,19.33,0,0,0,3.1-22C217.4,436.9,205.7,432.8,197.5,436.4Z" fill="#63328e"/><path d="M320.5,436.7a19.86,19.86,0,0,0-9.6,9.8c-2.5,5.5-2.4,10.2.6,16.1,7.2,14.4,26.9,13.8,33.6-1.1,4.4-9.7-.1-20.7-10.3-25C330.1,434.6,324.4,434.6,320.5,436.7Z" fill="#63328e"/><path d="M444,436.6a18.51,18.51,0,0,0-10.6,11.6A18.77,18.77,0,0,0,459.5,471a18.58,18.58,0,0,0,5.7-29.2C459.2,435.1,451.6,433.3,444,436.6Z" fill="#63328e"/><path d="M567,436.5c-4.6,2.1-6.8,4.2-9.2,8.9-2.9,5.8-2.2,15,1.5,20a18.76,18.76,0,0,0,31.8-2.6c4.1-8.1,1.2-19.6-6.3-24.5C579.9,435,572.1,434.3,567,436.5Z" fill="#63328e"/><path d="M689.2,437.1c-8,4-12.2,14.4-9.3,23.2,4.8,14.3,23.5,17.2,32.8,5.1,5.2-6.9,4.1-19.8-2.4-25.6C704.9,434.8,696,433.7,689.2,437.1Z" fill="#63328e"/><path d="M813.5,436.4c-4,1.7-9,7.5-10.5,12.1a20.24,20.24,0,0,0,2.3,16.4c4.6,6.9,15.1,10,23,6.7,6-2.5,11.7-11.1,11.7-17.7,0-3-3-10.3-5.3-12.8C829.7,435.7,820,433.6,813.5,436.4Z" fill="#63328e"/><path d="M938.2,435.8c-6.7,2.1-13.2,11-13.2,18.2,0,7.9,7.4,17.2,14.5,18.6,9.2,1.7,17-2,21-10,3.1-6.2,3.2-10.9.3-16.6-3.4-6.6-8.6-10.3-15-10.6A27.72,27.72,0,0,0,938.2,435.8Z" fill="#63328e"/><path d="M1059.4,436.9c-8,3.7-12.7,13.6-10.4,22a23.73,23.73,0,0,0,4.6,8.1c11.9,13.2,33.7,3.3,32.2-14.5A18.55,18.55,0,0,0,1059.4,436.9Z" fill="#63328e"/><path d="M1184.1,436a19.72,19.72,0,0,0-7.2,31.4c6.1,7,18.9,7.4,26.5.7,8.3-7.3,7-23.5-2.6-29.8C1196.5,435.4,1188.2,434.3,1184.1,436Z" fill="#63328e"/><path d="M13.5,498.5C5.2,501.4-.4,512.1,2,520.8c2.8,10.8,15.4,17.1,25.3,12.8,3.9-1.7,9.2-7.1,10.6-10.9,3.5-9.3-1.5-20.1-11.1-24.2C22.3,496.7,18.8,496.6,13.5,498.5Z" fill="#63328e"/><path d="M137.5,498.2a18.32,18.32,0,0,0-10.6,9c-2.2,4.3-2.7,11.7-1.1,15.9,5.7,14.7,27.3,15.7,34.1,1.7,4.9-10.3,1-21.1-9.4-25.9A16,16,0,0,0,137.5,498.2Z" fill="#63328e"/><path d="M260.5,498.3c-7.9,3.1-12.5,9.5-12.5,17.4,0,12.1,9,20.4,20.6,19,18.1-2,22.6-26.5,6.5-34.9C269.4,496.8,265.4,496.4,260.5,498.3Z" fill="#63328e"/><path d="M382.5,498.8c-10.5,5-14.3,15.7-9.4,26,7.3,15,30.2,12.6,34.4-3.6,3.1-11.7-4.3-22.5-16.1-23.8A15.45,15.45,0,0,0,382.5,498.8Z" fill="#63328e"/><path d="M505.5,498.8c-12.7,6.1-15.4,21.4-5.4,30.9,15.9,15,40.1-4.9,28.7-23.5C524.1,498.5,513.3,495.1,505.5,498.8Z" fill="#63328e"/><path d="M629.7,498.5a17.76,17.76,0,0,0-10.8,10c-4.3,9.3-.4,19.6,9.3,24.6,9.3,4.8,20.9,0,25.3-10.3,4.1-9.9-1.8-21.8-12.3-24.8C636.4,496.7,634.4,496.8,629.7,498.5Z" fill="#63328e"/><path d="M753.7,498c-9.3,2.8-15.3,13.5-12.7,22.8,4.1,15.5,24.7,19,33.8,5.7C784.5,512.5,770.1,493.1,753.7,498Z" fill="#63328e"/><path d="M876.8,498c-16.1,4.8-17.7,28.2-2.4,35.1,14.4,6.5,29.2-5.6,26.2-21.6C898.8,502,886.6,495,876.8,498Z" fill="#63328e"/><path d="M1001,497.7c-9.3,3.4-14,9.4-14,18,0,15.7,16,24.5,29,15.9,9.7-6.4,10.8-22.3,2.1-29.4C1013.2,498.2,1005.4,496.1,1001,497.7Z" fill="#63328e"/><path d="M1121.5,498.9c-10.4,4.8-14.3,15.6-9.4,25.9,6.8,14,28.4,13,34.1-1.7,2.7-7.1-.3-17.9-5.9-21.9C1133.9,496.8,1127.7,496,1121.5,498.9Z" fill="#63328e"/><path d="M1244.5,498.8c-12.7,6.1-15.4,21.4-5.4,30.9,15.9,15,40.1-4.9,28.7-23.5C1263.1,498.5,1252.3,495.1,1244.5,498.8Z" fill="#63328e"/><path d="M73.2,561.1c-12.5,6.2-13.6,25-1.9,32.7a19.64,19.64,0,0,0,20.5-.1c5.3-3.4,8.2-9,8.2-15.7,0-8.3-4-14.4-11.3-17.5A18.31,18.31,0,0,0,73.2,561.1Z" fill="#63328e"/><path d="M197.7,560.4c-12.5,5.5-15.6,21.7-6,30.8,10.7,10.2,26.7,5.9,31.2-8.3S211.2,554.4,197.7,560.4Z" fill="#63328e"/><path d="M320.5,560.9c-15.4,7.1-15,28,.7,34.6,9.2,3.8,19.5-.5,23.9-10s-.1-20.7-10.3-25A16.68,16.68,0,0,0,320.5,560.9Z" fill="#63328e"/><path d="M443.5,560.9c-11.1,5-14.5,18.2-7.4,28.1,5.5,7.6,14.8,9.9,22.9,5.7,14.8-7.5,14.6-27-.5-33.8A16.84,16.84,0,0,0,443.5,560.9Z" fill="#63328e"/><path d="M568.1,560c-7.8,3.3-12.1,9.7-12.1,18a18.46,18.46,0,0,0,15.3,18.6c7.9,1.4,17.2-3.7,20.3-11.2,3.3-7.9.3-18.5-6.6-23C580.8,559.6,572,558.4,568.1,560Z" fill="#63328e"/><path d="M689.2,561.1a18.65,18.65,0,0,0-5,29.5c11.7,12.7,31.8,4.7,31.8-12.6C716,563.9,701.5,554.8,689.2,561.1Z" fill="#63328e"/><path d="M814.6,560c-3.7,1.2-9.4,6.6-11.2,10.7-5.1,11.9,4.7,26.3,17.9,26.3,5,0,11.8-3.9,15.2-8.8,2.5-3.6,3-5.3,3-10.2s-.5-6.6-3-10.2A19.7,19.7,0,0,0,814.6,560Z" fill="#63328e"/><path d="M936.5,560.9c-15.4,7.1-15,28,.7,34.6,9.2,3.8,19.5-.5,23.9-10s-.1-20.7-10.3-25A16.68,16.68,0,0,0,936.5,560.9Z" fill="#63328e"/><path d="M1059.5,560.9a18.54,18.54,0,0,0-7.3,28.2,17.55,17.55,0,0,0,22.8,5.6c6.5-3.3,10.2-8.5,10.7-14.9C1086.9,565,1072.7,554.8,1059.5,560.9Z" fill="#63328e"/><path d="M1183,560.5c-7.1,3.3-11,9.4-11,17.5,0,10.7,7.5,18.5,17.9,18.5,10.9,0,18-6.5,18.9-17,.9-10.8-6.4-19.5-17.1-20.2A20.84,20.84,0,0,0,1183,560.5Z" fill="#63328e"/><path d="M11.9,622.9c-10,5.5-13.5,17.6-7.9,26.8a19.35,19.35,0,0,0,13.9,9.1c6.7.6,11.3-1.2,15.9-6.2,8.2-8.8,6.5-21.7-3.6-28.6C25.5,620.7,16.9,620.2,11.9,622.9Z" fill="#63328e"/><path d="M134.8,623c-4,2.1-8.1,7-9.3,10.9-1.3,4.2-.6,10.9,1.4,15,9.3,18.1,36.6,9.9,34.9-10.4C160.7,625,146.5,616.9,134.8,623Z" fill="#63328e"/><path d="M259,622.6c-7.1,3.1-11,9.2-11,17.4s4,14.4,11.3,17.5c6.4,2.7,15,1.3,20-3.3,7.4-6.7,7.4-21.7,0-28.4C274.3,621.2,265.4,619.8,259,622.6Z" fill="#63328e"/><path d="M381.2,623.1c-12.5,6.2-13.6,25-2,32.6,11.2,7.4,25.7,1.4,28.7-11.8C411.4,628.5,395.4,616.1,381.2,623.1Z" fill="#63328e"/><path d="M505.5,622.3c-9.5,4.3-13.9,15.9-9.6,25.2,4.7,10.2,15.6,14.4,25,9.5,17.4-8.8,12.5-34.6-6.7-35.7C510.8,621.1,507.3,621.5,505.5,622.3Z" fill="#63328e"/><path d="M628.5,622.4c-6.3,2.9-11.5,11-11.5,17.9a20.09,20.09,0,0,0,2.3,7.7c7.5,14.8,27,14.6,33.8-.5a16.38,16.38,0,0,0-.3-15.5c-3.5-6.8-8.6-10.3-15.6-10.7C633.8,621.1,630.3,621.5,628.5,622.4Z" fill="#63328e"/><path d="M750.9,623c-9.9,5.2-13.6,17.5-7.9,26.7,4.5,7.4,14.1,11.1,22.2,8.4,6.8-2.2,12.8-11,12.8-18.5-.1-6.6-6.1-15.2-12.3-17.5A20.44,20.44,0,0,0,750.9,623Z" fill="#63328e"/><path d="M873.8,623c-13.5,7.2-13.4,26.8.2,33.8,13.1,6.7,28-3.5,26.8-18.3C899.7,625,885.5,616.9,873.8,623Z" fill="#63328e"/><path d="M998,622.6a16.33,16.33,0,0,0-9.1,8.6c-3.6,7-1.8,18,3.8,23,5,4.6,13.6,6,20,3.3,4.8-2,7.1-4.1,9.4-8.7,3.6-7,1.8-18-3.8-23C1013.3,621.2,1004.4,619.8,998,622.6Z" fill="#63328e"/><path d="M1120.2,623.1c-9,4.5-12.7,16-8.2,25.4,5.9,12.3,23.2,14.1,31.3,3.3,3.1-4.1,4-7,3.9-12.4A18.51,18.51,0,0,0,1120.2,623.1Z" fill="#63328e"/><path d="M1244.5,622.3c-10.4,4.8-14.7,18.9-8.5,28.1,7.4,10.6,22.1,11.4,30.3,1.6,9.9-11.7,2.1-29.8-13.1-30.7C1249.8,621.1,1246.3,621.5,1244.5,622.3Z" fill="#63328e"/><path d="M73.5,684.6c-7.6,4.2-10.9,10.1-10.3,18.5.8,11.1,9.3,18.7,19.8,17.7,10.1-1,17-8.7,17-19,0-6.4-2.3-11.1-7.4-15.2-3-2.5-4.7-3.1-9.9-3.3C78.4,683.1,75.6,683.5,73.5,684.6Z" fill="#63328e"/><path d="M194.8,685.9c-11.1,7.1-11.7,22.3-1.1,31,10.2,8.4,26.1,2.6,29.3-10.7C226.9,689.7,209.1,676.9,194.8,685.9Z" fill="#63328e"/><path d="M319.4,685A19.72,19.72,0,0,0,309,702.4c0,4,3,10.5,6.1,13.3,9.7,8.9,24.5,5.8,30-6.2a16.53,16.53,0,0,0,0-15C340.3,684.2,329.3,680.1,319.4,685Z" fill="#63328e"/><path d="M443.5,684.4c-4.3,1.9-9.2,7.8-10.6,12.8-3.9,14.5,11.2,28,24.9,22.3,14.4-6.1,16.4-25.4,3.4-33.6A19.53,19.53,0,0,0,443.5,684.4Z" fill="#63328e"/><path d="M566.5,684.6c-7.3,3.8-10.5,9.1-10.5,17.4,0,18.4,23.7,26,33.8,10.8,5-7.6,3.8-19.4-2.4-24.9C581.8,683,572.4,681.5,566.5,684.6Z" fill="#63328e"/><path d="M689.5,684.6c-6.9,3.8-10.5,9.6-10.5,17,0,19.1,24,26.5,34.1,10.6,5.4-8.5,3.5-19.1-4.5-25.6-3-2.5-4.7-3.1-9.9-3.3C694.4,683.1,691.6,683.5,689.5,684.6Z" fill="#63328e"/><path d="M811.7,685.1a23.23,23.23,0,0,0-6.5,6.1c-2.3,3.5-2.7,5.2-2.7,10.9,0,6,.3,7.1,3.1,10.6,3.6,4.6,10.5,8.3,15.4,8.3,11.7-.1,21.2-12.5,18.1-23.8-1.4-5.1-6.4-11-10.8-12.8C823.7,682.4,816.2,682.7,811.7,685.1Z" fill="#63328e"/><path d="M936.5,684.4c-6.2,2.8-11.5,11-11.5,17.8,0,4.1,3,10.6,6.1,13.5,9.7,8.9,24.5,5.8,30-6.2,2.6-5.6,2.4-10.4-.9-16.6-2-3.9-3.8-5.8-7.1-7.6C948.1,682.7,941.2,682.3,936.5,684.4Z" fill="#63328e"/><path d="M1059.5,684.4a20.48,20.48,0,0,0-6.2,4.9c-12.9,14.8,2.6,37.6,20.5,30.2,14.4-6.1,16.4-25.4,3.4-33.6A19.53,19.53,0,0,0,1059.5,684.4Z" fill="#63328e"/><path d="M1182.1,684.7a25.57,25.57,0,0,0-6.5,5.6c-4.1,5.1-4.9,14.3-1.7,20.5a18.81,18.81,0,0,0,24.6,8.2c12.4-6,14.1-24.1,3-32.6C1196.7,682.7,1187.4,681.9,1182.1,684.7Z" fill="#63328e"/><path d="M11.9,747c-13.1,6.9-14.2,24.5-2,32.5a18.4,18.4,0,0,0,27.2-8c3.4-7.4,2.2-14.4-3.4-20.4C27.8,744.9,19,743.2,11.9,747Z" fill="#63328e"/><path d="M135.4,746.9a20.07,20.07,0,0,0-9.9,11c-2.2,7.2.8,17,6.3,21,7.9,5.6,17,5,24.2-1.5,4.6-4.2,6.4-8.9,5.8-15.5A18.5,18.5,0,0,0,135.4,746.9Z" fill="#63328e"/><path d="M260.1,746.1A18.62,18.62,0,0,0,248,764c0,6,1.7,9.6,6.4,13.7,8.9,7.9,21.5,6.3,27.7-3.6,4.8-7.4,3.5-18.7-2.8-24.3C274.7,745.6,265.7,743.9,260.1,746.1Z" fill="#63328e"/><path d="M381.2,747.1c-10.7,5.3-13.6,20.1-5.6,28.9,16.4,18.1,43.4-4.4,28.7-23.9C399.1,745.4,389.1,743.2,381.2,747.1Z" fill="#63328e"/><path d="M505.5,746.4a24.44,24.44,0,0,0-6.3,4.7c-9.7,10-4.7,27.3,9,30.9,13.5,3.7,26.5-9.3,22.9-22.8C528.2,748.4,515.4,742,505.5,746.4Z" fill="#63328e"/><path d="M628.5,746.6c-6.8,3.5-11.5,10.6-11.5,17.4,0,7.8,6.2,15.9,13.8,18,4.6,1.2,5.8,1.2,10.4,0,10.5-3,16.4-14.9,12.3-24.8S637.2,742.1,628.5,746.6Z" fill="#63328e"/><path d="M750.9,747c-13.1,6.9-14.2,24.5-2,32.5a18.4,18.4,0,0,0,27.2-8c3.4-7.4,2.2-14.4-3.4-20.4C766.8,744.9,758,743.2,750.9,747Z" fill="#63328e"/><path d="M874.5,746.9c-5.5,2.5-8.5,6.1-10.1,12-3.8,14.9,10,28,24.1,22.7,5.5-2.1,11.2-8.3,12.1-13.1C903.6,752.6,888.8,740.3,874.5,746.9Z" fill="#63328e"/><path d="M999.1,746.1c-10.7,4.3-15.1,16.1-10,26.6,3.6,7.5,13.7,11.8,21.5,9.3,4.3-1.4,9.8-6.1,12-10.2,3.1-6,.9-17.3-4.3-22C1013.7,745.6,1004.7,743.9,999.1,746.1Z" fill="#63328e"/><path d="M1120.2,747.1c-8,4-12.2,14.4-9.3,23.2,1.5,4.6,7.8,10.2,13.1,11.8,4.9,1.5,11.4.2,16.2-3.2,5.5-4,8.5-13.8,6.3-21C1143.3,747.4,1130.4,742.1,1120.2,747.1Z" fill="#63328e"/><path d="M1244.5,746.4c-3.8,1.7-9,7.2-10.4,10.9-2.5,6.6-.4,15.3,5.1,20.4,2.8,2.6,8.9,5.3,12,5.3,12.2,0,21.9-12.3,18.8-23.8C1267.1,748.3,1254.4,742,1244.5,746.4Z" fill="#63328e"/><path d="M73.5,808.7c-7.6,4-10.9,9.9-10.3,18.4.5,7.5,4,12.9,10.3,15.9,8.9,4.3,20.1.6,24.5-8,3.7-7.2,2-18.2-3.6-23.1S79.4,805.5,73.5,808.7Z" fill="#63328e"/><path d="M196.2,809.1a18.67,18.67,0,0,0-5.4,29.1c6.2,6.9,13.7,8.6,21.8,4.9,11.4-5.2,14.5-20.3,6.1-29.8C212.9,806.8,204.3,805.1,196.2,809.1Z" fill="#63328e"/><path d="M320.5,808.4c-6.4,2.9-11.4,10.6-11.5,17.6,0,4.9,3.7,11.8,8.3,15.4,3.5,2.8,4.6,3.1,10.7,3.1s7.2-.3,10.7-3.1c4.6-3.6,8.3-10.5,8.3-15.4-.1-7-5.9-15.5-12.3-17.9C330.9,806.6,324.1,806.8,320.5,808.4Z" fill="#63328e"/><path d="M443.5,808.4c-5.9,2.5-11.5,11.2-11.5,17.7,0,3,3,10.3,5.3,12.8,3,3.2,9.4,6.1,14,6.1,10.8,0,19.7-10.4,18.4-21.6C468.4,811.3,454.7,803.5,443.5,808.4Z" fill="#63328e"/><path d="M565.8,809c-6.1,3.2-9.2,8.2-9.6,15.5-.3,4.8,0,7,1.7,10.2,8.8,17.4,35.1,10.9,35.1-8.5,0-4.6-2.1-10.5-4.8-13.5C583.2,807.1,572.7,805.4,565.8,809Z" fill="#63328e"/><path d="M689.5,808.7c-6.9,3.6-10.5,9.5-10.5,16.9,0,20,26.1,26.8,35.1,9.1,3-5.9,2.4-15.1-1.4-20.1C707.3,807.6,696.6,804.9,689.5,808.7Z" fill="#63328e"/><path d="M812.2,809.1c-7.5,3.7-11.5,12.4-9.8,21.4.8,4.3,6.8,11.3,11.3,13.2,6.6,2.7,16,.6,21-4.8,2.3-2.5,5.3-9.8,5.3-12.8,0-6.6-5.7-15.2-11.7-17.7A20.55,20.55,0,0,0,812.2,809.1Z" fill="#63328e"/><path d="M936.5,808.4c-4,1.8-8,6.2-9.9,10.8-6.4,15.2,10.6,31.4,25.2,23.9,6.7-3.5,11.2-10.4,11.2-17.4,0-4.8-4.4-12.8-8.6-15.6C950,807.1,941.1,806.2,936.5,808.4Z" fill="#63328e"/><path d="M1059.5,808.4c-4.2,1.8-9.2,7.8-10.5,12.6-5,18.5,17.9,32,31.3,18.4,9.1-9.1,6.7-24.8-4.5-30.3C1070.8,806.7,1064,806.4,1059.5,808.4Z" fill="#63328e"/><path d="M1182,808.9a25,25,0,0,0-6.4,5.5c-5.9,7.2-4.4,20.7,2.9,26.4,9.3,7.3,23.4,4.3,28.4-6,3.4-7.2,2.3-16.6-2.7-22.1S1188.6,805.3,1182,808.9Z" fill="#63328e"/><path d="M11,871.1A19.22,19.22,0,0,0,6.9,901a17.47,17.47,0,0,0,20.6,4.1A19.14,19.14,0,0,0,35.6,877C30.6,869.4,18.8,866.5,11,871.1Z" fill="#63328e"/><path d="M135.5,870.4c-16.6,7.4-12.9,33.3,5.2,36.2,7.6,1.2,16.9-4.1,19.9-11.3,2.7-6.3,1.1-15.7-3.4-20.6C152.5,869.5,142.1,867.5,135.5,870.4Z" fill="#63328e"/><path d="M258.5,870.6c-6.9,3.6-10.5,9.6-10.5,17.5,0,9.9,6.8,17.4,16.7,18.5,7,.8,14.8-3.4,18.1-9.6,3.4-6.5,2.8-15.4-1.4-20.7a23.25,23.25,0,0,0-6.5-5.5C270.7,868.6,262.5,868.5,258.5,870.6Z" fill="#63328e"/><path d="M381.5,870.6c-4.5,2.3-6.6,4.5-8.6,8.9-3.7,8-2,16.6,4.4,22.2,12.6,11,31,2.6,31-14.2,0-7.7-4.8-14.9-11.6-17.4C392.6,868.5,385,868.8,381.5,870.6Z" fill="#63328e"/><path d="M503.7,871.1c-10.2,5.4-12.6,19.9-4.9,29.1,9.9,11.8,28.2,7.1,32.3-8.2,2.1-8-2.5-17.6-10.2-21.6C516.9,868.4,508.3,868.7,503.7,871.1Z" fill="#63328e"/><path d="M625.9,871.9a14.93,14.93,0,0,0-6.7,7.9c-1.2,2.8-2.2,6.1-2.2,7.4,0,13.6,13.7,23.3,25.8,18.3a18.71,18.71,0,0,0,10.3-10C660.9,878.6,641.6,861.9,625.9,871.9Z" fill="#63328e"/><path d="M750.5,870.9c-7.8,4.7-11.6,13.2-9.6,21.1,3.8,14.4,19.6,19.5,30.6,9.8,9.6-8.4,7.8-25.1-3.5-30.8C762.9,868.4,754.6,868.3,750.5,870.9Z" fill="#63328e"/><path d="M875,870.1c-10.2,4.1-14.4,17.4-8.7,27.2,6.3,10.6,19.1,12.6,28.4,4.4A17.28,17.28,0,0,0,901,888c0-4.5-2.1-10.4-4.8-13.3C891.7,869.7,881.5,867.5,875,870.1Z" fill="#63328e"/><path d="M997.1,870.8a23.25,23.25,0,0,0-6.5,5.5c-2.5,3.1-3.1,4.9-3.4,10.2-.4,5.6-.1,7,2.2,10.9,3.6,6.1,8.6,9,15.6,9.1s12.4-2.6,15.8-7.8c2.3-3.5,2.7-5.1,2.7-11.3,0-6.6-.3-7.6-3.1-11.1-4-5-8.7-7.3-14.9-7.3A21.24,21.24,0,0,0,997.1,870.8Z" fill="#63328e"/><path d="M1120.5,870.6c-4.5,2.3-6.6,4.5-8.6,8.9-3.7,8-2,16.6,4.4,22.2,6.9,6,15.4,6.7,22.9,1.8,6.8-4.5,9.7-14.2,6.9-22.7-1.3-4-6.4-9.2-10.4-10.7S1124,868.8,1120.5,870.6Z" fill="#63328e"/><path d="M1242.7,871.1c-10.2,5.4-12.6,19.9-4.9,29.1,10,11.8,28.3,7.1,32.2-8.3,2-8.1-2.4-17.5-10.1-21.5C1255.9,868.4,1247.3,868.7,1242.7,871.1Z" fill="#63328e"/><path d="M74,932.6a17.9,17.9,0,0,0-11,16.9,17.42,17.42,0,0,0,6.3,14.2,18.64,18.64,0,0,0,28.8-5c3.1-5.6,2.4-15-1.4-20.1A19.29,19.29,0,0,0,74,932.6Z" fill="#63328e"/><path d="M196.2,933.1c-11.6,5.8-13.5,22.2-3.6,30.8,12.2,10.8,30.7,2.1,30.8-14.4,0-6-2.3-10.5-7.7-14.8C210.6,930.5,202.5,929.9,196.2,933.1Z" fill="#63328e"/><path d="M320.5,932.4c-3.9,1.8-8,6.2-9.9,10.8-5.5,13.1,6.3,27.7,20.5,25.3,4.7-.8,11.3-5.4,13.3-9.4,2.3-4.4,3-10.4,1.6-14.6-1.6-4.7-6.6-10.4-10.7-12.1S324.4,930.7,320.5,932.4Z" fill="#63328e"/><path d="M443.2,932.7a24.68,24.68,0,0,0-6.2,4.9c-11.9,13.6,1.4,35.2,18.8,30.4a19.16,19.16,0,0,0,10.9-28.9C462,932,450.8,928.9,443.2,932.7Z" fill="#63328e"/><path d="M565.8,933c-6.1,3.3-9.2,8.2-9.6,15.6-.4,5.4-.1,7,2.1,10.6a20.87,20.87,0,0,0,13.4,9.3c7,1.4,17-4.1,19.9-11.2,2.9-6.8.9-16.8-4.3-21.5C582,930.9,572.2,929.7,565.8,933Z" fill="#63328e"/><path d="M691.1,932.1A18.73,18.73,0,0,0,679,949.5a17.42,17.42,0,0,0,6.3,14.2c9.5,8.3,23.4,5.6,29.2-5.7,2.6-5.1,1.7-14.7-1.8-19.4C707.7,932.1,698.2,929.2,691.1,932.1Z" fill="#63328e"/><path d="M812.2,933.1c-11.6,5.7-13.5,22.2-3.6,30.8,10.7,9.5,26.8,4.2,30.4-10,1.5-6,0-11.6-4.3-16.6C828.9,930.8,820.3,929.1,812.2,933.1Z" fill="#63328e"/><path d="M936.5,932.4c-6.9,3-12.2,12.4-11.2,19.7,1.8,13.5,17.5,21,28.6,13.6,10.2-6.8,11.8-19.2,3.8-28.4a21.06,21.06,0,0,0-6.4-4.9C947.2,930.7,940.4,930.7,936.5,932.4Z" fill="#63328e"/><path d="M1059.5,932.4c-4.3,1.8-9.2,7.8-10.5,12.7-3.7,13.5,9.3,26.6,22.8,22.9a19.16,19.16,0,0,0,10.9-28.9C1078.1,932.2,1067.2,929,1059.5,932.4Z" fill="#63328e"/><path d="M1181.8,933c-6.2,3.3-9.2,8.2-9.6,15.9-.3,5.8,0,7.1,2.4,10.8a22,22,0,0,0,13.1,8.8c7,1.4,17-4.1,19.9-11.2,2.9-6.8.9-16.8-4.3-21.5C1198,930.9,1188.2,929.7,1181.8,933Z" fill="#63328e"/><path d="M12.5,994.4c-13.7,6.2-14.7,26.1-1.6,33.4,4.4,2.5,11.7,3.1,16.2,1.4C38,1025,42.2,1011,35.6,1001,30.9,993.9,20.4,990.9,12.5,994.4Z" fill="#63328e"/><path d="M135.5,994.4c-6.7,3.1-10.7,9.7-10.6,17.8,0,5.3,1.1,8,5,12.1a16.51,16.51,0,0,0,13.1,5.9c14,.1,22.9-13.6,17.2-26.4-2.9-6.7-8-10.1-15.6-10.5C140.9,993.1,137.3,993.5,135.5,994.4Z" fill="#63328e"/><path d="M258,994.9a17.88,17.88,0,0,0-9.8,14.5,29.61,29.61,0,0,0,.7,8.8c3.3,10,17.1,15.1,26.7,10,3.6-1.9,8.3-8,9-11.7,2.4-13-5.7-23.5-18.1-23.5A20.09,20.09,0,0,0,258,994.9Z" fill="#63328e"/><path d="M381.5,994.6a19.16,19.16,0,0,0-.1,34.1c3.7,1.9,12.4,2,16.1,0a19.13,19.13,0,0,0,10.8-17.2c0-7.7-4.8-14.9-11.6-17.4C392.6,992.5,385,992.8,381.5,994.6Z" fill="#63328e"/><path d="M503.7,995.1c-11.3,6-12.8,23.4-2.5,31.2,16.5,12.6,38-6.6,27.5-24.5C523.9,993.6,512.4,990.5,503.7,995.1Z" fill="#63328e"/><path d="M626.8,995.3c-9.9,6-12.5,18.2-5.9,27.4,7.5,10.4,23.7,9.9,30.8-.9,2.3-3.4,2.8-5.3,2.8-10.3s-.5-6.9-2.8-10.2C646.1,993.2,634.8,990.4,626.8,995.3Z" fill="#63328e"/><path d="M751.5,994.4c-6,2.7-9.9,8.1-11.1,15.5-1,6,3.3,14.2,9.1,17.7,10.1,5.9,23,1.6,27.1-9.1,4.7-12.5-4.2-25.6-17.3-25.5A27.92,27.92,0,0,0,751.5,994.4Z" fill="#63328e"/><path d="M875,994.1c-3.3,1.3-7.8,5.7-9.7,9.3s-2,12.4-.3,15.7c3.6,7,9.8,11,17,11.1,14,.1,22.9-13.6,17.2-26.4-3-6.8-8-10.2-15.6-10.5C880.3,993.1,876.4,993.5,875,994.1Z" fill="#63328e"/><path d="M997,994.9c-10.5,5.6-13.4,20-5.8,28.7,4.2,4.8,8,6.6,14.2,6.6,19.5.2,25.9-26.1,8.6-35.3C1009.5,992.4,1001.5,992.4,997,994.9Z" fill="#63328e"/><path d="M1120.5,994.6a19.08,19.08,0,0,0-4.1,31.3c2.5,2.3,11.5,5.4,13.9,4.6.7-.2,2.4-.6,3.9-.9,3.4-.8,9.4-5.9,11.4-9.8s2-12.8.1-16.5-6.5-7.9-10-9.2C1131.6,992.5,1124,992.8,1120.5,994.6Z" fill="#63328e"/><path d="M1242.7,995c-14.8,8.1-11.5,31.1,5.1,34.8,19.8,4.5,31.3-22.3,14.5-33.8C1257.4,992.6,1248,992.1,1242.7,995Z" fill="#63328e"/><path d="M79.5,1054.7c-5.5,1.1-6.6,1.5-9.5,3.9-6.4,5.4-8.8,15.2-5.6,22.7,2.5,6.2,11.1,11.7,18.2,11.7,3.6,0,11.8-4.9,14.3-8.5,4.5-6.7,4-17.2-1.1-23.1C91.3,1056.3,84.9,1053.7,79.5,1054.7Z" fill="#63328e"/><path d="M200.6,1055.2c-11.5,2.5-17.7,15.4-12.7,26.3,8.4,18.5,35.5,12.4,35.5-8A18.47,18.47,0,0,0,200.6,1055.2Z" fill="#63328e"/><path d="M324.4,1055c-9.2,2.1-14.9,9.1-14.9,18.5,0,7.3,2.3,11.7,8.4,16,3.5,2.5,5.2,3,10.1,3s6.6-.5,10.1-3a28.22,28.22,0,0,0,6.7-7.5C352,1068.5,339.2,1051.6,324.4,1055Z" fill="#63328e"/><path d="M447.4,1055c-15.8,3.6-20.2,24.6-7.2,34,15.7,11.4,36-5.8,27.9-23.6C464.6,1057.8,455.4,1053.1,447.4,1055Z" fill="#63328e"/><path d="M572.5,1054.7c-1.1.2-3,.6-4.2.9-3.3.6-9.4,6.3-10.9,10.1-4.1,9.6,0,20.7,8.9,24.9,2.9,1.3,6.1,2.4,7.2,2.4,7.3,0,16.4-6.2,18.6-12.7,1.9-5.8.7-13.7-2.7-18.1C585.2,1057,577.7,1053.7,572.5,1054.7Z" fill="#63328e"/><path d="M692.7,1055.5a20.75,20.75,0,0,0-7.3,3.6c-5.9,5.5-8.1,15-5,22.2,2.5,6.2,11.1,11.7,18.1,11.7,1.1,0,4.3-1.1,7.2-2.4,6.9-3.2,10.3-8.9,10.3-17,0-6.7-1.5-10.1-6.5-14.4-3.1-2.8-4.7-3.5-10.5-4.6C698.1,1054.4,695.3,1054.8,692.7,1055.5Z" fill="#63328e"/><path d="M816.6,1055.2c-14.9,3.3-19.5,23.1-7.7,33.1,12.3,10.3,30.4,1.5,30.5-14.8A18.6,18.6,0,0,0,816.6,1055.2Z" fill="#63328e"/><path d="M939.2,1055.2c-5.6,1.2-11.7,7.1-13.2,12.9-5.2,19.1,17.4,32.8,31.1,19C970.8,1073.5,958.2,1051.1,939.2,1055.2Z" fill="#63328e"/><path d="M1063.5,1055c-4.4,1-6.9,2.5-10.3,6.4-12.1,13.8,1.1,35.4,18.6,30.7a19.39,19.39,0,0,0,12.3-26.7C1080.7,1057.8,1071.4,1053.1,1063.5,1055Z" fill="#63328e"/><path d="M1188.5,1054.5a33.42,33.42,0,0,1-3.7.9c-3.7.8-9.8,6.3-11.4,10.3-2.4,5.6-1.8,13.3,1.3,18.1s10.7,9.2,15.7,9.2c6.6-.1,15.2-6.1,17.5-12.3,3.7-9.6-2.6-23.4-11.5-25.2C1191.3,1054.4,1189.5,1054.2,1188.5,1054.5Z" fill="#63328e"/><path d="M11.9,1118.7c-16.2,8.3-12.7,31.4,5.4,35.7,6.8,1.6,16.6-3.7,19.8-10.8,4.8-10.7-.9-23.5-11.9-26.6C19.7,1115.5,17.9,1115.7,11.9,1118.7Z" fill="#63328e"/><path d="M138.8,1117c-12.6,3.9-18.1,18-11.1,28.7,6.5,10.2,21.1,11.7,28.9,3.1,4.2-4.5,5.6-8.7,5.2-14.9a18.79,18.79,0,0,0-9.4-15.1C148.8,1116.7,142.4,1115.8,138.8,1117Z" fill="#63328e"/><path d="M260.6,1117.5a18.56,18.56,0,0,0-12.6,17.9c0,11,7.7,18.9,18.5,18.9,7.7,0,14.9-4.8,17.4-11.6,1.5-3.9,1.4-11.1-.3-15-1.7-4.3-7.6-9.3-12.3-10.6S265.4,1115.8,260.6,1117.5Z" fill="#63328e"/><path d="M383.6,1117.4c-17.3,6.4-16.6,31.1,1.1,36.2,12,3.5,23.4-5.2,23.5-18C408.3,1122.6,395.4,1113.1,383.6,1117.4Z" fill="#63328e"/><path d="M506.7,1117.5a18.81,18.81,0,0,0-10.4,26.5c8.2,16.3,31.3,12.6,35.1-5.6,1.8-8.3-4.6-18.7-13-21.2C513.3,1115.7,511.5,1115.7,506.7,1117.5Z" fill="#63328e"/><path d="M630.2,1117.1c-4.7,1.4-10.9,8-12.2,13a18.76,18.76,0,0,0,33.5,16c4-5.7,4.3-14.5.6-20.4C647.6,1118.4,638.2,1114.7,630.2,1117.1Z" fill="#63328e"/><path d="M753,1117.3c-7.8,2.5-14.1,13.1-12.5,21.1,2.3,10.9,12.9,18.2,22.8,15.5,15.2-4,19.7-23.1,7.8-33.2A18.45,18.45,0,0,0,753,1117.3Z" fill="#63328e"/><path d="M874.2,1118.5a19,19,0,0,0-.8,33.6c7.2,4.1,16.9,2.6,22.2-3.3,4.2-4.5,5.6-8.7,5.2-14.9-.3-4.7-1.1-6.6-3.5-9.6C890.9,1116.2,882.7,1114.2,874.2,1118.5Z" fill="#63328e"/><path d="M999.6,1117.5a18.56,18.56,0,0,0-12.6,18,17.42,17.42,0,0,0,6.3,14.2,17.9,17.9,0,0,0,20.7,2.7c3.4-1.7,7.7-6.3,8.9-9.7,1.5-3.9,1.4-11.1-.3-15-1.7-4.3-7.6-9.3-12.3-10.6S1004.4,1115.8,999.6,1117.5Z" fill="#63328e"/><path d="M1122.7,1117.4c-17.3,6.4-16.6,31.1.9,36.2,16.3,4.7,29.5-12.8,21.1-27.9C1140.7,1118.5,1130.3,1114.6,1122.7,1117.4Z" fill="#63328e"/><path d="M1245.7,1117.5c-14.6,5.2-17,24.9-4,33.9,11.9,8.3,28.8-1,28.7-15.9-.1-9.1-5.3-16-13.9-18.4C1251.5,1115.7,1250.4,1115.8,1245.7,1117.5Z" fill="#63328e"/><path d="M76.7,1179.5c-14.9,3.8-18.6,23.6-6.2,33.1,6.5,4.9,17,4.5,23.2-.9,4.5-3.9,6.3-8.2,6.3-14.7,0-6.1-1.7-9.6-6.5-13.8-3.1-2.8-4.7-3.5-10.5-4.6C82.1,1178.4,79.3,1178.8,76.7,1179.5Z" fill="#63328e"/><path d="M196.5,1180.6c-4.5,2.3-6.6,4.5-8.6,8.9-3.1,6.7-1.9,15.5,2.9,20.8s14.7,7.2,21.5,4.3c5.7-2.3,11.7-11.1,11.7-17.1,0-5.6-5.6-14.2-11.1-17.1C209.2,1178.5,200.3,1178.6,196.5,1180.6Z" fill="#63328e"/><path d="M318.7,1181.1a23.23,23.23,0,0,0-6.5,6.1c-3.7,5.6-3.8,14.5-.4,20.1,7.5,11.9,26.7,11.4,32.8-.9,2.9-5.9,2.5-14.1-.9-19.3C338.6,1179.4,327.2,1176.6,318.7,1181.1Z" fill="#63328e"/><path d="M441.5,1181.4c-6.9,4.2-10.5,13.1-8.5,20.6,1.3,4.8,6.7,11.2,11,13,5,2.1,14.2.9,18.5-2.4a19.19,19.19,0,0,0,0-30.2c-3.1-2.3-4.9-2.9-10.4-3.2S444.9,1179.3,441.5,1181.4Z" fill="#63328e"/><path d="M567,1180.1c-3.2,1.3-7.8,5.6-9.6,9.1s-1.8,11.9,0,16.1c4.3,10.4,19.5,14.2,28.3,7,5.6-4.5,7.5-8.7,7.1-16-.3-5.1-.9-6.9-3.4-10a23.25,23.25,0,0,0-6.5-5.5C579.2,1178.8,571,1178.5,567,1180.1Z" fill="#63328e"/><path d="M689.1,1180.8c-12.2,6.2-13.6,23.4-2.6,31.8,6.4,4.9,17,4.5,23.1-.8,4.7-4.2,6.4-7.7,6.4-13.7s-1.3-9.7-4.8-13.5C705.9,1179,696,1177.2,689.1,1180.8Z" fill="#63328e"/><path d="M812.5,1180.6c-4.5,2.3-6.6,4.5-8.6,8.9-3.1,6.7-1.9,15.5,2.9,20.8s14.7,7.2,21.5,4.3c7.1-2.9,12.6-12.9,11.2-19.9-1.2-5.5-4.8-10.8-9.1-13.3C825.5,1178.5,817.1,1178.2,812.5,1180.6Z" fill="#63328e"/><path d="M934.8,1181c-6.5,3.5-10.6,11.8-9.4,19.3,2.7,16.8,25,21.6,34.3,7.5a19.18,19.18,0,0,0,0-20.6,20.72,20.72,0,0,0-6.7-6.2C947.9,1178.4,939.8,1178.4,934.8,1181Z" fill="#63328e"/><path d="M1058.5,1180.8c-5.7,3.6-10.5,11.2-10.5,16.7s5.6,14.2,11.1,17.1c6.1,3.1,17.4.9,22.1-4.3,7.1-7.9,5.8-21.4-2.7-27.9C1073.5,1178.6,1063.2,1177.8,1058.5,1180.8Z" fill="#63328e"/><path d="M1182.5,1180.1c-3.3,1.9-7.6,6.2-9.1,9.1-1.7,3.2-1.8,11.5-.3,15.5,1.3,3.4,5.5,8,9.1,9.9s12.5,1.7,16.7-.4c12.3-6.1,13.6-23.4,2.5-31.9-3-2.2-4.9-2.8-10.3-3.1C1187.3,1179.1,1183.6,1179.4,1182.5,1180.1Z" fill="#63328e"/><path d="M15.8,1241c-12.5,3.7-18,17.2-11.6,28.2,3.2,5.3,5.9,7.3,12.1,8.8,8.3,2.2,17.1-2.2,20.8-10.5,4.9-10.6-.6-22.5-12-26.4C21.2,1239.8,19.7,1239.8,15.8,1241Z" fill="#63328e"/><path d="M138.8,1241a19.22,19.22,0,0,0-11.3,28.5c5.5,9.6,19.1,12,27.5,4.8,11.7-9.8,7.7-29.2-6.8-33.3C144,1239.9,142.6,1239.9,138.8,1241Z" fill="#63328e"/><path d="M264.5,1240.5a33.42,33.42,0,0,1-3.7.9c-3.7.8-9.8,6.3-11.4,10.3-1.8,4.1-1.8,11.5,0,15.6,2.3,5.7,11.1,11.7,17.1,11.7,3.2,0,9-2.5,12.2-5.3a17.42,17.42,0,0,0,6.3-14.2,23.09,23.09,0,0,0-1.4-7.8C280.8,1244.9,270.1,1238.6,264.5,1240.5Z" fill="#63328e"/><path d="M387.5,1240.5a33.42,33.42,0,0,1-3.7.9c-6.6,1.5-12.8,10.2-12.8,18.1,0,11.3,11.1,21.1,21.3,19,21.4-4.5,21.1-34.6-.3-37.9A13.75,13.75,0,0,0,387.5,1240.5Z" fill="#63328e"/><path d="M508,1241.1a18.91,18.91,0,0,0-11.7,26.9c8.9,17.8,34.8,11.4,35.1-8.6C531.6,1247.3,519.4,1237.8,508,1241.1Z" fill="#63328e"/><path d="M630.6,1241.2c-8.4,2.3-14.5,12.2-13.1,21.4,2.5,16.7,24.1,21.4,34,7.5,2.6-3.7,3-5.2,3-10.6s-.5-7-3-10.6A19.32,19.32,0,0,0,630.6,1241.2Z" fill="#63328e"/><path d="M754.8,1241c-8.1,2.5-13,8.3-14.4,16.8-.8,5.1,3,13.9,7.3,17,10.2,7.3,24,3.5,28.7-8C782.2,1252.9,768.5,1236.6,754.8,1241Z" fill="#63328e"/><path d="M877.8,1241c-12.4,3.7-17.9,17.3-11.5,28.2,6.1,10.5,21.3,12.4,29.3,3.6,9.8-10.7,5.3-28-8.4-31.8C883,1239.9,881.6,1239.9,877.8,1241Z" fill="#63328e"/><path d="M1003.5,1240.5a33.42,33.42,0,0,1-3.7.9c-3.7.8-9.8,6.3-11.4,10.3a23.09,23.09,0,0,0-1.4,7.8,17.42,17.42,0,0,0,6.3,14.2c3.2,2.8,9,5.3,12.2,5.3s9-2.5,12.2-5.3a17.42,17.42,0,0,0,6.3-14.2,23.09,23.09,0,0,0-1.4-7.8C1019.8,1244.9,1009.1,1238.6,1003.5,1240.5Z" fill="#63328e"/><path d="M1126.5,1240.5a33.42,33.42,0,0,1-3.7.9c-3.7.8-8.5,5.1-11,9.9-1.5,3.1-1.9,5.4-1.6,9.9a18.37,18.37,0,0,0,27.9,14.6c12-7.1,12.2-25.8.2-32.5C1134.6,1241.2,1128.5,1239.7,1126.5,1240.5Z" fill="#63328e"/><path d="M1246.1,1241.5c-17.7,5.6-17,31.7,1,36.5,7.7,2.1,17.4-2.2,21.1-9.3C1276.1,1253.5,1262.2,1236.3,1246.1,1241.5Z" fill="#63328e"/></svg>