<?xml version="1.0" encoding="utf-8"?>
<!-- Generator: Adobe Illustrator 23.0.1, SVG Export Plug-In . SVG Version: 6.00 Build 0)  -->
<svg version="1.1" id="Layer_1" xmlns="http://www.w3.org/2000/svg" xmlns:xlink="http://www.w3.org/1999/xlink" x="0px" y="0px"
	 viewBox="0 0 52 52" style="enable-background:new 0 0 52 52;" xml:space="preserve">
<style type="text/css">
	.st0{fill:#6F389F;}
	.st1{opacity:0.2;fill:#6F389F;enable-background:new    ;}
	.st2{opacity:0.1967;fill:#6F389F;enable-background:new    ;}
</style>
<title>001-analysis</title>
<desc>Created with Sketch.</desc>
<g id="Page-1">
	<g id="Desktop" transform="translate(-772.000000, -842.000000)">
		<g transform="translate(772.000000, 842.000000)">
			<path id="Shape" class="st0" d="M51.7,9.5l-9.2-9.2C42.3,0.1,42,0,41.7,0H11.6c-1.7,0-3,1.4-3,3V5c-5,2-8.5,6.8-8.5,12.5
				c0,0.6,0.5,1,1,1h12.4c0.6,0,1-0.5,1-1V5.1c0-0.6-0.5-1-1-1c-1,0-1.9,0.1-2.9,0.3V3c0-0.6,0.5-1,1-1h29.1v6.2c0,1.7,1.4,3,3,3H50
				V49c0,0.6-0.5,1-1,1H11.6c-0.6,0-1-0.5-1-1v-8.7c0-0.6-0.5-1-1-1s-1,0.5-1,1V49c0,1.7,1.4,3,3,3H49c1.7,0,3-1.4,3-3V10.3
				C52,10,51.9,9.7,51.7,9.5z M12.4,6.1v10.3H2.1C2.6,11,6.9,6.6,12.4,6.1z M43.8,9.2c-0.6,0-1-0.5-1-1V3.5l5.8,5.8H43.8z"/>
			<path id="Path" class="st0" d="M10.7,36.3C10.5,36.1,10.3,36,10,36s-0.5,0.1-0.7,0.3C9.1,36.5,9,36.7,9,37s0.1,0.5,0.3,0.7
				C9.5,37.9,9.7,38,10,38s0.5-0.1,0.7-0.3c0.2-0.2,0.3-0.4,0.3-0.7S10.9,36.5,10.7,36.3z"/>
			<path class="st1" d="M17.5,8c-0.6,0-1,0.5-1,1v11.5H5c-0.6,0-1,0.5-1,1C4,28.9,10.1,35,17.5,35S31,28.9,31,21.5S24.9,8,17.5,8z
				 M18.5,10.1c2.4,0.2,4.6,1.2,6.3,2.6L18.5,19V10.1z M17.5,33c-6,0-10.9-4.6-11.4-10.4h11.4c0.3,0,0.5-0.1,0.7-0.3c0,0,0,0,0,0
				l8.1-8.1c1.7,2,2.7,4.6,2.7,7.3C29,27.8,23.8,33,17.5,33z"/>
			<path class="st0" d="M44.9,32c-1.7,0-3.1,1.4-3.1,3.1c0,0.4,0.1,0.8,0.2,1.2l-5.9,5.9c-0.4-0.2-0.9-0.3-1.3-0.3
				c-0.5,0-0.9,0.1-1.3,0.3l-3.9-3.9c0.1-0.3,0.2-0.7,0.2-1.1c0-1.7-1.4-3.1-3.1-3.1s-3.1,1.4-3.1,3.1c0,0.5,0.1,0.9,0.3,1.3
				l-3.7,3.8c-0.4-0.2-0.8-0.3-1.3-0.3c-1.7,0-3.1,1.4-3.1,3.1s1.4,3.1,3.1,3.1c1.7,0,3.1-1.4,3.1-3.1c0-0.5-0.1-0.9-0.3-1.3
				l3.7-3.7c0.4,0.2,0.9,0.3,1.4,0.3c0.5,0,1.1-0.1,1.5-0.4l3.8,3.8c-0.2,0.4-0.3,0.9-0.3,1.3c0,1.7,1.4,3.1,3.1,3.1
				c1.7,0,3.1-1.4,3.1-3.1c0-0.5-0.1-0.9-0.3-1.3l5.8-5.8c0.4,0.2,0.9,0.4,1.4,0.4c1.7,0,3.1-1.4,3.1-3.1S46.6,32,44.9,32z M19.1,46
				c-0.6,0-1-0.5-1-1s0.5-1,1-1c0.3,0,0.5,0.1,0.7,0.3c0,0,0,0,0,0c0,0,0,0,0,0c0.2,0.2,0.3,0.4,0.3,0.7C20.1,45.5,19.6,46,19.1,46z
				 M26.9,38.1c-0.6,0-1-0.5-1-1c0-0.6,0.5-1,1-1s1,0.5,1,1C27.9,37.7,27.4,38.1,26.9,38.1z M34.9,45.9c-0.6,0-1-0.5-1-1s0.5-1,1-1
				c0.6,0,1,0.5,1,1S35.5,45.9,34.9,45.9z M44.9,36.1c-0.6,0-1-0.5-1-1s0.5-1,1-1c0.6,0,1,0.5,1,1S45.5,36.1,44.9,36.1z"/>
			<path class="st2" d="M39,24H34c-0.5,0-1,0.4-1,1s0.4,1,1,1H39c0.5,0,1-0.4,1-1S39.6,24,39,24z"/>
			<path class="st2" d="M44.7,24.3C44.5,24.1,44.3,24,44,24s-0.5,0.1-0.7,0.3C43.1,24.5,43,24.7,43,25s0.1,0.5,0.3,0.7
				c0.2,0.2,0.4,0.3,0.7,0.3c0.3,0,0.5-0.1,0.7-0.3c0.2-0.2,0.3-0.4,0.3-0.7S44.9,24.5,44.7,24.3z"/>
			<path class="st2" d="M46,14H34c-0.5,0-1,0.4-1,1s0.4,1,1,1h12c0.5,0,1-0.4,1-1S46.6,14,46,14z"/>
			<path class="st2" d="M46,19H34c-0.5,0-1,0.4-1,1s0.4,1,1,1h12c0.5,0,1-0.4,1-1S46.6,19,46,19z"/>
		</g>
	</g>
</g>
</svg>
