<?xml version="1.0" encoding="utf-8"?>
<!-- Generator: Adobe Illustrator 23.0.1, SVG Export Plug-In . SVG Version: 6.00 Build 0)  -->
<svg version="1.1" id="Layer_1" xmlns="http://www.w3.org/2000/svg" xmlns:xlink="http://www.w3.org/1999/xlink" x="0px" y="0px"
	 viewBox="0 0 52 52" style="enable-background:new 0 0 52 52;" xml:space="preserve">
<style type="text/css">
	.st0{fill:#6F389F;}
	.st1{fill-rule:evenodd;clip-rule:evenodd;fill:#6F389F;}
	.st2{opacity:0.2;fill:#6F389F;enable-background:new    ;}
</style>
<title>send-mail</title>
<desc>Created with Sketch.</desc>
<g id="Page-1">
	<g id="Desktop" transform="translate(-197.000000, -842.000000)">
		<g id="send-mail" transform="translate(197.000000, 842.000000)">
			<path id="Path" class="st0" d="M48.5,0H3.5C1.6,0,0,1.6,0,3.6v4.5C0,8.6,0.4,9,0.9,9h22.5c0.5,0,0.9-0.4,0.9-0.9
				s-0.4-0.9-0.9-0.9H1.7V3.6c0-1,0.8-1.8,1.7-1.8h45.1c1,0,1.7,0.8,1.7,1.8v3.6H28.6c-0.5,0-0.9,0.4-0.9,0.9S28.1,9,28.6,9h22.5
				C51.6,9,52,8.6,52,8.1V3.6C52,1.6,50.4,0,48.5,0z"/>
			<path class="st0" d="M51.1,6c-0.5,0-0.9,0.4-0.9,0.9v41.6c0,1-0.8,1.8-1.7,1.8H3.5c-1,0-1.7-0.8-1.7-1.8V12.9
				c0-0.5-0.4-0.9-0.9-0.9S0,12.4,0,12.9v35.6C0,50.4,1.6,52,3.5,52h45.1c1.9,0,3.5-1.6,3.5-3.5V6.9C52,6.4,51.6,6,51.1,6z"/>
			<path id="Rectangle" class="st1" d="M22.5,27h7c0.3,0,0.5,0.2,0.5,0.5l0,0c0,0.3-0.2,0.5-0.5,0.5h-7c-0.3,0-0.5-0.2-0.5-0.5l0,0
				C22,27.2,22.2,27,22.5,27z"/>
			<path class="st1" d="M16.5,30h19c0.3,0,0.5,0.2,0.5,0.5l0,0c0,0.3-0.2,0.5-0.5,0.5h-19c-0.3,0-0.5-0.2-0.5-0.5l0,0
				C16,30.2,16.2,30,16.5,30z"/>
			<path class="st1" d="M12.5,33h27c0.3,0,0.5,0.2,0.5,0.5l0,0c0,0.3-0.2,0.5-0.5,0.5h-27c-0.3,0-0.5-0.2-0.5-0.5l0,0
				C12,33.2,12.2,33,12.5,33z"/>
			<path class="st1" d="M12.5,36h27c0.3,0,0.5,0.2,0.5,0.5l0,0c0,0.3-0.2,0.5-0.5,0.5h-27c-0.3,0-0.5-0.2-0.5-0.5l0,0
				C12,36.2,12.2,36,12.5,36z"/>
			<path class="st1" d="M12.5,39h27c0.3,0,0.5,0.2,0.5,0.5l0,0c0,0.3-0.2,0.5-0.5,0.5h-27c-0.3,0-0.5-0.2-0.5-0.5l0,0
				C12,39.2,12.2,39,12.5,39z"/>
			<path class="st1" d="M12.5,42h27c0.3,0,0.5,0.2,0.5,0.5l0,0c0,0.3-0.2,0.5-0.5,0.5h-27c-0.3,0-0.5-0.2-0.5-0.5l0,0
				C12,42.2,12.2,42,12.5,42z"/>
			<path class="st2" d="M5,4C4.4,4,4,4.2,4,4.5S4.4,5,5,5h1c0.6,0,1-0.2,1-0.5S6.6,4,6,4H5z"/>
			<path class="st2" d="M9,4C8.4,4,8,4.2,8,4.5S8.4,5,9,5h1c0.6,0,1-0.2,1-0.5S10.6,4,10,4H9z"/>
			<path class="st2" d="M13,4c-0.6,0-1,0.2-1,0.5C12,4.8,12.4,5,13,5h1c0.6,0,1-0.2,1-0.5C15,4.2,14.6,4,14,4L13,4L13,4z"/>
			<path id="Shape" class="st2" d="M10,19.7c-1.1,0-2,0.9-2,2.1v24.1c0,1.2,0.9,2.1,2,2.1H42c1.1,0,2-0.9,2-2.1V21.8
				c0-1.2-0.9-2.1-2-2.1H30.3V18h2.6c0.4,0,0.7-0.2,0.8-0.6c0.1-0.3,0-0.7-0.2-1l-6.9-6.2c-0.3-0.3-0.8-0.3-1.1,0l-6.9,6.2
				c-0.3,0.2-0.4,0.6-0.2,1c0.1,0.3,0.4,0.6,0.8,0.6h2.6v1.8H10z M22.6,16.2h-1.1l4.6-4.1l4.6,4.1h-1.1c-0.5,0-0.9,0.4-0.9,0.9v7.1
				c0,0.5,0.4,0.9,0.9,0.9c0.5,0,0.9-0.4,0.9-0.9v-2.7H42c0.1,0,0.2,0,0.2,0.1s0.1,0.1,0.1,0.2v24.1c0,0.1,0,0.2-0.1,0.2
				c-0.1,0.1-0.1,0.1-0.2,0.1H10c-0.1,0-0.2,0-0.2-0.1c-0.1-0.1-0.1-0.1-0.1-0.2V21.8c0-0.1,0-0.2,0.1-0.2s0.1-0.1,0.2-0.1h11.7v2.7
				c0,0.5,0.4,0.9,0.9,0.9c0.5,0,0.9-0.4,0.9-0.9v-7.1C23.4,16.6,23,16.2,22.6,16.2z"/>
		</g>
	</g>
</g>
</svg>
