<?xml version="1.0" encoding="utf-8"?>
<!-- Generator: Adobe Illustrator 23.0.1, SVG Export Plug-In . SVG Version: 6.00 Build 0)  -->
<svg version="1.1" id="Layer_1" xmlns="http://www.w3.org/2000/svg" xmlns:xlink="http://www.w3.org/1999/xlink" x="0px" y="0px"
	 viewBox="0 0 52 51.9" style="enable-background:new 0 0 52 51.9;" xml:space="preserve">
<style type="text/css">
	.st0{opacity:0.2;fill:#6F389F;enable-background:new    ;}
	.st1{fill:#6F389F;}
</style>
<title>003-research</title>
<desc>Created with Sketch.</desc>
<g id="Page-1">
	<g id="Desktop" transform="translate(-486.000000, -845.000000)">
		<g transform="translate(486.000000, 845.000000)">
			<path id="Path" class="st0" d="M39.8,0H3.2C1.4,0,0,1.4,0,3.2v25.6C0,30.6,1.4,32,3.2,32h14v-2.1h-14c-0.6,0-1.1-0.5-1.1-1.1V3.2
				c0-0.6,0.5-1.1,1.1-1.1h36.6c0.6,0,1.1,0.5,1.1,1.1v19.2H43V3.2C43,1.4,41.6,0,39.8,0z"/>
			<rect id="Rectangle" x="13" y="32" class="st0" width="2" height="5"/>
			<path class="st1" d="M7,26c-0.6,0-1-0.4-1-1v-1c0-0.6-0.4-1-1-1l0,0c-0.6,0-1,0.4-1,1v1c0,1.7,1.3,3,3,3h1c0.6,0,1-0.4,1-1l0,0
				c0-0.6-0.4-1-1-1H7z"/>
			<rect x="4" y="20" class="st1" width="2" height="2"/>
			<g id="Group-7" transform="translate(20.000000, 20.000000)">
				<path id="Shape" class="st1" d="M20.5,3.5C18.2,1.3,15.2,0,12,0C5.4,0,0,5.4,0,12s5.4,12,12,12c3.2,0,6.2-1.3,8.5-3.5
					C25.2,15.8,25.2,8.2,20.5,3.5z M12,21.8c-5.4,0-9.8-4.4-9.8-9.8S6.6,2.2,12,2.2c2.6,0,5.1,1,6.9,2.9c1.8,1.8,2.9,4.3,2.9,6.9
					C21.8,17.4,17.4,21.8,12,21.8z"/>
				<path class="st1" d="M31.7,27.1l-6.8-6.8c-0.2-0.2-0.5-0.3-0.8-0.3s-0.6,0.1-0.8,0.3l-3,3c-0.4,0.4-0.4,1.1,0,1.5l6.8,6.8
					c0.2,0.2,0.5,0.3,0.8,0.3l0,0c0.3,0,0.6-0.1,0.8-0.3l3-3C32.1,28.2,32.1,27.5,31.7,27.1z M27.9,29.4l-5.3-5.3l1.5-1.5l5.3,5.3
					L27.9,29.4z"/>
				<polygon class="st1" points="18.1,19.6 19.6,18.1 23.4,21.8 21.8,23.4 				"/>
				<path class="st0" d="M12,5v2c2.8,0,5,2.2,5,5h2C19,8.1,15.9,5,12,5z"/>
			</g>
			<rect x="11" y="37" class="st0" width="9" height="2"/>
		</g>
	</g>
</g>
</svg>
