<?xml version="1.0" encoding="utf-8"?>
<!-- Generator: Adobe Illustrator 23.0.4, SVG Export Plug-In . SVG Version: 6.00 Build 0)  -->
<svg version="1.1" id="Layer_1" xmlns="http://www.w3.org/2000/svg" xmlns:xlink="http://www.w3.org/1999/xlink" x="0px" y="0px"
	 viewBox="0 0 189.2 47" style="enable-background:new 0 0 189.2 47;" xml:space="preserve">
<style type="text/css">
	.st0{opacity:0.7;fill-rule:evenodd;clip-rule:evenodd;fill:#151515;enable-background:new    ;}
	.st1{enable-background:new    ;}
	.st2{fill:#151515;}
</style>
<path id="Path" class="st0" d="M56.3,17.5c-0.2,0.4-0.6,0.6-0.9,0.3c-6-0.6-12-0.3-18,0.3c-5.9,0.8-11.8,2-17.5,3.4
	c-1.7,0.6-3.7,1-5.5,1.3c-1.2,0.4-2.5,0.8-3.8,1.2c-1.3,0.6-2.9,1-4.4,1.6c0.7,0.1,1.2,0,1.9,0.1v0.1h0.5L9,26l1,0.2l1,0.2l0.6,0.1
	l0.6,0.1l0.7,0.1H16l1.2,0.1h2.1l0.8,0.1h1.2v0.1l0.1,0.1l0.1,0.3v1.1l-0.1,0.1h-1v0.1l-3.6-0.2h-2l-2.4-0.2H9.9
	c-0.1,0-0.3,0-0.4-0.1c-0.1,0-0.3,0-0.6-0.1l-0.4,0.2l-1-0.1v-0.2c-1.2,0-2.7-0.1-4.1-0.2H2.2c-0.7,0-1.2-0.2-1.6-0.4
	c-0.2-0.6-0.7-0.9-0.6-1.5c0-0.6,0.2-1,0.8-1.6l0.9-1c0.2-0.3,0.4-0.6,0.8-0.8c0.6-0.6,0.9-1,1.5-1.6c1-1,2.1-2,3.4-2.8
	c0.4-0.6,1.1-1,1.9-1.6c0.6-0.3,1-0.8,1.6-1c0.8-0.6,1.6-1,2.5-1.6c0.1,0,0.2-0.1,0.2-0.1c0.6-0.2,1.1-0.1,1.5,0.1
	c0.3,0.2,0.6,0.8,0.4,1c-0.1,0.2-0.2,0.4-0.4,0.6c-0.8,0.6-1.6,1-2.5,1.7c-0.8,0.6-2.5,1.8-4.1,3c-1.5,1.2-2.9,2.4-3,2.4
	c-0.8,0.7-1.3,1.3-2,2C5.3,23.5,7.1,23,9,22.3c2-0.8,6.5-2.2,10.8-3.3c4.2-1,8-1.8,8.2-1.7c2.2-0.4,4.5-0.8,6.7-1.1
	c3.5-0.6,6.7-0.8,10-0.8h3.7c2.5,0,4.9,0.1,7.4,0.3C56.9,15.7,57.1,16.3,56.3,17.5L56.3,17.5z"/>
<g class="st1">
	<path class="st2" d="M69.7,8.5c-0.3,0.8-0.7,1.6-1.1,2.4c-0.4,0.8-0.8,1.5-1.3,2.3c-0.3,0.4-0.7,0.6-1.1,0.7
		c-0.5,0.1-0.9,0-1.2-0.3c-0.2-0.1-0.4-0.3-0.5-0.6c-0.2-0.2-0.3-0.5-0.4-0.7c-0.2-0.5-0.3-0.9-0.4-1.3s-0.1-1-0.2-1.3
		c-0.1-0.6-0.2-1.2-0.2-1.8S63.2,6.6,63.2,6c0-0.5-0.1-1-0.1-1.4S63,3.6,63,3.1c0-0.3,0-0.5,0-0.8s0-0.5,0-0.8c0-0.1,0-0.2,0-0.3
		c0-0.1,0-0.3-0.1-0.4c0-0.1,0-0.3,0-0.4s0-0.2,0.1-0.3C63.1,0.1,63.3,0,63.4,0c0.2,0,0.3,0,0.5,0.1c0.1,0.2,0.2,0.3,0.2,0.4
		c0,0.2,0,0.3,0,0.5c0,0.4,0,0.9,0,1.2s0,0.9,0,1.2c0,0.7,0.1,1.3,0.1,1.9c0.1,0.7,0.1,1.2,0.2,1.9c0.1,0.5,0.1,1.1,0.2,1.5
		c0.1,0.5,0.2,1.1,0.2,1.5c0,0.2,0.1,0.5,0.2,0.9c0.1,0.4,0.2,0.7,0.3,1.1c0.1,0.3,0.3,0.6,0.6,0.7c0.2,0.2,0.5,0.1,0.9-0.1
		c0.2-0.1,0.3-0.2,0.4-0.4s0.2-0.3,0.3-0.5c0.3-0.6,0.6-1.1,0.9-1.6c0.3-0.6,0.6-1.1,0.9-1.7c0.3-0.6,0.5-1.1,0.7-1.7
		c0.1-0.6,0.3-1.1,0.4-1.7c0-0.2,0.1-0.5,0.1-0.7c0-0.2,0-0.5,0-0.8c0-0.2,0-0.4,0-0.6c0-0.3,0.1-0.4,0.3-0.5c0.1,0,0.3-0.1,0.4,0
		c0.1,0,0.3,0.1,0.3,0.2c0.1,0.1,0.1,0.2,0.2,0.3c0,0.1,0,0.2,0,0.4c0,1.4,0.1,2.8,0.3,4c0.2,1.3,0.4,2.7,0.7,4
		c0.1,0.3,0.1,0.5,0.2,0.8c0.1,0.3,0.2,0.5,0.4,0.7c0.3,0.2,0.5,0.3,0.7,0.2s0.4-0.2,0.6-0.4c0.2-0.2,0.4-0.4,0.5-0.7
		c0.1-0.3,0.3-0.5,0.4-0.7c0.7-1.4,1.1-3,1.3-4.5c0.2-1.5,0.2-3.2-0.1-4.7c0-0.1-0.1-0.3-0.1-0.4c0-0.1,0-0.3,0-0.4
		c0-0.2,0.1-0.3,0.2-0.4C76.4,1.1,76.5,1,76.6,1c0.1,0,0.2,0,0.3,0.1c0.1,0.1,0.2,0.2,0.2,0.3c0.4,0,0.4,0.1,0.4,0.2s0,0.2,0,0.4
		c0.1,1.3,0.1,2.6-0.1,3.9c-0.2,1.3-0.5,2.6-0.9,3.8c-0.2,0.7-0.5,1.2-0.7,1.9c-0.3,0.7-0.6,1.2-1.1,1.8c-0.2,0.2-0.4,0.5-0.6,0.7
		c-0.2,0.3-0.5,0.4-0.9,0.4c-0.3,0-0.5,0-0.6-0.1c-0.2-0.1-0.3-0.3-0.5-0.4c-0.1-0.2-0.2-0.4-0.3-0.6c-0.1-0.2-0.2-0.4-0.2-0.6
		c-0.1-0.4-0.2-0.8-0.3-1.2c-0.1-0.4-0.1-0.9-0.2-1.2c0-0.3-0.1-0.5-0.1-0.8c0-0.3-0.1-0.5-0.1-0.8c0-0.2-0.1-0.3-0.1-0.5
		c0-0.1,0-0.3-0.1-0.5c0-0.1,0-0.2,0-0.4c0-0.2,0-0.3-0.1-0.4C70.7,7,70.7,6.9,70.6,7c-0.1,0.1-0.2,0.2-0.3,0.4
		c-0.1,0.2-0.1,0.3-0.2,0.5S70,8.1,70,8.2C69.8,8.3,69.8,8.4,69.7,8.5z"/>
	<path class="st2" d="M81.1,15c-0.5-0.1-1-0.2-1.4-0.5c-0.4-0.3-0.8-0.6-1-1.1c-0.1-0.3-0.2-0.5-0.2-0.8c0-0.3,0-0.5,0-0.8
		c0-0.3,0-0.5-0.1-0.6c-0.1-0.1-0.2-0.3-0.4-0.5c-0.2-0.1-0.2-0.3-0.2-0.5c0.1-0.2,0.2-0.4,0.4-0.4c0.2-0.1,0.4-0.1,0.6-0.2
		c0.2-0.1,0.3-0.2,0.5-0.4c0.2-0.2,0.3-0.5,0.4-0.7c0.1-0.3,0.2-0.5,0.4-0.7c0.1-0.2,0.3-0.4,0.5-0.7S81,7,81.2,6.8
		c0.3-0.2,0.5-0.4,0.8-0.4c0.3-0.1,0.6-0.1,0.8,0.1C82.9,6.6,83,6.7,83,6.8c0.1-0.1,0.2,0.1,0.2,0.2c0,0.2,0,0.5-0.1,0.8
		c-0.2,0.5-0.5,1-0.9,1.3c-0.4,0.4-0.9,0.7-1.3,1.1c-0.2,0.2-0.5,0.3-0.7,0.5c-0.2,0.2-0.4,0.4-0.5,0.6c-0.1,0.2-0.2,0.5-0.3,0.7
		c0,0.3,0,0.5,0.1,0.8c0.1,0.4,0.3,0.7,0.6,0.9s0.6,0.4,0.9,0.5C81.3,14,81.6,14,82,14c0.4-0.1,0.8-0.2,1.1-0.3
		c0.1-0.1,0.2-0.1,0.3-0.1c0.1,0,0.2-0.1,0.3-0.1c0.3,0,0.4,0.1,0.4,0.3c0,0.2,0,0.4-0.1,0.5s-0.3,0.3-0.6,0.4
		C82.6,15,81.8,15.1,81.1,15z M80.4,9.3L80.4,9.3c0.3,0,0.5-0.1,0.7-0.2c0.2-0.2,0.4-0.3,0.5-0.5c0.1-0.1,0.3-0.3,0.4-0.5
		c0.2-0.1,0.3-0.3,0.3-0.5c0-0.1,0-0.2-0.1-0.2c-0.1-0.1-0.2-0.1-0.4-0.1c-0.2,0.1-0.4,0.2-0.5,0.3S81,7.9,80.9,8
		c0,0.1-0.1,0.1-0.2,0.3c-0.1,0.1-0.2,0.3-0.3,0.4c-0.1,0.1-0.1,0.3-0.2,0.4C80.3,9.2,80.3,9.3,80.4,9.3z"/>
	<path class="st2" d="M99.5,10v0.5c-0.1,0.6-0.1,1.1-0.2,1.7c-0.1,0.6-0.2,1.1-0.4,1.6c-0.1,0.2-0.2,0.5-0.3,0.7
		c-0.1,0.3-0.3,0.5-0.5,0.7c-0.2,0.2-0.4,0.4-0.6,0.6c-0.2,0.2-0.4,0.3-0.7,0.3c-0.4,0.1-0.8,0-1-0.2s-0.4-0.6-0.5-1
		c-0.1-0.4-0.2-0.8-0.2-1.1c0-0.4,0-0.8-0.1-1c0-0.1,0-0.2,0-0.3s0-0.2-0.1-0.3c-0.1-0.2-0.2-0.3-0.4-0.3c-0.1,0.1-0.2,0.2-0.3,0.4
		c-0.1,0.2-0.2,0.4-0.3,0.6c-0.1,0.2-0.1,0.4-0.2,0.4c-0.1,0.2-0.3,0.5-0.4,0.7c-0.2,0.3-0.3,0.6-0.5,0.8c-0.2,0.3-0.4,0.5-0.7,0.7
		c-0.2,0.2-0.5,0.3-0.8,0.2c-0.3,0-0.6-0.2-0.8-0.4c-0.2-0.3-0.4-0.6-0.5-1c-0.1-0.4-0.2-0.8-0.3-1.1c-0.1-0.4-0.1-0.7-0.1-1
		c-0.1-0.8-0.2-1.5-0.2-2.3s-0.1-1.5-0.2-2.3c0-0.1,0-0.3,0-0.4c0-0.1,0-0.2,0.1-0.3c0.1-0.1,0.3-0.2,0.4-0.3c0.2,0,0.4,0,0.5,0.2
		c0.1,0.3,0.2,0.5,0.2,0.6c0,0.2,0,0.3,0,0.5c0,0.3,0,0.6,0,1c0,0.3,0,0.6,0,0.9c0.1,0.6,0.1,1.2,0.2,1.8s0.1,1.2,0.2,1.8
		c0,0.2,0.1,0.4,0.1,0.6c0.1,0.2,0.2,0.3,0.4,0.4c0.3,0.1,0.6,0.1,0.8,0s0.4-0.3,0.6-0.6c0.2-0.3,0.3-0.5,0.4-0.8
		c0.1-0.3,0.2-0.5,0.3-0.7c0.4-0.8,0.6-1.5,0.8-2.3c0-0.2,0.1-0.4,0.1-0.7s0-0.5,0-0.7s0-0.4-0.1-0.6c0-0.2,0-0.4,0-0.5
		c0-0.1,0.1-0.2,0.3-0.3c0.1-0.1,0.3-0.1,0.4,0c0.2,0,0.2,0.2,0.3,0.3c0,0.2,0,0.3,0.1,0.4c0.1,0.7,0.1,1.3,0.2,2
		c0.1,0.7,0.2,1.3,0.3,2.1c0,0.2,0.1,0.4,0.1,0.8c0,0.3,0.1,0.7,0.2,1c0.1,0.3,0.2,0.6,0.3,0.9c0.1,0.2,0.4,0.3,0.6,0.3
		c0.3-0.1,0.5-0.2,0.6-0.4c0.1-0.2,0.2-0.4,0.3-0.6c0.2-0.8,0.4-1.4,0.6-2.2c0.1-0.6,0.1-1.1,0.1-1.6c0-0.6-0.1-1.1-0.1-1.6
		c0-0.1,0-0.3,0-0.5c0-0.2,0.1-0.4,0.2-0.4c0.2-0.1,0.4-0.1,0.5,0c0.1,0.1,0.2,0.3,0.3,0.4c0.1,0.2,0.1,0.4,0.1,0.6
		c0,0.2,0,0.3,0,0.4c0,0.2,0,0.4,0,0.6C99.6,9.6,99.6,9.8,99.5,10z"/>
	<path class="st2" d="M101.5,10.1l-0.2,3.3c0,0.3,0,0.6,0,0.9c0,0.3,0,0.6,0,0.9c0,0.2,0,0.4,0,0.6s-0.1,0.4-0.2,0.6
		c-0.1,0.1-0.3,0.1-0.4,0.1c-0.2,0-0.3-0.1-0.4-0.3c-0.1-0.2-0.2-0.4-0.1-0.6c0-0.2,0-0.4,0.1-0.6c0-1.1,0.1-2.1,0.1-3.2
		s0.1-2.1,0.1-3.2c0-0.2,0-0.3,0-0.5c0-0.2,0.1-0.3,0.2-0.4c0.1-0.2,0.3-0.3,0.4-0.2c0.2,0.1,0.3,0.2,0.4,0.3
		c0.1,0.2,0.2,0.4,0.2,0.6c0,0.2,0,0.4,0,0.6c0,0.2,0,0.3,0,0.5C101.5,9.8,101.5,9.9,101.5,10.1z M101.4,6.3c-0.2,0-0.3-0.1-0.4-0.2
		c-0.1-0.1-0.2-0.2-0.2-0.4c0-0.1,0-0.3,0.1-0.4c0.1-0.1,0.3-0.2,0.5-0.2s0.3,0,0.4,0.1c0.1,0.1,0.2,0.2,0.2,0.3c0,0.1,0,0.2,0,0.4
		c-0.1,0.1-0.2,0.2-0.3,0.3C101.6,6.3,101.4,6.3,101.4,6.3z"/>
	<path class="st2" d="M103.7,15.9c-0.1,0.3-0.1,0.5-0.3,0.6c-0.1,0.1-0.3,0.1-0.5,0c-0.1-0.1-0.2-0.2-0.2-0.3c0-0.1-0.1-0.2-0.1-0.4
		c0-0.1,0-0.3,0-0.4c0-0.1,0-0.3,0-0.3c0.1-0.8,0.1-1.5,0.1-2.3s0-1.5,0-2.3c0-0.8,0-1.5,0-2.3s0-1.5,0-2.3c0-0.3,0-0.7,0-1
		c0-0.3,0-0.7,0-1c0-0.2,0-0.4,0.1-0.7c0-0.2,0.2-0.4,0.4-0.5c0.2-0.1,0.3-0.1,0.5,0c0.2,0.1,0.2,0.2,0.3,0.4c0,0.2,0,0.4,0,0.7
		c0,0.2,0,0.5,0,0.7c0,0.6-0.1,1.2-0.1,1.8s0,1.2,0,1.8c0,0.8,0,1.4,0,2.2s0,1.4,0,2.2c0,0.1,0,0.2,0,0.5c0,0.3,0,0.6,0,0.9
		s0,0.7,0,1C103.8,15.3,103.8,15.6,103.7,15.9z"/>
	<path class="st2" d="M106.1,16.1c-0.1,0.3-0.1,0.5-0.3,0.6c-0.2,0.1-0.3,0.1-0.5,0c-0.1-0.1-0.2-0.2-0.2-0.3c0-0.1-0.1-0.2-0.1-0.4
		c0-0.1,0-0.3,0-0.4s0-0.3,0-0.3c0.1-0.8,0.1-1.5,0.1-2.3c0-0.8,0-1.5,0-2.3c0-0.8,0-1.5,0-2.3c0-0.8,0-1.5,0-2.2c0-0.3,0-0.7,0-1
		s0-0.7,0-1c0-0.2,0-0.4,0.1-0.7c0-0.2,0.1-0.4,0.4-0.5c0.2-0.1,0.3-0.1,0.5,0c0.2,0.1,0.2,0.2,0.3,0.4c0,0.2,0,0.4,0,0.7
		c0,0.2,0,0.5,0,0.7c0,0.6-0.1,1.2-0.1,1.8c0,0.6,0,1.2,0,1.8c0,0.8,0,1.4,0,2.2s0,1.4,0,2.2c0,0.1,0,0.2,0,0.5s0,0.6,0,0.9
		c0,0.3,0,0.7,0,1C106.2,15.5,106.1,15.8,106.1,16.1z"/>
	<path class="st2" d="M116.7,17.2c0-0.2,0.1-0.3,0.1-0.4c0-0.1,0-0.3,0.1-0.4c0-0.1,0-0.3,0-0.5c0-0.3,0-0.4-0.1-0.5
		s-0.3-0.1-0.4,0.1c-0.1,0.1-0.2,0.3-0.2,0.4c-0.2,0.3-0.5,0.6-0.8,0.8c-0.3,0.3-0.6,0.5-0.9,0.7s-0.7,0.3-1.1,0.4
		c-0.4,0-0.8,0-1.1-0.2c-0.3-0.2-0.5-0.4-0.7-0.7c-0.2-0.3-0.2-0.6-0.3-1c0-0.4,0-0.7,0-1.1c0.1-0.4,0.1-0.7,0.2-1
		c0.2-0.6,0.5-1.1,0.8-1.6c0.3-0.5,0.7-1.1,1.1-1.4c0.3-0.4,0.7-0.9,1.1-1.2c0.4-0.4,0.9-0.7,1.4-0.8c0.3,0,0.6,0,1,0
		c0.4,0,0.7,0.1,1,0.4c0.2,0.2,0.3,0.4,0.4,0.6c0.1,0.2,0.1,0.5,0.1,0.7c0,0.3-0.1,0.5-0.1,0.8c0,0.3-0.1,0.5-0.1,0.7
		c0,0.7-0.1,1.2-0.1,1.9s-0.1,1.2-0.2,1.9c-0.1,1.4-0.3,2.9-0.5,4.3c-0.1,0.7-0.2,1.4-0.3,2.1c-0.1,0.7-0.3,1.3-0.6,2
		c-0.1,0.3-0.3,0.6-0.5,0.9s-0.5,0.5-0.7,0.7c-0.4,0.3-0.8,0.4-1.1,0.4s-0.8-0.1-1.1-0.3s-0.6-0.4-0.9-0.8c-0.2-0.3-0.4-0.7-0.5-1.1
		c0-0.1,0-0.2,0-0.3s0.1-0.2,0.2-0.2s0.2,0,0.2,0c0.1,0.1,0.1,0.1,0.2,0.2c0.1,0.2,0.3,0.4,0.4,0.5c0.1,0.2,0.3,0.3,0.5,0.5
		c0.2,0.1,0.3,0.2,0.5,0.3c0.2,0.1,0.4,0,0.7,0c0.3-0.1,0.6-0.3,0.8-0.5c0.2-0.2,0.4-0.5,0.5-0.8c0.2-0.4,0.3-0.8,0.4-1.1
		c0-0.4,0.1-0.9,0.1-1.2c0.1-0.7,0.2-1.3,0.2-2C116.6,18.5,116.6,17.9,116.7,17.2z M117,12.1c0-0.1,0-0.2,0-0.3s0-0.2,0-0.3
		c0-0.2-0.1-0.4-0.2-0.7c-0.1-0.2-0.2-0.5-0.4-0.6c-0.1-0.2-0.3-0.3-0.5-0.3c-0.2,0-0.4,0-0.7,0.3c-0.5,0.4-0.9,0.9-1.2,1.3
		c-0.4,0.5-0.7,1-1,1.5c-0.1,0.2-0.2,0.5-0.3,0.8c-0.1,0.3-0.2,0.7-0.2,1s0,0.6,0.1,0.9c0.1,0.3,0.3,0.5,0.7,0.6
		c0.3,0.1,0.5,0.1,0.8,0c0.3-0.1,0.5-0.2,0.8-0.4c0.2-0.2,0.5-0.4,0.7-0.6s0.4-0.4,0.5-0.6C116.6,13.9,116.9,13.1,117,12.1z"/>
	<path class="st2" d="M122,17.9c-0.5-0.1-1-0.2-1.4-0.5c-0.4-0.3-0.8-0.6-1-1.1c-0.1-0.3-0.2-0.5-0.2-0.8c0-0.3,0-0.5,0-0.8
		s0-0.5-0.1-0.6c-0.1-0.1-0.2-0.3-0.4-0.5c-0.2-0.1-0.2-0.3-0.2-0.5c0.1-0.2,0.2-0.4,0.4-0.4c0.2-0.1,0.4-0.1,0.6-0.2
		c0.2-0.1,0.3-0.2,0.5-0.4c0.2-0.2,0.3-0.5,0.4-0.7c0.1-0.3,0.2-0.5,0.4-0.7c0.1-0.2,0.3-0.4,0.5-0.7s0.5-0.5,0.7-0.7
		c0.3-0.2,0.5-0.4,0.8-0.4c0.3-0.1,0.6-0.1,0.8,0.1c0.2,0.1,0.3,0.2,0.3,0.3c0.1,0.1,0.1,0.3,0.1,0.4c0,0.2,0,0.5-0.1,0.8
		c-0.2,0.5-0.5,1-0.9,1.3c-0.4,0.4-0.9,0.7-1.3,1.1c-0.2,0.2-0.5,0.3-0.7,0.5c-0.2,0.2-0.4,0.4-0.6,0.6s-0.2,0.5-0.3,0.7
		c0,0.3,0,0.5,0.1,0.8c0.1,0.4,0.3,0.7,0.6,0.9c0.3,0.2,0.6,0.4,0.9,0.5c0.3,0.1,0.7,0.1,1.1,0.1c0.4-0.1,0.8-0.2,1.1-0.3
		c0.1-0.1,0.2-0.1,0.3-0.1s0.2-0.1,0.3-0.1c0.3,0,0.4,0.1,0.4,0.3c0,0.2,0,0.4-0.1,0.5s-0.3,0.3-0.6,0.4
		C123.6,17.9,122.8,18,122,17.9z M121.4,12.1L121.4,12.1c0.3,0,0.5-0.1,0.7-0.2c0.2-0.1,0.4-0.3,0.5-0.4c0.1-0.1,0.3-0.3,0.4-0.5
		c0.1-0.2,0.2-0.4,0.3-0.6c0-0.1,0-0.2-0.1-0.2c-0.1-0.1-0.2-0.1-0.4-0.1c-0.2,0.1-0.4,0.2-0.5,0.3c-0.1,0.1-0.3,0.3-0.4,0.4
		c0,0.1-0.1,0.1-0.2,0.3c-0.1,0.1-0.2,0.3-0.3,0.4c-0.1,0.1-0.1,0.3-0.2,0.4C121.3,12,121.3,12.1,121.4,12.1z"/>
	<path class="st2" d="M128.5,12.5c-0.2-0.1-0.4-0.1-0.6,0c-0.3,0-0.5,0-0.7,0.1c-0.2,0-0.5,0.1-0.7,0.1c-0.1,0-0.2,0-0.4,0
		c-0.1,0-0.2-0.1-0.2-0.2c0-0.2,0-0.3,0.1-0.5c0.1-0.1,0.1-0.1,0.2-0.1c0.1,0,0.2-0.1,0.2-0.1c0.3-0.1,0.7-0.1,1-0.2
		c0.3,0,0.6-0.1,1-0.1c0.3,0,0.5-0.1,0.6-0.3c0.1-0.2,0.2-0.4,0.3-0.7c0-0.3,0.1-0.5,0-0.8c0-0.3,0-0.5,0-0.7c0-0.4,0-0.7,0.1-1.1
		c0-0.3,0-0.7,0-1.1c0-0.3,0-0.6,0-1s0-0.7,0.2-0.9c0-0.1,0.1-0.2,0.2-0.3s0.2-0.1,0.3-0.2c0.1,0,0.2,0,0.3,0.1
		c0.1,0.1,0.2,0.2,0.2,0.3c0.1,0.2,0.1,0.5,0.1,0.7c0,0.2-0.1,0.5-0.1,0.7c0,0.3,0,0.5-0.1,0.8c-0.1,0.3,0,0.6-0.1,0.8l-0.2,2.4
		c0,0.1-0.1,0.3-0.1,0.4c0,0.2,0,0.3,0.1,0.4c0.1,0.2,0.3,0.3,0.4,0.3c0.2,0,0.4,0,0.5,0c0.2,0,0.3-0.1,0.4-0.1
		c0.1,0,0.3-0.1,0.4-0.1c0.2,0,0.4,0,0.6,0.1c0.2,0.1,0.3,0.2,0.3,0.4c0,0.1,0,0.2,0,0.3c0,0.1-0.1,0.2-0.2,0.3
		c-0.2,0.1-0.4,0.2-0.7,0.2c-0.2,0-0.4,0-0.5-0.1c-0.2,0-0.4,0-0.6,0c-0.2,0-0.3,0.1-0.5,0.2s-0.2,0.3-0.3,0.5c0,0.1,0,0.3,0,0.4
		c0,0.1,0,0.2,0,0.4c0,0.4,0,0.8,0.1,1.1c0,0.4,0,0.8,0.1,1.1c0,0.3,0,0.7,0.1,1.1s0,0.8-0.1,1.1c0,0.1-0.1,0.2-0.3,0.3
		c-0.1,0.1-0.2,0.1-0.4,0.1c-0.1,0-0.2-0.1-0.3-0.1c-0.1-0.1-0.1-0.2-0.2-0.3c0-0.2-0.1-0.4,0-0.6c0-0.7,0-1.3,0-1.9
		c0-0.7,0-1.3,0-1.9c0-0.1,0-0.2,0-0.3c0-0.1,0-0.2-0.1-0.3c0-0.2-0.1-0.3-0.3-0.3C128.7,12.6,128.5,12.5,128.5,12.5z"/>
	<path class="st2" d="M139.2,12.8l-0.2,3.3c0,0.3,0,0.6,0,0.9s0,0.6,0,0.9c0,0.2,0,0.4,0,0.6s-0.1,0.4-0.2,0.6
		c-0.1,0.1-0.3,0.1-0.4,0.1c-0.2,0-0.3-0.1-0.4-0.3c-0.1-0.2-0.2-0.4-0.1-0.6c0-0.2,0-0.4,0.1-0.6c0-1.1,0.1-2.1,0.1-3.2
		c0.1-1.1,0.1-2.1,0.1-3.2c0-0.2,0-0.3,0-0.5s0.1-0.3,0.2-0.4c0.1-0.2,0.3-0.3,0.4-0.2c0.2,0,0.3,0.2,0.4,0.3
		c0.1,0.2,0.2,0.4,0.2,0.6c0,0.2,0,0.4,0,0.6c0,0.2,0,0.3,0,0.5C139.2,12.4,139.2,12.6,139.2,12.8z M139.1,9c-0.2,0-0.3-0.1-0.4-0.2
		c-0.1-0.1-0.2-0.2-0.2-0.4c0-0.1,0-0.3,0.1-0.4c0.1-0.1,0.3-0.2,0.5-0.2s0.3,0,0.4,0.1c0.1,0.1,0.2,0.2,0.2,0.3c0,0.1,0,0.2,0,0.4
		c-0.1,0.1-0.2,0.2-0.3,0.3C139.2,9,139.2,9,139.1,9z"/>
	<path class="st2" d="M142,16.9c0,0.2,0,0.3,0,0.4c0,0.1,0,0.3,0,0.4c0,0.1,0,0.3-0.1,0.4c-0.1,0.1-0.1,0.3-0.1,0.5
		s-0.1,0.3-0.2,0.4c-0.1,0.1-0.2,0.2-0.3,0.2c-0.2,0-0.3,0-0.3-0.1c-0.1-0.1-0.1-0.2-0.2-0.3c0-0.1-0.1-0.3-0.1-0.4
		c0-0.1,0-0.3,0-0.4c0-0.4,0.1-0.9,0.1-1.2c0.1-0.4,0.1-0.9,0.1-1.2c0-0.6,0-1.1-0.1-1.7c-0.1-0.6-0.2-1.1-0.3-1.7
		c0-0.2-0.1-0.4-0.1-0.6s0.1-0.3,0.2-0.4c0.2-0.1,0.4-0.2,0.6,0c0.1,0.1,0.2,0.2,0.3,0.4c0,0.2,0.1,0.3,0.1,0.5s0.1,0.3,0.1,0.5
		s0.1,0.3,0.1,0.5c0,0.1,0,0.1,0,0.2s0,0.2,0.1,0.2c0,0.1,0.1,0.1,0.1,0.1s0.1-0.1,0.2-0.2c0.3-0.5,0.7-1,1.1-1.4
		c0.4-0.5,0.9-0.8,1.5-1c0.2,0,0.4-0.1,0.7-0.1c0.2,0,0.5,0,0.7,0s0.5,0.1,0.7,0.2c0.2,0.1,0.4,0.2,0.5,0.4c0.2,0.3,0.3,0.7,0.4,1.1
		c0.1,0.4,0.1,0.8,0.2,1.1c0.1,0.9,0.1,1.7,0.2,2.6c0,0.9,0,1.7,0.1,2.6c0,0.1,0,0.2,0,0.4c0,0.1,0,0.2-0.1,0.4
		c0,0.1-0.1,0.2-0.2,0.3s-0.2,0.1-0.4,0.1c-0.3,0-0.5-0.2-0.6-0.4c-0.1-0.1-0.1-0.2-0.1-0.4c0-0.1,0-0.2,0-0.4
		c0-0.9,0.1-1.7,0.1-2.7c0-0.9,0-1.7-0.1-2.7c0-0.3-0.1-0.5-0.1-0.7c-0.1-0.2-0.2-0.5-0.4-0.6c-0.2-0.2-0.5-0.4-0.8-0.4
		c-0.3-0.1-0.6,0-0.9,0.1c-0.3,0.1-0.6,0.2-0.8,0.4c-0.2,0.2-0.4,0.4-0.6,0.7c-0.4,0.7-0.7,1.2-0.9,2
		C142.3,15.5,142.1,16.2,142,16.9z"/>
	<path class="st2" d="M156.2,14.4c-0.2-0.1-0.4-0.1-0.6,0c-0.3,0-0.5,0-0.7,0.1c-0.2,0-0.5,0.1-0.7,0.1c-0.1,0-0.2,0-0.4,0
		s-0.2-0.1-0.2-0.2c0-0.2,0-0.3,0.1-0.5c0.1-0.1,0.1-0.1,0.2-0.1s0.2-0.1,0.2-0.1c0.3-0.1,0.7-0.1,1-0.2c0.3,0,0.6-0.1,1-0.1
		c0.3,0,0.5-0.1,0.6-0.3c0.1-0.2,0.2-0.4,0.3-0.7c0-0.3,0.1-0.5,0-0.8c0-0.3,0-0.5,0-0.7c0-0.4,0-0.7,0.1-1.1c0-0.3,0-0.7,0-1.1
		c0-0.3,0-0.6,0-1c0-0.3,0-0.7,0.2-0.9c0-0.1,0.1-0.2,0.2-0.3s0.2-0.1,0.3-0.2c0.1,0,0.2,0,0.3,0.1c0.1,0.1,0.2,0.2,0.2,0.3
		c0.1,0.2,0.1,0.5,0.1,0.7c0,0.2-0.1,0.5-0.1,0.7c0,0.3,0,0.5-0.1,0.8c0,0.3,0,0.6-0.1,0.8l-0.2,2.4c0,0.1-0.1,0.3-0.1,0.4
		c0,0.2,0,0.3,0.1,0.4c0.1,0.2,0.3,0.2,0.4,0.3c0.2,0,0.4,0,0.5,0c0.2,0,0.3-0.1,0.4-0.1c0.1,0,0.3-0.1,0.4-0.1c0.2,0,0.4,0,0.6,0.1
		c0.2,0.1,0.3,0.2,0.3,0.4c0,0.1,0,0.2,0,0.3s-0.1,0.2-0.2,0.3c-0.2,0.1-0.4,0.2-0.7,0.2c-0.2,0-0.4,0-0.5-0.1c-0.2,0-0.4,0-0.6,0
		c-0.2,0-0.3,0.1-0.5,0.2c-0.1,0.1-0.2,0.3-0.3,0.5c0,0.1,0,0.3,0,0.4s0,0.2,0,0.4c0,0.4,0,0.8,0.1,1.1c0,0.4,0,0.8,0.1,1.1
		c0,0.3,0,0.7,0.1,1.1c0,0.4,0,0.8-0.1,1.1c0,0.1-0.1,0.2-0.3,0.3c-0.1,0.1-0.2,0.1-0.4,0.1c-0.1,0-0.2-0.1-0.3-0.1
		c-0.1-0.1-0.1-0.2-0.2-0.3c0-0.2-0.1-0.4,0-0.6c0-0.7,0-1.3,0-1.9c0-0.7,0-1.3,0-1.9c0-0.1,0-0.2,0-0.3c0-0.1,0-0.2-0.1-0.3
		c0-0.2-0.1-0.3-0.3-0.3C156.1,14.9,156.3,14.4,156.2,14.4z"/>
	<path class="st2" d="M160.7,17.9c0-0.3,0.1-0.7,0.2-1.1c0.1-0.4,0.2-0.7,0.3-1.1c0.1-0.4,0.3-0.7,0.4-1c0.1-0.3,0.3-0.6,0.4-0.8
		c0.2-0.3,0.4-0.5,0.5-0.8c0.2-0.3,0.4-0.5,0.7-0.7c0.7-0.6,1.4-0.7,2.2-0.4c0.4,0.2,0.7,0.5,0.9,0.9c0.2,0.4,0.3,0.8,0.4,1.1
		c0.2,0.6,0.2,1.3,0.2,2.1c0,0.8-0.1,1.5-0.4,2.2c-0.3,0.7-0.7,1.2-1.2,1.7s-1.3,0.6-2.3,0.5c-0.5-0.1-0.8-0.2-1.1-0.4
		c-0.3-0.2-0.6-0.4-0.7-0.7c-0.2-0.3-0.3-0.6-0.4-0.9C160.7,18.5,160.7,18.2,160.7,17.9z M165.9,16.6c0-0.3,0.1-0.7,0.1-1
		s0-0.7-0.1-1c0-0.3-0.1-0.6-0.3-0.9c-0.1-0.4-0.4-0.6-0.7-0.6s-0.5,0-0.8,0.2c-0.4,0.2-0.8,0.6-1.1,1c-0.3,0.4-0.5,0.8-0.7,1.2
		c-0.1,0.3-0.3,0.6-0.4,1c-0.1,0.4-0.2,0.8-0.2,1.1s0,0.8,0.2,1.1c0.1,0.4,0.4,0.7,0.7,0.9c0.3,0.2,0.7,0.3,1.1,0.2
		c0.4-0.1,0.8-0.2,1.1-0.4c0.2-0.1,0.4-0.3,0.5-0.5c0.1-0.2,0.2-0.4,0.3-0.6c0.1-0.2,0.1-0.4,0.2-0.7c0-0.2,0.1-0.5,0.1-0.7
		c0-0.1,0-0.2,0-0.2C165.9,16.7,165.9,16.7,165.9,16.6z"/>
	<path class="st2" d="M172.4,17.2c0-0.1,0.1-0.2,0.1-0.4c0-0.1,0-0.2,0-0.4c0.1-0.6,0.1-1.1,0-1.7c0-0.3,0-0.6-0.1-0.9
		c0-0.3,0-0.6,0.1-0.8c0-0.1,0.1-0.2,0.2-0.2c0.1-0.1,0.2-0.1,0.3-0.1c0.2,0,0.3,0.1,0.4,0.3c0,0.2,0.1,0.4,0,0.6
		c0,0.7,0,1.3-0.1,1.9c0,0.7,0,1.3,0,1.9c0,0.3,0,0.6,0,0.9c0,0.3,0.1,0.6,0.1,0.9c0,0.2,0.1,0.3,0.1,0.4s0.1,0.3,0.2,0.4
		c0.1,0.1,0.1,0.3,0.2,0.3c0.1,0.1,0.2,0.2,0.3,0.3c0,0.1,0.1,0.2,0.1,0.2c0,0.1,0,0.2,0,0.2c0,0.1-0.1,0.2-0.2,0.3
		s-0.2,0.1-0.3,0.1c-0.3,0-0.5-0.1-0.6-0.3c-0.1-0.1-0.2-0.3-0.3-0.4c-0.1-0.2-0.2-0.3-0.2-0.5c0-0.1-0.1-0.3-0.2-0.5
		c-0.1-0.2-0.2-0.3-0.4-0.2c-0.1,0-0.1,0.1-0.2,0.1c-0.1,0.1-0.1,0.1-0.2,0.2c-0.2,0.2-0.4,0.4-0.7,0.6c-0.3,0.2-0.6,0.4-1,0.5
		c-0.3,0.1-0.7,0.1-1,0.1c-0.3,0-0.6-0.2-0.9-0.4c-0.1-0.1-0.3-0.3-0.3-0.5c-0.1-0.2-0.2-0.4-0.3-0.5c-0.2-0.6-0.3-1.1-0.4-1.6
		c-0.1-0.6-0.1-1.1-0.1-1.6c0-0.6,0-1.1,0-1.6c0-0.6,0-1.1,0.1-1.6c0-0.1,0-0.3,0.1-0.4c0.1-0.2,0.2-0.3,0.3-0.4
		c0.1-0.1,0.2-0.1,0.3-0.1c0.1,0,0.2,0.1,0.4,0.3c0.1,0.2,0.2,0.5,0.1,0.8c0,0.3-0.1,0.6-0.1,0.9c0,0.7,0,1.4,0,2.1
		c0,0.7,0.1,1.3,0.2,2.1c0,0.2,0.1,0.4,0.1,0.6s0.1,0.4,0.2,0.6c0.1,0.2,0.2,0.3,0.4,0.4c0.2,0.1,0.4,0.2,0.7,0.1
		c0.2,0,0.4-0.1,0.6-0.2c0.2-0.1,0.4-0.2,0.5-0.4c0.4-0.3,0.7-0.7,0.9-1.1C172.2,18.1,172.3,17.6,172.4,17.2z"/>
	<path class="st2" d="M176,18.5c0,0.4,0,0.8,0.1,1.1c0.1,0.2,0.2,0.4,0.3,0.6c0.1,0.2,0.3,0.3,0.5,0.4c0.3,0.2,0.7,0.2,1.1,0.2
		c0.4-0.1,0.9-0.2,1.2-0.3c0.4-0.2,0.8-0.4,1.1-0.6c0.1-0.1,0.2-0.1,0.3-0.2c0.1-0.1,0.2-0.2,0.3-0.3c0.1-0.1,0.2-0.1,0.3-0.1
		c0.1,0,0.2,0,0.3,0.2s0.2,0.4,0.1,0.6s-0.3,0.4-0.4,0.5c-0.1,0.1-0.2,0.1-0.3,0.2c-0.1,0-0.2,0.1-0.3,0.1c-0.4,0.2-0.8,0.4-1.1,0.6
		c-0.4,0.2-0.8,0.3-1.2,0.4c-0.3,0.1-0.7,0.1-1,0c-0.3,0-0.7-0.1-1-0.3c-0.5-0.2-0.8-0.6-1-1.1c-0.2-0.5-0.3-0.9-0.4-1.3
		c-0.1-0.6-0.1-1.1,0.1-1.7c0.1-0.6,0.3-1.1,0.5-1.6c0.1-0.2,0.3-0.5,0.4-0.9c0.2-0.3,0.4-0.7,0.6-1c0.2-0.3,0.5-0.5,0.8-0.7
		c0.3-0.2,0.6-0.2,1-0.2c0.2,0.1,0.4,0.2,0.6,0.4c0.1,0.2,0.2,0.5,0.2,0.7s0,0.3,0,0.4c0,0.1-0.1,0.3-0.2,0.3
		c-0.1,0.1-0.2,0.2-0.4,0.2s-0.3,0-0.4-0.1c-0.1-0.1-0.2-0.2-0.2-0.4c0-0.1-0.1-0.2-0.2-0.3c-0.2-0.1-0.3-0.1-0.5,0.1
		c-0.2,0.2-0.3,0.4-0.4,0.6c-0.1,0.2-0.2,0.5-0.3,0.7c-0.1,0.2-0.1,0.4-0.2,0.5c-0.1,0.4-0.2,0.8-0.4,1.1
		C176,17.7,176,18.1,176,18.5z"/>
	<path class="st2" d="M184,14.7c0,0.3,0,0.7,0,1s0,0.7-0.1,1c0,0.2,0,0.3,0.1,0.4c0.1,0.1,0.1,0.1,0.3,0c0.1,0,0.1-0.1,0.2-0.1
		c0.1-0.1,0.1-0.1,0.1-0.2c0.3-0.5,0.7-0.9,1.1-1.2c0.5-0.4,0.9-0.7,1.3-0.9c0.3-0.1,0.7-0.2,1-0.1c0.4,0,0.6,0.2,0.9,0.6
		c0.2,0.3,0.3,0.8,0.3,1.2s-0.1,1-0.2,1.3c-0.1,0.6-0.2,1.1-0.3,1.8c-0.1,0.6-0.1,1.2-0.1,1.8c0,0.3,0.1,0.6,0.1,0.9
		c0.1,0.3,0.1,0.6,0.3,0.9c0.1,0.1,0.1,0.2,0.2,0.4c0.1,0.1,0.1,0.2,0.1,0.4c0,0.1,0,0.2,0,0.3c0,0.1-0.1,0.2-0.3,0.3
		c-0.1,0.1-0.3,0.1-0.4,0.1c-0.2,0-0.3-0.1-0.4-0.2c-0.4-0.3-0.6-0.7-0.6-1.1c-0.1-0.8-0.1-1.5,0-2.2c0.1-0.8,0.2-1.5,0.3-2.3
		c0-0.2,0.1-0.5,0.2-0.8c0.1-0.4,0.1-0.7,0.1-1c0-0.3,0-0.6-0.1-0.9c-0.1-0.2-0.3-0.4-0.6-0.4c-0.1,0-0.2,0-0.3,0.1
		c-0.1,0-0.2,0.1-0.3,0.1c-0.5,0.2-1,0.6-1.3,1c-0.4,0.5-0.8,1-1.1,1.4c-0.3,0.6-0.6,1.1-0.7,1.8c-0.1,0.3-0.1,0.7-0.2,1
		c-0.1,0.3-0.2,0.6-0.4,0.9c-0.1,0.1-0.2,0.2-0.4,0.3c-0.1,0.1-0.3,0-0.4,0c-0.1-0.1-0.2-0.2-0.2-0.3c0-0.1-0.1-0.3-0.1-0.4
		c0-0.4,0.1-0.8,0.2-1.2c0.1-0.4,0.2-0.8,0.3-1.2c0.1-0.9,0.2-1.6,0.3-2.5c0.1-0.9,0.1-1.7,0.1-2.5c0-0.6,0-1.1,0-1.8s0-1.2,0-1.8
		c0-0.2,0-0.5,0-0.9c0-0.4,0-0.6,0.1-0.8c0.1-0.2,0.2-0.2,0.3-0.2c0.1,0,0.2,0.1,0.3,0.1c0.1,0.1,0.2,0.2,0.2,0.3
		c0.1,0.1,0.1,0.2,0.2,0.3c0,0.2,0.1,0.4,0.1,0.6c0,0.2,0,0.4,0,0.6c0,0.8-0.1,1.4-0.1,2.1S184,14,184,14.7z"/>
</g>
<g class="st1">
	<path class="st2" d="M73.7,31.6L73.5,35c0,0.3,0,0.6,0,0.9c0,0.3,0,0.6,0,0.9c0,0.2,0,0.4,0,0.6c0,0.2-0.1,0.4-0.2,0.6
		c-0.1,0.1-0.3,0.1-0.4,0.1c-0.2,0-0.3-0.1-0.4-0.3c-0.1-0.2-0.2-0.4-0.1-0.6c0-0.2,0-0.4,0.1-0.6c0-1.1,0.1-2.1,0.1-3.2
		c0-1.1,0.1-2.1,0.1-3.2c0-0.2,0-0.3,0-0.5c0-0.2,0.1-0.3,0.2-0.4c0.1-0.2,0.3-0.3,0.4-0.2c0.2,0,0.3,0.2,0.4,0.3
		c0.1,0.2,0.2,0.4,0.2,0.6s0,0.4,0,0.6s0,0.3,0,0.5C73.7,31.3,73.7,31.5,73.7,31.6z M73.5,27.9c-0.2,0-0.3-0.1-0.4-0.2
		c-0.1-0.1-0.2-0.2-0.2-0.4c0-0.1,0-0.3,0.1-0.4c0.1-0.1,0.3-0.2,0.5-0.2s0.3,0,0.4,0.1c0.1,0.1,0.2,0.2,0.2,0.3c0,0.1,0,0.2,0,0.4
		c-0.1,0.1-0.2,0.2-0.3,0.3C73.7,27.8,73.6,27.9,73.5,27.9z"/>
	<path class="st2" d="M76.5,35.8c0,0.2,0,0.3,0,0.4c0,0.1,0,0.3,0,0.4c0,0.1,0,0.3-0.1,0.4c0,0.2-0.1,0.3-0.1,0.5
		c0,0.2-0.1,0.3-0.2,0.4C76,37.9,75.9,38,75.8,38c-0.2,0-0.3,0-0.3-0.1c-0.1-0.1-0.1-0.2-0.2-0.3c0-0.1-0.1-0.3-0.1-0.4
		c0-0.1,0-0.3,0-0.4c0-0.4,0.1-0.9,0.1-1.2c0.1-0.4,0.1-0.9,0.1-1.2c0-0.6,0-1.1-0.1-1.7S75.1,31.5,75,31c0-0.2-0.1-0.4-0.1-0.6
		c0-0.2,0.1-0.3,0.2-0.4c0.2-0.1,0.4-0.2,0.6,0c0.1,0.1,0.2,0.2,0.3,0.4c0,0.2,0.1,0.3,0.1,0.5s0.1,0.3,0.1,0.5s0.1,0.3,0.1,0.5
		c0,0.1,0,0.1,0,0.2c0,0.1,0,0.2,0.1,0.2c0,0.1,0.1,0.1,0.1,0.1s0.1-0.1,0.2-0.2c0.3-0.5,0.7-1,1.1-1.4c0.4-0.5,0.9-0.8,1.5-1
		c0.2,0,0.4-0.1,0.7-0.1c0.2,0,0.5,0,0.7,0s0.5,0.1,0.7,0.2c0.2,0.1,0.4,0.2,0.5,0.4c0.2,0.3,0.3,0.7,0.4,1.1
		c0.1,0.4,0.1,0.8,0.2,1.1c0.1,0.9,0.1,1.7,0.2,2.6c0,0.9,0,1.7,0.1,2.6c0,0.1,0,0.2,0,0.4c0,0.1,0,0.2-0.1,0.4
		c0,0.1-0.1,0.2-0.2,0.3s-0.2,0.1-0.4,0.1c-0.3,0-0.5-0.2-0.6-0.4c0-0.1-0.1-0.2-0.1-0.4c0-0.1,0-0.2,0-0.4c0-0.9,0.1-1.7,0.1-2.7
		c0-0.9,0-1.7-0.1-2.7c0-0.3-0.1-0.5-0.1-0.8c-0.1-0.2-0.2-0.5-0.4-0.6c-0.2-0.2-0.5-0.4-0.8-0.4c-0.3-0.1-0.6,0-0.9,0.1
		c-0.3,0.1-0.6,0.2-0.8,0.4c-0.2,0.2-0.4,0.4-0.6,0.7c-0.4,0.6-0.7,1.2-0.9,2C76.8,34.4,76.6,35.1,76.5,35.8z"/>
	<path class="st2" d="M89.3,38.3c-0.1,0.3-0.1,0.5-0.3,0.6c-0.1,0.1-0.3,0.1-0.5,0c-0.1-0.1-0.2-0.2-0.2-0.3c0-0.1-0.1-0.2-0.1-0.4
		c0-0.1,0-0.3,0-0.4c0-0.1,0-0.3,0-0.3c0.1-0.8,0.1-1.5,0.1-2.3c0-0.8,0-1.5,0-2.3c0-0.8,0-1.5,0-2.3c0-0.8,0-1.5,0-2.3
		c0-0.3,0-0.7,0-1c0-0.3,0-0.7,0-1c0-0.2,0-0.4,0.1-0.7c0-0.2,0.1-0.4,0.4-0.5c0.2-0.1,0.3-0.1,0.5,0c0.2,0.1,0.2,0.2,0.3,0.4
		c0,0.2,0,0.4,0,0.7c0,0.2,0,0.5,0,0.7c0,0.6-0.1,1.2-0.1,1.8c0,0.6,0,1.2,0,1.8c0,0.8,0,1.4,0,2.2c0,0.8,0,1.4,0,2.2
		c0,0.1,0,0.2,0,0.5c0,0.3,0,0.6,0,0.9s0,0.7,0,1C89.4,37.8,89.4,38.1,89.3,38.3z"/>
	<path class="st2" d="M93.6,39.4c-0.5-0.1-1-0.2-1.4-0.5c-0.4-0.3-0.8-0.6-1-1.1c-0.1-0.3-0.2-0.5-0.2-0.8c0-0.3,0-0.5,0-0.8
		c0-0.3,0-0.5-0.1-0.6s-0.2-0.3-0.4-0.5c-0.2-0.1-0.2-0.3-0.2-0.5c0.1-0.2,0.2-0.4,0.4-0.4c0.2-0.1,0.4-0.2,0.6-0.2
		c0.2-0.1,0.3-0.2,0.5-0.4c0.2-0.2,0.3-0.5,0.4-0.7c0.1-0.3,0.2-0.5,0.4-0.7c0.1-0.2,0.3-0.4,0.5-0.7c0.2-0.3,0.5-0.5,0.7-0.7
		c0.3-0.2,0.5-0.4,0.8-0.4c0.3-0.1,0.6-0.1,0.8,0.1c0.2,0.1,0.3,0.2,0.3,0.3c0.1,0.1,0.1,0.3,0.1,0.4c0,0.2,0,0.5-0.1,0.8
		c-0.2,0.5-0.5,1-0.9,1.3c-0.4,0.4-0.9,0.7-1.3,1.1c-0.2,0.2-0.5,0.3-0.7,0.5c-0.2,0.2-0.4,0.4-0.6,0.6c-0.1,0.2-0.2,0.5-0.3,0.7
		c0,0.3,0,0.5,0.1,0.8c0.1,0.4,0.3,0.7,0.6,0.9c0.3,0.2,0.6,0.4,0.9,0.5c0.3,0.1,0.7,0.1,1.1,0.1c0.4-0.1,0.8-0.2,1.1-0.3
		c0.1-0.1,0.2-0.1,0.3-0.1c0.1,0,0.2-0.1,0.3-0.1c0.3,0,0.4,0.1,0.4,0.3c0,0.2,0,0.4-0.1,0.5s-0.3,0.3-0.6,0.4
		C95.1,39.4,94.3,39.5,93.6,39.4z M92.9,33.6L92.9,33.6c0.3,0,0.5-0.1,0.7-0.2c0.2-0.1,0.3-0.3,0.5-0.4c0.1-0.1,0.3-0.3,0.4-0.5
		c0.1-0.2,0.2-0.4,0.3-0.6c0-0.1,0-0.2-0.1-0.2c-0.1-0.1-0.2-0.1-0.4-0.1c-0.2,0.1-0.4,0.2-0.5,0.3c-0.1,0.1-0.3,0.3-0.4,0.4
		c0,0.1-0.1,0.1-0.2,0.3c-0.1,0.1-0.2,0.3-0.3,0.4c-0.1,0.1-0.1,0.3-0.2,0.4C92.8,33.5,92.8,33.6,92.9,33.6z"/>
	<path class="st2" d="M100.8,31.3c0.2,0.1,0.4,0.2,0.6,0.4c0.3,0.2,0.5,0.4,0.7,0.6c0.2,0.2,0.4,0.4,0.4,0.7c0.1,0.2,0,0.5-0.2,0.7
		c-0.1,0.1-0.2,0.2-0.4,0.2c-0.1,0-0.2-0.1-0.3-0.1c-0.1-0.1-0.2-0.2-0.3-0.3c-0.1-0.1-0.2-0.2-0.2-0.3c-0.2-0.2-0.4-0.4-0.7-0.5
		c-0.3-0.1-0.6-0.2-0.9-0.2s-0.6,0.1-0.8,0.2c-0.2,0.2-0.3,0.4-0.3,0.8c0,0.2,0.1,0.4,0.2,0.6c0.1,0.2,0.3,0.4,0.5,0.5
		c0.4,0.4,0.9,0.7,1.3,0.9c0.5,0.2,1,0.4,1.4,0.7c0.4,0.3,0.7,0.6,0.9,1c0.1,0.3,0.1,0.5,0,0.8c-0.1,0.3-0.2,0.5-0.4,0.7
		c-0.3,0.5-0.8,0.8-1.2,1.1c-0.5,0.3-1,0.4-1.5,0.4c-0.4,0-0.7-0.1-1.1-0.2c-0.4-0.1-0.7-0.3-1-0.5c-0.1-0.1-0.2-0.2-0.4-0.4
		c-0.1-0.2-0.2-0.4-0.3-0.6c-0.1-0.2,0-0.4,0-0.6c0.1-0.2,0.3-0.2,0.6-0.2c0.2,0,0.3,0.1,0.4,0.1c0.1,0.1,0.2,0.2,0.3,0.3
		c0.1,0.1,0.2,0.2,0.2,0.4c0.1,0.1,0.2,0.2,0.3,0.3c0.2,0.1,0.4,0.2,0.7,0.3c0.3,0.1,0.6,0.1,0.8,0c0.3,0,0.5-0.1,0.8-0.3
		c0.2-0.1,0.4-0.3,0.5-0.5c0.2-0.4,0.2-0.6,0-0.9c-0.2-0.2-0.4-0.4-0.7-0.6c-0.3-0.2-0.7-0.4-1.1-0.6s-0.9-0.5-1.2-0.7
		c-0.4-0.3-0.7-0.6-1-1c-0.2-0.4-0.3-0.8-0.3-1.2c0-0.4,0.2-0.7,0.4-0.9c0.2-0.3,0.5-0.5,0.8-0.7c0.3-0.2,0.6-0.3,1-0.4
		c0.4-0.1,0.7-0.1,1-0.1c0.1,0,0.2,0,0.3,0.1C100.6,31.2,100.7,31.2,100.8,31.3z"/>
	<path class="st2" d="M107.1,31.7c0.2,0.1,0.4,0.2,0.6,0.4c0.3,0.2,0.5,0.4,0.7,0.6s0.4,0.4,0.4,0.7c0.1,0.2,0,0.5-0.2,0.7
		c-0.1,0.1-0.2,0.2-0.4,0.2c-0.1,0-0.2-0.1-0.3-0.1c-0.1-0.1-0.2-0.2-0.3-0.3c-0.1-0.1-0.2-0.2-0.2-0.3c-0.2-0.2-0.4-0.4-0.7-0.5
		c-0.3-0.1-0.6-0.2-0.9-0.2s-0.6,0.1-0.8,0.2c-0.2,0.2-0.3,0.4-0.3,0.8c0,0.2,0.1,0.4,0.2,0.6s0.3,0.4,0.5,0.5
		c0.4,0.4,0.9,0.7,1.3,0.9c0.5,0.2,1,0.4,1.4,0.7c0.4,0.3,0.7,0.6,0.9,1c0.1,0.3,0.1,0.5,0,0.8c-0.1,0.3-0.2,0.5-0.4,0.7
		c-0.3,0.5-0.8,0.8-1.2,1.1c-0.5,0.3-1,0.4-1.5,0.4c-0.4,0-0.7-0.1-1.1-0.2c-0.4-0.1-0.7-0.3-1-0.5c-0.1-0.1-0.2-0.2-0.4-0.4
		c-0.1-0.2-0.2-0.4-0.3-0.6c-0.1-0.2,0-0.4,0-0.6c0.1-0.2,0.3-0.2,0.6-0.2c0.2,0,0.3,0.1,0.4,0.1c0.1,0.1,0.2,0.2,0.3,0.3
		c0.1,0.1,0.2,0.2,0.2,0.4c0.1,0.1,0.2,0.2,0.3,0.3c0.2,0.1,0.4,0.2,0.7,0.3c0.3,0.1,0.6,0.1,0.8,0c0.3,0,0.5-0.1,0.8-0.2
		c0.2-0.1,0.4-0.3,0.5-0.5c0.2-0.4,0.2-0.6,0-0.9c-0.2-0.2-0.4-0.4-0.7-0.6c-0.3-0.2-0.7-0.4-1.1-0.6c-0.4-0.2-0.9-0.5-1.2-0.7
		c-0.4-0.3-0.7-0.6-1-1c-0.2-0.4-0.3-0.8-0.3-1.2c0-0.4,0.2-0.7,0.4-0.9c0.2-0.3,0.5-0.5,0.8-0.7c0.3-0.2,0.6-0.3,1-0.4
		c0.4-0.1,0.7-0.1,1-0.1c0.1,0,0.2,0,0.3,0.1C106.9,31.7,107,31.7,107.1,31.7z"/>
	<path class="st2" d="M117,35.2c-0.2-0.1-0.4-0.1-0.6,0c-0.3,0-0.5,0-0.7,0.1c-0.2,0-0.5,0.1-0.7,0.1c-0.1,0-0.2,0-0.4,0
		c-0.1,0-0.2-0.1-0.2-0.2c0-0.2,0-0.3,0.1-0.5c0.1-0.1,0.1-0.1,0.2-0.1s0.2-0.1,0.2-0.1c0.3-0.1,0.7-0.1,1-0.2c0.3,0,0.6-0.1,1-0.1
		c0.3,0,0.5-0.1,0.6-0.3c0.1-0.2,0.2-0.4,0.3-0.7c0-0.3,0.1-0.5,0-0.8c0-0.3,0-0.5,0-0.7c0-0.4,0-0.7,0.1-1.1c0-0.3,0-0.7,0-1.1
		c0-0.3,0-0.6,0-1s0-0.7,0.2-0.9c0-0.1,0.1-0.2,0.2-0.3s0.2-0.1,0.3-0.2c0.1,0,0.2,0,0.3,0.1c0.1,0.1,0.2,0.2,0.2,0.3
		c0.1,0.2,0.1,0.5,0.1,0.7c0,0.3-0.1,0.5-0.1,0.7c0,0.3,0,0.5-0.1,0.8c0,0.3,0,0.6-0.1,0.8l-0.2,2.4c0,0.1-0.1,0.3-0.1,0.4
		c0,0.2,0,0.3,0.1,0.4c0.1,0.2,0.3,0.2,0.4,0.3c0.2,0,0.4,0,0.5,0c0.2,0,0.3-0.1,0.4-0.1s0.3-0.1,0.4-0.1c0.2,0,0.4,0,0.6,0.1
		s0.3,0.2,0.3,0.4c0,0.1,0,0.2,0,0.3s-0.1,0.2-0.2,0.3c-0.2,0.1-0.4,0.2-0.7,0.2c-0.2,0-0.4,0-0.5-0.1c-0.2,0-0.4,0-0.6,0
		c-0.2,0-0.3,0.1-0.5,0.2c-0.1,0.1-0.2,0.3-0.3,0.5c0,0.1,0,0.3,0,0.4c0,0.1,0,0.2,0,0.4c0,0.4,0,0.8,0.1,1.1c0,0.4,0,0.8,0.1,1.1
		c0,0.3,0,0.7,0.1,1.1c0,0.4,0,0.8-0.1,1.1c0,0.1-0.1,0.2-0.3,0.3c-0.1,0.1-0.2,0.1-0.4,0.1c-0.1,0-0.2-0.1-0.3-0.1
		c-0.1-0.1-0.1-0.2-0.2-0.3c0-0.2-0.1-0.4,0-0.6c0-0.7,0-1.3,0-1.9c0-0.7,0-1.3,0-1.9c0-0.1,0-0.2,0-0.3c0-0.1,0-0.2-0.1-0.3
		c0-0.2-0.1-0.3-0.3-0.3C117.3,35.3,117.1,35.3,117,35.2z"/>
	<path class="st2" d="M123.4,34c0,0.3,0,0.7,0,1c0,0.3,0,0.7-0.1,1c0,0.2,0,0.3,0.1,0.4c0.1,0.1,0.1,0.1,0.3,0
		c0.1,0,0.1-0.1,0.2-0.1c0.1-0.1,0.1-0.1,0.1-0.2c0.3-0.5,0.7-0.9,1.1-1.2c0.5-0.4,0.9-0.7,1.3-0.9c0.3-0.1,0.7-0.2,1-0.1
		c0.4,0,0.6,0.2,0.9,0.6c0.2,0.3,0.3,0.8,0.3,1.2s-0.1,1-0.2,1.3c-0.1,0.6-0.2,1.1-0.3,1.8c-0.1,0.6-0.1,1.2-0.1,1.8
		c0,0.3,0.1,0.6,0.1,0.9c0.1,0.3,0.1,0.6,0.3,0.9c0.1,0.1,0.1,0.2,0.2,0.4c0.1,0.1,0.1,0.2,0.1,0.4c0,0.1,0,0.2,0,0.3
		s-0.1,0.2-0.3,0.3c-0.1,0.1-0.3,0.1-0.4,0.1c-0.2,0-0.3-0.1-0.4-0.2c-0.4-0.3-0.6-0.7-0.6-1.1c-0.1-0.8-0.1-1.5,0-2.2
		c0.1-0.8,0.2-1.5,0.3-2.2c0-0.2,0.1-0.5,0.2-0.8c0.1-0.4,0.1-0.7,0.1-1c0-0.3,0-0.6-0.1-0.9c-0.1-0.2-0.3-0.4-0.6-0.4
		c-0.1,0-0.2,0-0.3,0.1c-0.1,0-0.2,0.1-0.3,0.1c-0.5,0.2-1,0.6-1.3,1c-0.4,0.5-0.8,1-1.1,1.4c-0.3,0.6-0.6,1.1-0.7,1.8
		c-0.1,0.3-0.1,0.7-0.2,1c-0.1,0.3-0.2,0.6-0.4,0.9c-0.1,0.1-0.2,0.2-0.4,0.3c-0.1,0.1-0.3,0-0.4,0c-0.1-0.1-0.2-0.2-0.2-0.3
		s-0.1-0.3-0.1-0.4c0-0.4,0.1-0.8,0.2-1.2c0.1-0.4,0.2-0.8,0.3-1.2c0.1-0.9,0.2-1.6,0.3-2.5c0.1-0.9,0.1-1.6,0.1-2.5
		c0-0.6,0-1.1,0-1.8c0-0.6,0-1.2,0-1.8c0-0.2,0-0.5,0-0.9s0-0.6,0.1-0.8c0.1-0.1,0.2-0.2,0.3-0.2s0.2,0.1,0.3,0.2
		c0.1,0.1,0.2,0.2,0.2,0.3c0.1,0.1,0.1,0.2,0.1,0.3c0,0.2,0.1,0.4,0.1,0.6s0,0.4,0,0.6c0,0.8-0.1,1.4-0.1,2.1
		C123.5,32.6,123.4,33.3,123.4,34z"/>
	<path class="st2" d="M133.7,37.3c-0.1,0.7-0.1,1.4-0.2,2.2c0,0.1,0,0.3,0,0.5c0,0.2,0,0.4,0,0.6c0,0.2,0,0.4,0,0.5
		c0,0.2,0.1,0.3,0.2,0.4c0.1,0.1,0.1,0.2,0.2,0.3c0.1,0.1,0.1,0.2,0.2,0.3c0.1,0.1,0.1,0.2,0.1,0.3s0,0.2,0,0.3
		c-0.1,0.2-0.3,0.3-0.5,0.3c-0.3,0-0.5-0.1-0.7-0.3c-0.1-0.2-0.3-0.5-0.3-0.7c0-0.2-0.1-0.4-0.1-0.6s0-0.4-0.1-0.6
		c0-0.1,0-0.2,0-0.2s0-0.1-0.1-0.1c-0.2,0-0.3,0.1-0.5,0.3c-0.2,0.2-0.3,0.3-0.4,0.4c-0.2,0.2-0.4,0.4-0.6,0.6
		c-0.3,0.2-0.5,0.3-0.8,0.2c-0.3-0.1-0.6-0.2-0.6-0.6c-0.1-0.3-0.1-0.6-0.1-0.9c0-1,0.2-1.9,0.4-2.9s0.6-1.8,1.1-2.7
		c0.1-0.2,0.2-0.4,0.4-0.6c0.1-0.2,0.3-0.4,0.5-0.5c0.1-0.1,0.3-0.2,0.5-0.3s0.4-0.1,0.7-0.2c0.2,0,0.4,0,0.6,0.1
		c0.2,0.1,0.3,0.2,0.4,0.4c0.1,0.2,0.2,0.4,0.2,0.7c0,0.2,0,0.4,0,0.7l-0.1,1.7L133.7,37.3z M132.7,36c0-0.2,0-0.4,0-0.7
		c0-0.3,0-0.5,0-0.7c0-0.2-0.1-0.4-0.2-0.5c-0.1-0.1-0.2-0.1-0.4,0c-0.3,0.2-0.5,0.5-0.7,0.8c-0.2,0.3-0.3,0.6-0.5,0.9
		c-0.3,0.7-0.5,1.4-0.7,2.1c-0.1,0.8-0.2,1.4-0.2,2.2c0,0.1,0,0.2,0,0.4c0,0.1,0.1,0.2,0.2,0.2c0.2,0.1,0.4,0,0.5-0.1
		c0.1-0.1,0.3-0.2,0.4-0.4c0.5-0.6,0.8-1.2,1-1.9s0.4-1.4,0.5-2.1L132.7,36z"/>
	<path class="st2" d="M136.9,40c0,0.2,0,0.3,0,0.4c0,0.1,0,0.3,0,0.4c0,0.1,0,0.3-0.1,0.4c0,0.2-0.1,0.3-0.1,0.5
		c0,0.2-0.1,0.3-0.2,0.4s-0.2,0.2-0.3,0.2c-0.2,0-0.3,0-0.3-0.1c-0.1-0.1-0.1-0.2-0.2-0.3c-0.1-0.1-0.1-0.3-0.1-0.4s0-0.3,0-0.4
		c0-0.4,0.1-0.9,0.1-1.2c0.1-0.4,0.1-0.9,0.1-1.2c0-0.6,0-1.1-0.1-1.7c-0.1-0.6-0.2-1.1-0.3-1.7c0-0.2-0.1-0.4-0.1-0.6
		s0.1-0.3,0.2-0.4c0.2-0.1,0.4-0.2,0.6,0c0.1,0.1,0.2,0.2,0.3,0.4c0,0.2,0.1,0.3,0.1,0.5c0,0.2,0.1,0.3,0.1,0.5
		c0,0.2,0.1,0.3,0.1,0.5c0,0.1,0,0.1,0,0.2c0,0.1,0,0.2,0.1,0.2c0,0.1,0.1,0.1,0.1,0.1s0.1-0.1,0.2-0.2c0.3-0.5,0.7-1,1.1-1.4
		c0.4-0.5,0.9-0.8,1.5-1c0.2,0,0.4-0.1,0.7-0.1c0.2,0,0.5,0,0.7,0s0.5,0.1,0.7,0.2c0.2,0.1,0.4,0.2,0.5,0.4c0.2,0.3,0.3,0.7,0.4,1.1
		c0.1,0.4,0.1,0.8,0.2,1.1c0.1,0.9,0.1,1.7,0.2,2.6c0,0.9,0,1.7,0.1,2.6c0,0.1,0,0.2,0,0.4c0,0.1,0,0.2-0.1,0.4
		c0,0.1-0.1,0.2-0.2,0.3c-0.1,0.1-0.2,0.1-0.4,0.1c-0.3,0-0.5-0.2-0.6-0.4c-0.1-0.1-0.1-0.2-0.1-0.4c0-0.1,0-0.2,0-0.4
		c0-0.9,0.1-1.8,0.1-2.7c0-0.9,0-1.7-0.1-2.7c0-0.3-0.1-0.5-0.1-0.7c-0.1-0.2-0.2-0.5-0.4-0.6c-0.2-0.2-0.5-0.4-0.8-0.4
		c-0.3-0.1-0.6,0-0.9,0.1c-0.3,0.1-0.6,0.2-0.8,0.4c-0.2,0.2-0.4,0.4-0.6,0.7c-0.4,0.6-0.7,1.2-0.9,2C137,38.6,137,39.4,136.9,40z"
		/>
	<path class="st2" d="M155.1,42.7c0.4,0,0.8,0.1,1.1,0.1c0.4,0,0.8,0.1,1.1,0.3c0.2,0.1,0.4,0.2,0.4,0.4c0,0.2,0,0.3-0.1,0.4
		c-0.1,0.1-0.2,0.1-0.3,0.2c-0.1,0-0.2,0-0.4,0c-0.1,0-0.3,0-0.4,0c-1.1-0.1-2.2-0.1-3.2-0.2c-1.1-0.1-2.2-0.2-3.2-0.4
		c-0.2,0-0.3-0.1-0.5-0.1s-0.3-0.1-0.5-0.2c-0.3-0.2-0.5-0.5-0.5-0.8c0-0.3,0.1-0.6,0.3-0.9c0.3-0.4,0.6-0.7,1-1
		c0.4-0.3,0.7-0.6,1.1-0.9c0.5-0.6,1-1.1,1.4-1.7c0.5-0.6,0.9-1.2,1.1-1.9c0.2-0.3,0.4-0.7,0.6-1.2c0.3-0.5,0.4-1.1,0.6-1.5
		c0.1-0.5,0.2-1,0.1-1.4c-0.1-0.5-0.4-0.8-1-0.9c-0.3-0.1-0.7-0.1-1.1-0.1c-0.4,0-0.8,0.1-1.1,0.3c-0.4,0.1-0.7,0.3-1.1,0.5
		s-0.7,0.4-0.9,0.6c-0.2,0.1-0.3,0.2-0.5,0.3c-0.2,0.1-0.4,0.1-0.6,0c-0.1-0.1-0.2-0.2-0.2-0.4c0-0.2,0-0.3,0.1-0.4
		c0.1-0.1,0.2-0.2,0.3-0.3c0.1-0.1,0.3-0.1,0.4-0.2c0.6-0.3,1.1-0.5,1.6-0.8c0.6-0.2,1.1-0.4,1.7-0.4s1.1,0.1,1.7,0.4
		c0.6,0.3,1,0.7,1.2,1.2c0.1,0.3,0.2,0.6,0.2,1c0,0.3,0,0.7-0.1,1c-0.1,0.4-0.2,0.7-0.4,1.1c-0.2,0.3-0.3,0.7-0.5,1
		c-0.2,0.4-0.3,0.7-0.5,1.1c-0.2,0.3-0.4,0.7-0.6,1c-0.8,1.3-1.6,2.5-2.7,3.6c-0.1,0.1-0.1,0.2-0.3,0.3c-0.1,0.1-0.2,0.2-0.3,0.3
		c-0.1,0.1-0.2,0.2-0.2,0.3c-0.1,0.1-0.1,0.2,0,0.3c0.1,0.1,0.2,0.3,0.5,0.4c0.4,0.1,0.7,0.2,1.1,0.2s0.7,0,1.1,0c0.3,0,0.7,0,1,0
		C154.5,42.7,154.8,42.7,155.1,42.7z"/>
	<path class="st2" d="M159.1,33.3c0-0.1,0-0.3,0-0.4c0-0.1,0-0.3,0.1-0.4c0-0.1,0-0.3,0.1-0.5c0-0.2,0.1-0.4,0.1-0.6
		c0-0.2,0.1-0.4,0.2-0.6c0.1-0.2,0.2-0.3,0.3-0.4c0.2-0.2,0.4-0.3,0.6-0.2c0.1,0.1,0.2,0.2,0.2,0.4s0,0.4,0,0.7c0,0.3,0,0.4-0.1,0.5
		c-0.1,0.6-0.3,1.1-0.4,1.6c-0.1,0.6-0.1,1.1,0.1,1.6c0.2,0.6,0.4,1,0.7,1.2c0.3,0.3,0.7,0.6,1.1,0.7c0.4,0.2,0.9,0.3,1.2,0.3
		c0.5,0,1,0.1,1.4,0c0.2,0,0.4,0,0.6,0c0.2,0,0.4-0.1,0.5-0.2c0.4-0.2,0.6-0.4,0.6-0.8c0-0.3,0-0.7,0-1.1c-0.1-0.5-0.2-1-0.3-1.4
		c-0.1-0.5-0.2-1-0.2-1.4c0-0.1,0-0.2,0.1-0.4c0-0.1,0.1-0.3,0.2-0.4c0.1-0.1,0.2-0.2,0.3-0.2c0.1,0,0.2,0,0.3,0.1
		c0.2,0.1,0.3,0.4,0.4,0.7c0.1,0.3,0.1,0.5,0.1,0.8c0.1,1,0.2,1.9,0.3,2.9c0.1,1,0.1,1.9,0.1,2.9c0,0.5,0,1,0,1.4s0,1,0,1.4
		c0,0.2,0,0.4,0.1,0.6c0,0.2,0.1,0.5,0.1,0.8c0,0.3,0,0.5,0,0.7c0,0.2-0.1,0.4-0.2,0.5c-0.1,0.1-0.2,0.1-0.4,0.1s-0.3,0-0.4-0.1
		c-0.1-0.1-0.2-0.3-0.3-0.5c0-0.2-0.1-0.5-0.1-0.7c0-0.3,0-0.5,0-0.7c0-0.2,0-0.4,0-0.6c0-0.3,0-0.7,0.1-1.1c0-0.4,0.1-0.9,0-1.2
		c0-0.4-0.2-0.8-0.4-1.1s-0.6-0.5-1.1-0.5s-1,0-1.3,0.1c-0.5,0.1-0.9,0.1-1.3,0c-0.5-0.1-1-0.2-1.3-0.5c-0.5-0.2-0.9-0.6-1.1-1
		c-0.2-0.3-0.4-0.7-0.5-1.1c-0.1-0.4-0.2-0.8-0.3-1.1C159.2,34.4,159.1,33.9,159.1,33.3z"/>
	<path class="st2" d="M170.4,37.3c0,0.3,0,0.7,0,1c0,0.3,0,0.7-0.1,1c0,0.2,0,0.3,0.1,0.4c0.1,0.1,0.1,0.1,0.3,0
		c0.1,0,0.1-0.1,0.2-0.1c0.1-0.1,0.1-0.1,0.1-0.2c0.3-0.5,0.7-0.9,1.1-1.2c0.5-0.4,0.9-0.7,1.3-0.9c0.3-0.1,0.7-0.2,1-0.1
		s0.6,0.2,0.9,0.6c0.2,0.3,0.3,0.8,0.3,1.2s-0.1,1-0.2,1.3c-0.1,0.6-0.2,1.1-0.3,1.8c-0.1,0.6-0.1,1.2-0.1,1.8
		c0,0.3,0.1,0.6,0.1,0.9c0.1,0.3,0.1,0.6,0.3,0.9c0.1,0.1,0.1,0.2,0.2,0.4c0.1,0.1,0.1,0.2,0.1,0.4c0,0.1,0,0.2,0,0.3
		s-0.1,0.2-0.3,0.3c-0.1,0.1-0.3,0.1-0.4,0.1c-0.2,0-0.3-0.1-0.4-0.2c-0.4-0.3-0.6-0.7-0.6-1.1c-0.1-0.8-0.1-1.5,0-2.2
		c0.1-0.8,0.2-1.5,0.3-2.3c0-0.2,0.1-0.5,0.2-0.8c0.1-0.4,0.1-0.7,0.1-1c0-0.3,0-0.6-0.1-0.9c-0.1-0.2-0.3-0.4-0.6-0.4
		c-0.1,0-0.2,0-0.3,0.1c-0.1,0-0.2,0.1-0.3,0.1c-0.5,0.2-1,0.6-1.3,1c-0.4,0.5-0.8,1-1.1,1.4c-0.3,0.6-0.6,1.1-0.7,1.8
		c-0.1,0.3-0.1,0.7-0.2,1s-0.2,0.6-0.4,0.9c-0.1,0.1-0.2,0.2-0.4,0.3c-0.1,0.1-0.3,0-0.4,0c-0.1-0.1-0.2-0.2-0.2-0.3
		s-0.1-0.3-0.1-0.4c0-0.4,0.1-0.8,0.2-1.2c0.1-0.4,0.2-0.8,0.3-1.2c0.1-0.9,0.2-1.6,0.3-2.5c0.1-0.9,0.1-1.7,0.1-2.5
		c0-0.6,0-1.1,0-1.8c0-0.6,0-1.2,0-1.8c0-0.2,0-0.5,0-0.9s0-0.6,0.1-0.8c0.1-0.1,0.2-0.2,0.3-0.2c0.1,0,0.2,0.1,0.3,0.2
		c0.1,0.1,0.2,0.2,0.2,0.3c0.1,0.1,0.1,0.2,0.2,0.3c0,0.2,0.1,0.4,0.1,0.6c0,0.2,0,0.4,0,0.6c0,0.8-0.1,1.4-0.1,2.1
		C170.5,35.9,170.5,36.6,170.4,37.3z"/>
</g>
</svg>
