<?xml version="1.0" encoding="utf-8"?>
<!-- Generator: Adobe Illustrator 23.0.4, SVG Export Plug-In . SVG Version: 6.00 Build 0)  -->
<svg version="1.1" id="Layer_1" xmlns="http://www.w3.org/2000/svg" xmlns:xlink="http://www.w3.org/1999/xlink" x="0px" y="0px"
	 viewBox="0 0 200 49.1" style="enable-background:new 0 0 200 49.1;" xml:space="preserve">
<style type="text/css">
	.st0{opacity:0.7;fill-rule:evenodd;clip-rule:evenodd;fill:#151515;enable-background:new    ;}
	.st1{enable-background:new    ;}
	.st2{fill:#151515;}
</style>
<path id="Path" class="st0" d="M59.6,16.8c-0.2,0.4-0.6,0.6-1,0.3c-6.4-0.6-12.7-0.3-19.1,0.3C33.2,18.2,27,19.5,21,21
	c-1.8,0.6-3.9,1.1-5.8,1.4c-1.3,0.4-2.7,0.8-4,1.3c-1.4,0.6-3.1,1.1-4.7,1.7c0.7,0.1,1.3,0,2,0.1v0.1H9l0.4,0.2l1.1,0.2l1.1,0.2
	l0.6,0.1l0.6,0.1l0.7,0.1h3.3l1.3,0.1h2.2l0.9,0.1h1.3v0.1l0.1,0.1l0.1,0.3v1.2l-0.1,0.1h-1.1v0.1l-3.8-0.2h-2.1l-2.5-0.2h-2.7
	c-0.1,0-0.3,0-0.4-0.1c-0.1,0-0.3,0-0.6-0.1L9,28.2l-1.1-0.1v-0.2c-1.3,0-2.9-0.1-4.3-0.2H2.2c-0.7,0-1.3-0.2-1.7-0.4
	c-0.2-0.6-0.7-1-0.6-1.6c0-0.6,0.2-1.1,0.8-1.7l1-1.1c0.2-0.3,0.4-0.6,0.8-0.9c0.6-0.6,1-1.1,1.6-1.7c1.1-1.1,2.2-2.1,3.6-3
	c0.4-0.6,1.2-1.1,2-1.7c0.6-0.3,1.1-0.8,1.7-1.1c0.8-0.6,1.7-1.1,2.6-1.7c0.1,0,0.2-0.1,0.2-0.1c0.6-0.2,1.2-0.1,1.6,0.1
	c0.3,0.2,0.6,0.8,0.4,1.1c-0.1,0.2-0.2,0.4-0.4,0.6c-0.9,0.6-1.7,1.1-2.6,1.8c-0.8,0.6-2.7,1.9-4.3,3.2S5.8,22,5.7,22
	c-0.8,0.7-1.4,1.4-2.1,2.1c1.9-0.9,3.8-1.4,5.8-2.2c2.1-0.8,6.9-2.3,11.4-3.5c4.5-1.1,8.5-1.9,8.7-1.8c2.3-0.4,4.8-0.9,7.1-1.2
	c3.7-0.6,7.1-0.9,10.6-0.9h3.9c2.7,0,5.2,0.1,7.8,0.3C60.2,14.9,60.4,15.6,59.6,16.8L59.6,16.8z"/>
<g class="st1">
	<path class="st2" d="M74.9,8.9c-0.3,0.8-0.7,1.7-1.1,2.5c-0.4,0.8-0.8,1.6-1.4,2.4c-0.3,0.4-0.7,0.6-1.2,0.7
		c-0.5,0.1-0.9,0-1.3-0.3c-0.2-0.1-0.4-0.3-0.5-0.6c-0.2-0.2-0.3-0.5-0.4-0.7c-0.2-0.5-0.3-0.9-0.4-1.4c-0.1-0.5-0.1-1-0.2-1.4
		c-0.1-0.6-0.2-1.3-0.2-1.9s-0.1-1.3-0.1-1.9c0-0.5-0.1-1-0.1-1.5c0-0.5-0.1-1-0.1-1.6c0-0.3,0-0.5,0-0.8c0-0.3,0-0.5,0-0.8
		c0-0.1,0-0.2,0-0.3c0-0.1,0-0.3-0.1-0.4c0-0.1,0-0.3,0-0.4c0-0.1,0-0.2,0.1-0.3C68,0.1,68.2,0,68.3,0c0.2,0,0.3,0,0.5,0.1
		C68.9,0.3,69,0.4,69,0.5c0,0.2,0,0.3,0,0.5c0,0.4,0,0.9,0,1.3c0,0.4,0,0.9,0,1.3c0,0.7,0.1,1.4,0.1,2c0.1,0.7,0.1,1.3,0.2,2
		c0.1,0.5,0.1,1.1,0.2,1.6c0.1,0.5,0.2,1.1,0.2,1.6c0,0.2,0.1,0.5,0.2,0.9c0.1,0.4,0.2,0.7,0.3,1.1c0.1,0.3,0.3,0.6,0.6,0.7
		c0.2,0.2,0.5,0.1,0.9-0.1c0.2-0.1,0.3-0.2,0.4-0.4c0.1-0.2,0.2-0.3,0.3-0.5c0.3-0.6,0.6-1.2,0.9-1.7c0.3-0.6,0.6-1.2,0.9-1.8
		c0.3-0.6,0.5-1.2,0.7-1.8C75,6.6,75.2,6,75.3,5.4c0-0.2,0.1-0.5,0.1-0.7s0-0.5,0-0.8c0-0.2,0-0.4,0-0.6c0-0.3,0.1-0.4,0.3-0.5
		c0.1,0,0.3-0.1,0.4,0c0.1,0,0.3,0.1,0.3,0.2c0.1,0.1,0.1,0.2,0.2,0.3c0,0.1,0,0.2,0,0.4c0,1.5,0.1,2.9,0.3,4.2
		c0.2,1.4,0.4,2.8,0.7,4.2c0.1,0.3,0.1,0.5,0.2,0.8c0.1,0.3,0.2,0.5,0.4,0.7c0.3,0.2,0.5,0.3,0.7,0.2c0.2-0.1,0.4-0.2,0.6-0.4
		c0.2-0.2,0.4-0.4,0.5-0.7c0.1-0.3,0.3-0.5,0.4-0.7c0.7-1.5,1.2-3.1,1.4-4.7c0.2-1.6,0.2-3.3-0.1-4.9c0-0.1-0.1-0.3-0.1-0.4
		c0-0.1,0-0.3,0-0.4c0-0.2,0.1-0.3,0.2-0.4c0.1-0.1,0.2-0.2,0.3-0.2c0.1,0,0.2,0,0.3,0.1c0.1,0.1,0.2,0.2,0.2,0.3
		C83,1.4,83,1.5,83,1.6c0,0.1,0,0.2,0,0.4c0.1,1.4,0.1,2.7-0.1,4.1c-0.2,1.4-0.5,2.7-0.9,4c-0.2,0.7-0.5,1.3-0.7,2
		c-0.3,0.7-0.6,1.3-1.1,1.9c-0.2,0.2-0.4,0.5-0.6,0.7c-0.2,0.3-0.5,0.4-0.9,0.4c-0.3,0-0.5,0-0.6-0.1c-0.2-0.1-0.3-0.3-0.5-0.4
		c-0.1-0.2-0.2-0.4-0.3-0.6c-0.1-0.2-0.2-0.4-0.2-0.6c-0.1-0.4-0.2-0.8-0.3-1.3c-0.1-0.4-0.1-0.9-0.2-1.3c0-0.3-0.1-0.5-0.1-0.8
		c0-0.3-0.1-0.5-0.1-0.8c0-0.2-0.1-0.3-0.1-0.5c0-0.1,0-0.3-0.1-0.5c0-0.1,0-0.2,0-0.4c0-0.2,0-0.3-0.1-0.4
		c-0.1-0.1-0.2-0.2-0.3-0.1c-0.1,0.1-0.2,0.2-0.3,0.4c-0.1,0.2-0.1,0.3-0.2,0.5c-0.1,0.2-0.1,0.3-0.1,0.4C75,8.7,75,8.8,74.9,8.9z"
		/>
	<path class="st2" d="M86.8,15.7c-0.5-0.1-1-0.2-1.5-0.5c-0.4-0.3-0.8-0.6-1-1.1c-0.1-0.3-0.2-0.5-0.2-0.8c0-0.3,0-0.5,0-0.8
		c0-0.3,0-0.5-0.1-0.6c-0.1-0.1-0.2-0.3-0.4-0.5c-0.2-0.1-0.2-0.3-0.2-0.5c0.1-0.2,0.2-0.4,0.4-0.4c0.2-0.1,0.4-0.1,0.6-0.2
		c0.2-0.1,0.3-0.2,0.5-0.4c0.2-0.2,0.3-0.5,0.4-0.7c0.1-0.3,0.2-0.5,0.4-0.7c0.1-0.2,0.3-0.4,0.5-0.7c0.2-0.3,0.5-0.5,0.7-0.7
		c0.3-0.2,0.5-0.4,0.8-0.4c0.3-0.1,0.6-0.1,0.8,0.1c0.2,0.1,0.3,0.2,0.3,0.3C88.9,7,89,7.2,89,7.3c0,0.2,0,0.5-0.1,0.8
		c-0.2,0.5-0.5,1-0.9,1.4c-0.4,0.4-0.9,0.7-1.4,1.1c-0.2,0.2-0.5,0.3-0.7,0.5c-0.2,0.2-0.4,0.4-0.5,0.6c-0.1,0.2-0.2,0.5-0.3,0.7
		c0,0.3,0,0.5,0.1,0.8c0.1,0.4,0.3,0.7,0.6,0.9c0.3,0.2,0.6,0.4,0.9,0.5c0.3,0.1,0.7,0.1,1.1,0.1c0.4-0.1,0.8-0.2,1.1-0.3
		c0.1-0.1,0.2-0.1,0.3-0.1c0.1,0,0.2-0.1,0.3-0.1c0.3,0,0.4,0.1,0.4,0.3c0,0.2,0,0.4-0.1,0.5c-0.1,0.1-0.3,0.3-0.6,0.4
		C88.4,15.7,87.6,15.8,86.8,15.7z M86.1,9.7L86.1,9.7c0.3,0,0.5-0.1,0.7-0.2C87,9.3,87.2,9.2,87.3,9c0.1-0.1,0.3-0.3,0.4-0.5
		C87.9,8.4,88,8.2,88,8c0-0.1,0-0.2-0.1-0.2c-0.1-0.1-0.2-0.1-0.4-0.1c-0.2,0.1-0.4,0.2-0.5,0.3c-0.1,0.1-0.3,0.3-0.4,0.4
		c0,0.1-0.1,0.1-0.2,0.3c-0.1,0.1-0.2,0.3-0.3,0.4c-0.1,0.1-0.1,0.3-0.2,0.4C86,9.6,86,9.7,86.1,9.7z"/>
	<path class="st2" d="M106.1,10.5l0,0.5c-0.1,0.6-0.1,1.2-0.2,1.8c-0.1,0.6-0.2,1.2-0.4,1.7c-0.1,0.2-0.2,0.5-0.3,0.7
		c-0.1,0.3-0.3,0.5-0.5,0.7c-0.2,0.2-0.4,0.4-0.6,0.6c-0.2,0.2-0.4,0.3-0.7,0.3c-0.4,0.1-0.8,0-1-0.2c-0.2-0.2-0.4-0.6-0.5-1
		c-0.1-0.4-0.2-0.8-0.2-1.2c0-0.4,0-0.8-0.1-1c0-0.1,0-0.2,0-0.3c0-0.1,0-0.2-0.1-0.3c-0.1-0.2-0.2-0.3-0.4-0.3
		c-0.1,0.1-0.2,0.2-0.3,0.4c-0.1,0.2-0.2,0.4-0.3,0.6c-0.1,0.2-0.1,0.4-0.2,0.4c-0.1,0.2-0.3,0.5-0.4,0.7c-0.2,0.3-0.3,0.6-0.5,0.8
		c-0.2,0.3-0.4,0.5-0.7,0.7c-0.2,0.2-0.5,0.3-0.8,0.2c-0.3,0-0.6-0.2-0.8-0.4c-0.2-0.3-0.4-0.6-0.5-1c-0.1-0.4-0.2-0.8-0.3-1.2
		c-0.1-0.4-0.1-0.7-0.1-1c-0.1-0.8-0.2-1.6-0.2-2.4c0-0.8-0.1-1.6-0.2-2.4c0-0.1,0-0.3,0-0.4c0-0.1,0-0.2,0.1-0.3
		c0.1-0.1,0.3-0.2,0.4-0.3c0.2,0,0.4,0,0.5,0.2C96.9,7.4,97,7.6,97,7.7c0,0.2,0,0.3,0,0.5c0,0.3,0,0.6,0,1c0,0.3,0,0.6,0,0.9
		c0.1,0.6,0.1,1.3,0.2,1.9c0.1,0.6,0.1,1.3,0.2,1.9c0,0.2,0.1,0.4,0.1,0.6c0.1,0.2,0.2,0.3,0.4,0.4c0.3,0.1,0.6,0.1,0.8,0
		c0.2-0.1,0.4-0.3,0.6-0.6c0.2-0.3,0.3-0.5,0.4-0.8c0.1-0.3,0.2-0.5,0.3-0.7c0.4-0.8,0.6-1.6,0.8-2.4c0-0.2,0.1-0.4,0.1-0.7
		s0-0.5,0-0.7c0-0.2,0-0.4-0.1-0.6c0-0.2,0-0.4,0-0.5c0-0.1,0.1-0.2,0.3-0.3c0.1-0.1,0.3-0.1,0.4,0c0.2,0,0.2,0.2,0.3,0.3
		c0,0.2,0,0.3,0.1,0.4c0.1,0.7,0.1,1.4,0.2,2.1c0.1,0.7,0.2,1.4,0.3,2.2c0,0.2,0.1,0.4,0.1,0.8c0,0.3,0.1,0.7,0.2,1
		c0.1,0.3,0.2,0.6,0.3,0.9c0.1,0.2,0.4,0.3,0.6,0.3c0.3-0.1,0.5-0.2,0.6-0.4c0.1-0.2,0.2-0.4,0.3-0.6c0.2-0.8,0.4-1.5,0.6-2.3
		c0.1-0.6,0.1-1.2,0.1-1.7c0-0.6-0.1-1.1-0.1-1.7c0-0.1,0-0.3,0-0.5c0-0.2,0.1-0.4,0.2-0.4c0.2-0.1,0.4-0.1,0.5,0
		c0.1,0.1,0.2,0.3,0.3,0.4c0.1,0.2,0.1,0.4,0.1,0.6c0,0.2,0,0.3,0,0.4c0,0.2,0,0.4,0,0.6C106.2,10.1,106.2,10.3,106.1,10.5z"/>
	<path class="st2" d="M108.2,10.6l-0.2,3.5c0,0.3,0,0.6,0,0.9c0,0.3,0,0.6,0,0.9c0,0.2,0,0.4,0,0.6c0,0.2-0.1,0.4-0.2,0.6
		c-0.1,0.1-0.3,0.1-0.4,0.1c-0.2,0-0.3-0.1-0.4-0.3c-0.1-0.2-0.2-0.4-0.1-0.6c0-0.2,0-0.4,0.1-0.6c0-1.1,0.1-2.2,0.1-3.3
		c0-1.1,0.1-2.2,0.1-3.3c0-0.2,0-0.3,0-0.5c0-0.2,0.1-0.3,0.2-0.4c0.1-0.2,0.3-0.3,0.4-0.2c0.2,0.1,0.3,0.2,0.4,0.3
		c0.1,0.2,0.2,0.4,0.2,0.6c0,0.2,0,0.4,0,0.6c0,0.2,0,0.3,0,0.5C108.2,10.3,108.2,10.4,108.2,10.6z M108.1,6.6
		c-0.2,0-0.3-0.1-0.4-0.2c-0.1-0.1-0.2-0.2-0.2-0.4c0-0.1,0-0.3,0.1-0.4c0.1-0.1,0.3-0.2,0.5-0.2c0.2,0,0.3,0,0.4,0.1
		c0.1,0.1,0.2,0.2,0.2,0.3c0,0.1,0,0.2,0,0.4c-0.1,0.1-0.2,0.2-0.3,0.3C108.3,6.6,108.1,6.6,108.1,6.6z"/>
	<path class="st2" d="M110.5,16.6c-0.1,0.3-0.1,0.5-0.3,0.6c-0.1,0.1-0.3,0.1-0.5,0c-0.1-0.1-0.2-0.2-0.2-0.3c0-0.1-0.1-0.2-0.1-0.4
		c0-0.1,0-0.3,0-0.4c0-0.1,0-0.3,0-0.3c0.1-0.8,0.1-1.6,0.1-2.4c0-0.8,0-1.6,0-2.4c0-0.8,0-1.6,0-2.4c0-0.8,0-1.6,0-2.4
		c0-0.3,0-0.7,0-1c0-0.3,0-0.7,0-1c0-0.2,0-0.4,0.1-0.7c0-0.2,0.2-0.4,0.4-0.5c0.2-0.1,0.3-0.1,0.5,0c0.2,0.1,0.2,0.2,0.3,0.4
		c0,0.2,0,0.4,0,0.7c0,0.2,0,0.5,0,0.7c0,0.6-0.1,1.3-0.1,1.9c0,0.6,0,1.3,0,1.9c0,0.8,0,1.5,0,2.3c0,0.8,0,1.5,0,2.3
		c0,0.1,0,0.2,0,0.5c0,0.3,0,0.6,0,0.9c0,0.3,0,0.7,0,1C110.6,16,110.6,16.3,110.5,16.6z"/>
	<path class="st2" d="M113,16.8c-0.1,0.3-0.1,0.5-0.3,0.6s-0.3,0.1-0.5,0c-0.1-0.1-0.2-0.2-0.2-0.3c0-0.1-0.1-0.2-0.1-0.4
		c0-0.1,0-0.3,0-0.4c0-0.1,0-0.3,0-0.3c0.1-0.8,0.1-1.6,0.1-2.4c0-0.8,0-1.6,0-2.4c0-0.8,0-1.6,0-2.4c0-0.8,0-1.6,0-2.3
		c0-0.3,0-0.7,0-1c0-0.3,0-0.7,0-1c0-0.2,0-0.4,0.1-0.7c0-0.2,0.1-0.4,0.4-0.5c0.2-0.1,0.3-0.1,0.5,0c0.2,0.1,0.2,0.2,0.3,0.4
		c0,0.2,0,0.4,0,0.7c0,0.2,0,0.5,0,0.7c0,0.6-0.1,1.3-0.1,1.9c0,0.6,0,1.3,0,1.9c0,0.8,0,1.5,0,2.3c0,0.8,0,1.5,0,2.3
		c0,0.1,0,0.2,0,0.5c0,0.3,0,0.6,0,0.9c0,0.3,0,0.7,0,1C113.1,16.2,113,16.5,113,16.8z"/>
	<path class="st2" d="M124.1,18c0-0.2,0.1-0.3,0.1-0.4c0-0.1,0-0.3,0.1-0.4c0-0.1,0-0.3,0-0.5c0-0.3,0-0.4-0.1-0.5
		c-0.1-0.1-0.3-0.1-0.4,0.1c-0.1,0.1-0.2,0.3-0.2,0.4c-0.2,0.3-0.5,0.6-0.8,0.8c-0.3,0.3-0.6,0.5-0.9,0.7c-0.3,0.2-0.7,0.3-1.1,0.4
		c-0.4,0-0.8,0-1.2-0.2c-0.3-0.2-0.5-0.4-0.7-0.7c-0.2-0.3-0.2-0.6-0.3-1c0-0.4,0-0.7,0-1.1c0.1-0.4,0.1-0.7,0.2-1
		c0.2-0.6,0.5-1.2,0.8-1.7c0.3-0.5,0.7-1.1,1.1-1.5c0.3-0.4,0.7-0.9,1.2-1.3c0.4-0.4,0.9-0.7,1.5-0.8c0.3,0,0.6,0,1,0
		c0.4,0,0.7,0.1,1,0.4c0.2,0.2,0.3,0.4,0.4,0.6s0.1,0.5,0.1,0.7c0,0.3-0.1,0.5-0.1,0.8c0,0.3-0.1,0.5-0.1,0.7c0,0.7-0.1,1.3-0.1,2
		c0,0.7-0.1,1.3-0.2,2c-0.1,1.5-0.3,3-0.5,4.5c-0.1,0.7-0.2,1.5-0.3,2.2c-0.1,0.7-0.3,1.4-0.6,2.1c-0.1,0.3-0.3,0.6-0.5,0.9
		c-0.2,0.3-0.5,0.5-0.7,0.7c-0.4,0.3-0.8,0.4-1.2,0.4c-0.4,0-0.8-0.1-1.1-0.3c-0.3-0.2-0.6-0.4-0.9-0.8c-0.2-0.3-0.4-0.7-0.5-1.1
		c0-0.1,0-0.2,0-0.3c0-0.1,0.1-0.2,0.2-0.2c0.1,0,0.2,0,0.2,0c0.1,0.1,0.1,0.1,0.2,0.2c0.1,0.2,0.3,0.4,0.4,0.5
		c0.1,0.2,0.3,0.3,0.5,0.5c0.2,0.1,0.3,0.2,0.5,0.3c0.2,0.1,0.4,0,0.7,0c0.3-0.1,0.6-0.3,0.8-0.5c0.2-0.2,0.4-0.5,0.5-0.8
		c0.2-0.4,0.3-0.8,0.4-1.2c0-0.4,0.1-0.9,0.1-1.3c0.1-0.7,0.2-1.4,0.2-2.1C124,19.4,124,18.7,124.1,18z M124.4,12.7
		c0-0.1,0-0.2,0-0.3c0-0.1,0-0.2,0-0.3c0-0.2-0.1-0.4-0.2-0.7c-0.1-0.2-0.2-0.5-0.4-0.6c-0.1-0.2-0.3-0.3-0.5-0.3
		c-0.2,0-0.4,0-0.7,0.3c-0.5,0.4-0.9,0.9-1.3,1.4c-0.4,0.5-0.7,1-1,1.6c-0.1,0.2-0.2,0.5-0.3,0.8c-0.1,0.3-0.2,0.7-0.2,1
		s0,0.6,0.1,0.9c0.1,0.3,0.3,0.5,0.7,0.6c0.3,0.1,0.5,0.1,0.8,0c0.3-0.1,0.5-0.2,0.8-0.4c0.2-0.2,0.5-0.4,0.7-0.6
		c0.2-0.2,0.4-0.4,0.5-0.6C124,14.6,124.3,13.7,124.4,12.7z"/>
	<path class="st2" d="M129.7,18.7c-0.5-0.1-1-0.2-1.5-0.5c-0.4-0.3-0.8-0.6-1-1.1c-0.1-0.3-0.2-0.5-0.2-0.8c0-0.3,0-0.5,0-0.8
		c0-0.3,0-0.5-0.1-0.6c-0.1-0.1-0.2-0.3-0.4-0.5c-0.2-0.1-0.2-0.3-0.2-0.5c0.1-0.2,0.2-0.4,0.4-0.4c0.2-0.1,0.4-0.1,0.6-0.2
		c0.2-0.1,0.3-0.2,0.5-0.4c0.2-0.2,0.3-0.5,0.4-0.7c0.1-0.3,0.2-0.5,0.4-0.7c0.1-0.2,0.3-0.4,0.5-0.7c0.2-0.3,0.5-0.5,0.7-0.7
		c0.3-0.2,0.5-0.4,0.8-0.4c0.3-0.1,0.6-0.1,0.8,0.1c0.2,0.1,0.3,0.2,0.3,0.3c0.1,0.1,0.1,0.3,0.1,0.4c0,0.2,0,0.5-0.1,0.8
		c-0.2,0.5-0.5,1-0.9,1.4c-0.4,0.4-0.9,0.7-1.4,1.1c-0.2,0.2-0.5,0.3-0.7,0.5c-0.2,0.2-0.4,0.4-0.6,0.6s-0.2,0.5-0.3,0.7
		c0,0.3,0,0.5,0.1,0.8c0.1,0.4,0.3,0.7,0.6,0.9c0.3,0.2,0.6,0.4,0.9,0.5c0.3,0.1,0.7,0.1,1.1,0.1c0.4-0.1,0.8-0.2,1.1-0.3
		c0.1-0.1,0.2-0.1,0.3-0.1c0.1,0,0.2-0.1,0.3-0.1c0.3,0,0.4,0.1,0.4,0.3c0,0.2,0,0.4-0.1,0.5c-0.1,0.1-0.3,0.3-0.6,0.4
		C131.3,18.7,130.5,18.8,129.7,18.7z M129,12.7L129,12.7c0.3,0,0.5-0.1,0.7-0.2c0.2-0.1,0.4-0.3,0.5-0.4c0.1-0.1,0.3-0.3,0.4-0.5
		c0.1-0.2,0.2-0.4,0.3-0.6c0-0.1,0-0.2-0.1-0.2c-0.1-0.1-0.2-0.1-0.4-0.1c-0.2,0.1-0.4,0.2-0.5,0.3c-0.1,0.1-0.3,0.3-0.4,0.4
		c0,0.1-0.1,0.1-0.2,0.3c-0.1,0.1-0.2,0.3-0.3,0.4c-0.1,0.1-0.1,0.3-0.2,0.4C128.9,12.6,128.9,12.7,129,12.7z"/>
	<path class="st2" d="M136.4,13.1c-0.2-0.1-0.4-0.1-0.6,0c-0.3,0-0.5,0-0.7,0.1c-0.2,0-0.5,0.1-0.7,0.1c-0.1,0-0.2,0-0.4,0
		c-0.1,0-0.2-0.1-0.2-0.2c0-0.2,0-0.3,0.1-0.5c0.1-0.1,0.1-0.1,0.2-0.1c0.1,0,0.2-0.1,0.2-0.1c0.3-0.1,0.7-0.1,1-0.2
		c0.3,0,0.6-0.1,1-0.1c0.3,0,0.5-0.1,0.6-0.3c0.1-0.2,0.2-0.4,0.3-0.7c0-0.3,0.1-0.5,0-0.8c0-0.3,0-0.5,0-0.7c0-0.4,0-0.7,0.1-1.1
		c0-0.3,0-0.7,0-1.1c0-0.3,0-0.6,0-1c0-0.4,0-0.7,0.2-0.9c0-0.1,0.1-0.2,0.2-0.3c0.1-0.1,0.2-0.1,0.3-0.2c0.1,0,0.2,0,0.3,0.1
		c0.1,0.1,0.2,0.2,0.2,0.3c0.1,0.2,0.1,0.5,0.1,0.7c0,0.2-0.1,0.5-0.1,0.7c0,0.3,0,0.5-0.1,0.8s0,0.6-0.1,0.8l-0.2,2.5
		c0,0.1-0.1,0.3-0.1,0.4c0,0.2,0,0.3,0.1,0.4c0.1,0.2,0.3,0.3,0.4,0.3c0.2,0,0.4,0,0.5,0c0.2,0,0.3-0.1,0.4-0.1
		c0.1,0,0.3-0.1,0.4-0.1c0.2,0,0.4,0,0.6,0.1c0.2,0.1,0.3,0.2,0.3,0.4c0,0.1,0,0.2,0,0.3c0,0.1-0.1,0.2-0.2,0.3
		c-0.2,0.1-0.4,0.2-0.7,0.2c-0.2,0-0.4,0-0.5-0.1c-0.2,0-0.4,0-0.6,0c-0.2,0-0.3,0.1-0.5,0.2s-0.2,0.3-0.3,0.5c0,0.1,0,0.3,0,0.4
		c0,0.1,0,0.2,0,0.4c0,0.4,0,0.8,0.1,1.2c0,0.4,0,0.8,0.1,1.2c0,0.3,0,0.7,0.1,1.1s0,0.8-0.1,1.1c0,0.1-0.1,0.2-0.3,0.3
		c-0.1,0.1-0.2,0.1-0.4,0.1c-0.1,0-0.2-0.1-0.3-0.1c-0.1-0.1-0.1-0.2-0.2-0.3c0-0.2-0.1-0.4,0-0.6c0-0.7,0-1.4,0-2c0-0.7,0-1.4,0-2
		c0-0.1,0-0.2,0-0.3c0-0.1,0-0.2-0.1-0.3c0-0.2-0.1-0.3-0.3-0.3C136.7,13.2,136.5,13.1,136.4,13.1z"/>
	<path class="st2" d="M147.7,13.4l-0.2,3.5c0,0.3,0,0.6,0,0.9c0,0.3,0,0.6,0,0.9c0,0.2,0,0.4,0,0.6c0,0.2-0.1,0.4-0.2,0.6
		c-0.1,0.1-0.3,0.1-0.4,0.1c-0.2,0-0.3-0.1-0.4-0.3c-0.1-0.2-0.2-0.4-0.1-0.6c0-0.2,0-0.4,0.1-0.6c0-1.1,0.1-2.2,0.1-3.3
		c0.1-1.1,0.1-2.2,0.1-3.3c0-0.2,0-0.3,0-0.5c0-0.2,0.1-0.3,0.2-0.4c0.1-0.2,0.3-0.3,0.4-0.2c0.2,0,0.3,0.2,0.4,0.3
		c0.1,0.2,0.2,0.4,0.2,0.6c0,0.2,0,0.4,0,0.6c0,0.2,0,0.3,0,0.5C147.7,13,147.7,13.2,147.7,13.4z M147.5,9.4c-0.2,0-0.3-0.1-0.4-0.2
		c-0.1-0.1-0.2-0.2-0.2-0.4c0-0.1,0-0.3,0.1-0.4c0.1-0.1,0.3-0.2,0.5-0.2c0.2,0,0.3,0,0.4,0.1c0.1,0.1,0.2,0.2,0.2,0.3
		c0,0.1,0,0.2,0,0.4c-0.1,0.1-0.2,0.2-0.3,0.3C147.7,9.4,147.6,9.4,147.5,9.4z"/>
	<path class="st2" d="M150.6,17.7c0,0.2,0,0.3,0,0.4c0,0.1,0,0.3,0,0.4c0,0.1,0,0.3-0.1,0.4s-0.1,0.3-0.1,0.5c0,0.2-0.1,0.3-0.2,0.4
		c-0.1,0.1-0.2,0.2-0.3,0.2c-0.2,0-0.3,0-0.3-0.1c-0.1-0.1-0.1-0.2-0.2-0.3c0-0.1-0.1-0.3-0.1-0.4c0-0.1,0-0.3,0-0.4
		c0-0.4,0.1-0.9,0.1-1.3c0.1-0.4,0.1-0.9,0.1-1.3c0-0.6,0-1.2-0.1-1.8s-0.2-1.2-0.3-1.8c0-0.2-0.1-0.4-0.1-0.6
		c0-0.2,0.1-0.3,0.2-0.4c0.2-0.1,0.4-0.2,0.6,0c0.1,0.1,0.2,0.2,0.3,0.4c0,0.2,0.1,0.3,0.1,0.5c0,0.2,0.1,0.3,0.1,0.5
		c0,0.2,0.1,0.3,0.1,0.5c0,0.1,0,0.1,0,0.2c0,0.1,0,0.2,0.1,0.2c0,0.1,0.1,0.1,0.1,0.1c0,0,0.1-0.1,0.2-0.2c0.3-0.5,0.7-1,1.1-1.5
		c0.4-0.5,0.9-0.8,1.6-1c0.2,0,0.4-0.1,0.7-0.1c0.2,0,0.5,0,0.7,0c0.2,0,0.5,0.1,0.7,0.2c0.2,0.1,0.4,0.2,0.5,0.4
		c0.2,0.3,0.3,0.7,0.4,1.1c0.1,0.4,0.1,0.8,0.2,1.2c0.1,0.9,0.1,1.8,0.2,2.7c0,0.9,0,1.8,0.1,2.7c0,0.1,0,0.2,0,0.4
		c0,0.1,0,0.2-0.1,0.4c0,0.1-0.1,0.2-0.2,0.3c-0.1,0.1-0.2,0.1-0.4,0.1c-0.3,0-0.5-0.2-0.6-0.4c-0.1-0.1-0.1-0.2-0.1-0.4
		c0-0.1,0-0.2,0-0.4c0-0.9,0.1-1.8,0.1-2.8c0-0.9,0-1.8-0.1-2.8c0-0.3-0.1-0.5-0.1-0.7c-0.1-0.2-0.2-0.5-0.4-0.6
		c-0.2-0.2-0.5-0.4-0.8-0.4c-0.3-0.1-0.6,0-0.9,0.1c-0.3,0.1-0.6,0.2-0.8,0.4c-0.2,0.2-0.4,0.4-0.6,0.7c-0.4,0.7-0.7,1.3-0.9,2.1
		C150.9,16.2,150.7,17,150.6,17.7z"/>
	<path class="st2" d="M165.4,15.1c-0.2-0.1-0.4-0.1-0.6,0c-0.3,0-0.5,0-0.7,0.1c-0.2,0-0.5,0.1-0.7,0.1c-0.1,0-0.2,0-0.4,0
		s-0.2-0.1-0.2-0.2c0-0.2,0-0.3,0.1-0.5c0.1-0.1,0.1-0.1,0.2-0.1c0.1,0,0.2-0.1,0.2-0.1c0.3-0.1,0.7-0.1,1-0.2c0.3,0,0.6-0.1,1-0.1
		c0.3,0,0.5-0.1,0.6-0.3c0.1-0.2,0.2-0.4,0.3-0.7c0-0.3,0.1-0.5,0-0.8c0-0.3,0-0.5,0-0.7c0-0.4,0-0.7,0.1-1.1c0-0.3,0-0.7,0-1.1
		c0-0.3,0-0.6,0-1c0-0.3,0-0.7,0.2-0.9c0-0.1,0.1-0.2,0.2-0.3c0.1-0.1,0.2-0.1,0.3-0.2c0.1,0,0.2,0,0.3,0.1c0.1,0.1,0.2,0.2,0.2,0.3
		c0.1,0.2,0.1,0.5,0.1,0.7c0,0.2-0.1,0.5-0.1,0.7c0,0.3,0,0.5-0.1,0.8c0,0.3,0,0.6-0.1,0.8l-0.2,2.5c0,0.1-0.1,0.3-0.1,0.4
		c0,0.2,0,0.3,0.1,0.4c0.1,0.2,0.3,0.2,0.4,0.3c0.2,0,0.4,0,0.5,0c0.2,0,0.3-0.1,0.4-0.1c0.1,0,0.3-0.1,0.4-0.1c0.2,0,0.4,0,0.6,0.1
		c0.2,0.1,0.3,0.2,0.3,0.4c0,0.1,0,0.2,0,0.3c0,0.1-0.1,0.2-0.2,0.3c-0.2,0.1-0.4,0.2-0.7,0.2c-0.2,0-0.4,0-0.5-0.1
		c-0.2,0-0.4,0-0.6,0c-0.2,0-0.3,0.1-0.5,0.2c-0.1,0.1-0.2,0.3-0.3,0.5c0,0.1,0,0.3,0,0.4c0,0.1,0,0.2,0,0.4c0,0.4,0,0.8,0.1,1.2
		c0,0.4,0,0.8,0.1,1.2c0,0.3,0,0.7,0.1,1.1c0,0.4,0,0.8-0.1,1.1c0,0.1-0.1,0.2-0.3,0.3c-0.1,0.1-0.2,0.1-0.4,0.1
		c-0.1,0-0.2-0.1-0.3-0.1c-0.1-0.1-0.1-0.2-0.2-0.3c0-0.2-0.1-0.4,0-0.6c0-0.7,0-1.4,0-2c0-0.7,0-1.4,0-2c0-0.1,0-0.2,0-0.3
		c0-0.1,0-0.2-0.1-0.3c0-0.2-0.1-0.3-0.3-0.3S165.6,15.1,165.4,15.1z"/>
	<path class="st2" d="M170.2,18.7c0-0.3,0.1-0.7,0.2-1.1c0.1-0.4,0.2-0.7,0.3-1.1s0.3-0.7,0.4-1c0.1-0.3,0.3-0.6,0.4-0.8
		c0.2-0.3,0.4-0.5,0.5-0.8c0.2-0.3,0.4-0.5,0.7-0.7c0.7-0.6,1.5-0.7,2.3-0.4c0.4,0.2,0.7,0.5,0.9,0.9c0.2,0.4,0.3,0.8,0.4,1.2
		c0.2,0.6,0.2,1.4,0.2,2.2c0,0.8-0.1,1.6-0.4,2.3c-0.3,0.7-0.7,1.3-1.3,1.8c-0.6,0.5-1.4,0.6-2.4,0.5c-0.5-0.1-0.8-0.2-1.2-0.4
		c-0.3-0.2-0.6-0.4-0.7-0.7c-0.2-0.3-0.3-0.6-0.4-0.9C170.2,19.4,170.2,19,170.2,18.7z M175.6,17.4c0-0.3,0.1-0.7,0.1-1
		c0-0.3,0-0.7-0.1-1c0-0.3-0.1-0.6-0.3-0.9c-0.1-0.4-0.4-0.6-0.7-0.6c-0.3,0-0.5,0-0.8,0.2c-0.4,0.2-0.8,0.6-1.1,1
		c-0.3,0.4-0.5,0.8-0.7,1.3c-0.1,0.3-0.3,0.6-0.4,1c-0.1,0.4-0.2,0.8-0.2,1.2c0,0.4,0,0.8,0.2,1.1c0.1,0.4,0.4,0.7,0.7,0.9
		c0.3,0.2,0.7,0.3,1.1,0.2s0.8-0.2,1.1-0.4c0.2-0.1,0.4-0.3,0.5-0.5c0.1-0.2,0.2-0.4,0.3-0.6c0.1-0.2,0.1-0.4,0.2-0.7
		c0-0.2,0.1-0.5,0.1-0.7c0-0.1,0-0.2,0-0.2C175.6,17.5,175.6,17.5,175.6,17.4z"/>
	<path class="st2" d="M182.4,18c0-0.1,0.1-0.2,0.1-0.4c0-0.1,0-0.2,0-0.4c0.1-0.6,0.1-1.2,0-1.8c0-0.3,0-0.6-0.1-0.9
		c0-0.3,0-0.6,0.1-0.8c0-0.1,0.1-0.2,0.2-0.2c0.1-0.1,0.2-0.1,0.3-0.1c0.2,0,0.3,0.1,0.4,0.3c0,0.2,0.1,0.4,0,0.6c0,0.7,0,1.4-0.1,2
		c0,0.7,0,1.4,0,2c0,0.3,0,0.6,0,0.9c0,0.3,0.1,0.6,0.1,0.9c0,0.2,0.1,0.3,0.1,0.4c0,0.1,0.1,0.3,0.2,0.4c0.1,0.1,0.1,0.3,0.2,0.3
		c0.1,0.1,0.2,0.2,0.3,0.3c0,0.1,0.1,0.2,0.1,0.2c0,0.1,0,0.2,0,0.2c0,0.1-0.1,0.2-0.2,0.3c-0.1,0.1-0.2,0.1-0.3,0.1
		c-0.3,0-0.5-0.1-0.6-0.3c-0.1-0.1-0.2-0.3-0.3-0.4c-0.1-0.2-0.2-0.3-0.2-0.5c0-0.1-0.1-0.3-0.2-0.5c-0.1-0.2-0.2-0.3-0.4-0.2
		c-0.1,0-0.1,0.1-0.2,0.1c-0.1,0.1-0.1,0.1-0.2,0.2c-0.2,0.2-0.4,0.4-0.7,0.6c-0.3,0.2-0.6,0.4-1,0.5c-0.3,0.1-0.7,0.1-1,0.1
		c-0.3,0-0.6-0.2-0.9-0.4c-0.1-0.1-0.3-0.3-0.3-0.5c-0.1-0.2-0.2-0.4-0.3-0.5c-0.2-0.6-0.3-1.1-0.4-1.7c-0.1-0.6-0.1-1.1-0.1-1.7
		c0-0.6,0-1.1,0-1.7c0-0.6,0-1.1,0.1-1.7c0-0.1,0-0.3,0.1-0.4c0.1-0.2,0.2-0.3,0.3-0.4c0.1-0.1,0.2-0.1,0.3-0.1
		c0.1,0,0.2,0.1,0.4,0.3c0.1,0.2,0.2,0.5,0.1,0.8c0,0.3-0.1,0.6-0.1,0.9c0,0.7,0,1.5,0,2.2c0,0.7,0.1,1.4,0.2,2.2
		c0,0.2,0.1,0.4,0.1,0.6c0,0.2,0.1,0.4,0.2,0.6c0.1,0.2,0.2,0.3,0.4,0.4c0.2,0.1,0.4,0.2,0.7,0.1c0.2,0,0.4-0.1,0.6-0.2
		c0.2-0.1,0.4-0.2,0.5-0.4c0.4-0.3,0.7-0.7,0.9-1.2C182.2,18.9,182.3,18.4,182.4,18z"/>
	<path class="st2" d="M186.2,19.4c0,0.4,0,0.8,0.1,1.2c0.1,0.2,0.2,0.4,0.3,0.6c0.1,0.2,0.3,0.3,0.5,0.4c0.3,0.2,0.7,0.2,1.2,0.2
		c0.4-0.1,0.9-0.2,1.3-0.3c0.4-0.2,0.8-0.4,1.1-0.6c0.1-0.1,0.2-0.1,0.3-0.2c0.1-0.1,0.2-0.2,0.3-0.3c0.1-0.1,0.2-0.1,0.3-0.1
		c0.1,0,0.2,0,0.3,0.2c0.1,0.2,0.2,0.4,0.1,0.6c-0.1,0.2-0.3,0.4-0.4,0.5c-0.1,0.1-0.2,0.1-0.3,0.2c-0.1,0-0.2,0.1-0.3,0.1
		c-0.4,0.2-0.8,0.4-1.2,0.6c-0.4,0.2-0.8,0.3-1.3,0.4c-0.3,0.1-0.7,0.1-1,0c-0.3,0-0.7-0.1-1-0.3c-0.5-0.2-0.8-0.6-1-1.1
		c-0.2-0.5-0.3-0.9-0.4-1.4c-0.1-0.6-0.1-1.2,0.1-1.8c0.1-0.6,0.3-1.2,0.5-1.7c0.1-0.2,0.3-0.5,0.4-0.9c0.2-0.3,0.4-0.7,0.6-1
		c0.2-0.3,0.5-0.5,0.8-0.7c0.3-0.2,0.6-0.2,1-0.2c0.2,0.1,0.4,0.2,0.6,0.4c0.1,0.2,0.2,0.5,0.2,0.7c0,0.2,0,0.3,0,0.4
		c0,0.1-0.1,0.3-0.2,0.3c-0.1,0.1-0.2,0.2-0.4,0.2c-0.2,0-0.3,0-0.4-0.1c-0.1-0.1-0.2-0.2-0.2-0.4c0-0.1-0.1-0.2-0.2-0.3
		c-0.2-0.1-0.3-0.1-0.5,0.1c-0.2,0.2-0.3,0.4-0.4,0.6c-0.1,0.2-0.2,0.5-0.3,0.7c-0.1,0.2-0.1,0.4-0.2,0.5c-0.1,0.4-0.2,0.8-0.4,1.2
		C186.2,18.5,186.2,18.9,186.2,19.4z"/>
	<path class="st2" d="M194.5,15.4c0,0.3,0,0.7,0,1c0,0.3,0,0.7-0.1,1c0,0.2,0,0.3,0.1,0.4c0.1,0.1,0.1,0.1,0.3,0
		c0.1,0,0.1-0.1,0.2-0.1c0.1-0.1,0.1-0.1,0.1-0.2c0.3-0.5,0.7-0.9,1.2-1.3c0.5-0.4,0.9-0.7,1.4-0.9c0.3-0.1,0.7-0.2,1-0.1
		c0.4,0,0.6,0.2,0.9,0.6c0.2,0.3,0.3,0.8,0.3,1.3c0,0.5-0.1,1-0.2,1.4c-0.1,0.6-0.2,1.2-0.3,1.9c-0.1,0.6-0.1,1.3-0.1,1.9
		c0,0.3,0.1,0.6,0.1,0.9c0.1,0.3,0.1,0.6,0.3,0.9c0.1,0.1,0.1,0.2,0.2,0.4c0.1,0.1,0.1,0.2,0.1,0.4c0,0.1,0,0.2,0,0.3
		s-0.1,0.2-0.3,0.3c-0.1,0.1-0.3,0.1-0.4,0.1c-0.2,0-0.3-0.1-0.4-0.2c-0.4-0.3-0.6-0.7-0.6-1.2c-0.1-0.8-0.1-1.6,0-2.3
		c0.1-0.8,0.2-1.6,0.3-2.4c0-0.2,0.1-0.5,0.2-0.8c0.1-0.4,0.1-0.7,0.1-1c0-0.3,0-0.6-0.1-0.9c-0.1-0.2-0.3-0.4-0.6-0.4
		c-0.1,0-0.2,0-0.3,0.1c-0.1,0-0.2,0.1-0.3,0.1c-0.5,0.2-1,0.6-1.4,1c-0.4,0.5-0.8,1-1.1,1.5c-0.3,0.6-0.6,1.2-0.7,1.9
		c-0.1,0.3-0.1,0.7-0.2,1c-0.1,0.3-0.2,0.6-0.4,0.9c-0.1,0.1-0.2,0.2-0.4,0.3c-0.1,0.1-0.3,0-0.4,0c-0.1-0.1-0.2-0.2-0.2-0.3
		c0-0.1-0.1-0.3-0.1-0.4c0-0.4,0.1-0.8,0.2-1.3c0.1-0.4,0.2-0.8,0.3-1.3c0.1-0.9,0.2-1.7,0.3-2.6c0.1-0.9,0.1-1.8,0.1-2.6
		c0-0.6,0-1.2,0-1.9s0-1.3,0-1.9c0-0.2,0-0.5,0-0.9c0-0.4,0-0.6,0.1-0.8C193.8,9,193.9,9,194,9c0.1,0,0.2,0.1,0.3,0.1
		c0.1,0.1,0.2,0.2,0.2,0.3c0.1,0.1,0.1,0.2,0.2,0.3c0,0.2,0.1,0.4,0.1,0.6c0,0.2,0,0.4,0,0.6c0,0.8-0.1,1.5-0.1,2.2
		S194.5,14.7,194.5,15.4z"/>
</g>
<g class="st1">
	<path class="st2" d="M79.1,33.1l-0.2,3.5c0,0.3,0,0.6,0,0.9c0,0.3,0,0.6,0,0.9c0,0.2,0,0.4,0,0.6c0,0.2-0.1,0.4-0.2,0.6
		c-0.1,0.1-0.3,0.1-0.4,0.1c-0.2,0-0.3-0.1-0.4-0.3c-0.1-0.2-0.2-0.4-0.1-0.6c0-0.2,0-0.4,0.1-0.6c0-1.1,0.1-2.2,0.1-3.3
		c0-1.1,0.1-2.2,0.1-3.3c0-0.2,0-0.3,0-0.5c0-0.2,0.1-0.3,0.2-0.4c0.1-0.2,0.3-0.3,0.4-0.2c0.2,0,0.3,0.2,0.4,0.3
		c0.1,0.2,0.2,0.4,0.2,0.6c0,0.2,0,0.4,0,0.6c0,0.2,0,0.3,0,0.5C79.1,32.8,79.1,33,79.1,33.1z M78.9,29.2c-0.2,0-0.3-0.1-0.4-0.2
		c-0.1-0.1-0.2-0.2-0.2-0.4c0-0.1,0-0.3,0.1-0.4c0.1-0.1,0.3-0.2,0.5-0.2c0.2,0,0.3,0,0.4,0.1c0.1,0.1,0.2,0.2,0.2,0.3
		c0,0.1,0,0.2,0,0.4c-0.1,0.1-0.2,0.2-0.3,0.3C79.1,29.1,79,29.2,78.9,29.2z"/>
	<path class="st2" d="M82,37.5c0,0.2,0,0.3,0,0.4c0,0.1,0,0.3,0,0.4c0,0.1,0,0.3-0.1,0.4c0,0.2-0.1,0.3-0.1,0.5
		c0,0.2-0.1,0.3-0.2,0.4c-0.1,0.1-0.2,0.2-0.3,0.2c-0.2,0-0.3,0-0.3-0.1c-0.1-0.1-0.1-0.2-0.2-0.3c0-0.1-0.1-0.3-0.1-0.4
		c0-0.1,0-0.3,0-0.4c0-0.4,0.1-0.9,0.1-1.3c0.1-0.4,0.1-0.9,0.1-1.3c0-0.6,0-1.2-0.1-1.8c-0.1-0.6-0.2-1.2-0.3-1.8
		c0-0.2-0.1-0.4-0.1-0.6c0-0.2,0.1-0.3,0.2-0.4c0.2-0.1,0.4-0.2,0.6,0c0.1,0.1,0.2,0.2,0.3,0.4c0,0.2,0.1,0.3,0.1,0.5
		c0,0.2,0.1,0.3,0.1,0.5c0,0.2,0.1,0.3,0.1,0.5c0,0.1,0,0.1,0,0.2c0,0.1,0,0.2,0.1,0.2c0,0.1,0.1,0.1,0.1,0.1c0,0,0.1-0.1,0.2-0.2
		c0.3-0.5,0.7-1,1.1-1.5c0.4-0.5,0.9-0.8,1.6-1c0.2,0,0.4-0.1,0.7-0.1c0.2,0,0.5,0,0.7,0c0.2,0,0.5,0.1,0.7,0.2
		c0.2,0.1,0.4,0.2,0.5,0.4c0.2,0.3,0.3,0.7,0.4,1.1c0.1,0.4,0.1,0.8,0.2,1.2c0.1,0.9,0.1,1.8,0.2,2.7c0,0.9,0,1.8,0.1,2.7
		c0,0.1,0,0.2,0,0.4c0,0.1,0,0.2-0.1,0.4c0,0.1-0.1,0.2-0.2,0.3c-0.1,0.1-0.2,0.1-0.4,0.1c-0.3,0-0.5-0.2-0.6-0.4
		c0-0.1-0.1-0.2-0.1-0.4c0-0.1,0-0.2,0-0.4c0-0.9,0.1-1.8,0.1-2.8c0-0.9,0-1.8-0.1-2.8c0-0.3-0.1-0.5-0.1-0.8
		c-0.1-0.2-0.2-0.5-0.4-0.6c-0.2-0.2-0.5-0.4-0.8-0.4c-0.3-0.1-0.6,0-0.9,0.1c-0.3,0.1-0.6,0.2-0.8,0.4c-0.2,0.2-0.4,0.4-0.6,0.7
		c-0.4,0.6-0.7,1.3-0.9,2.1C82.3,36,82.1,36.7,82,37.5z"/>
	<path class="st2" d="M95.4,40.1c-0.1,0.3-0.1,0.5-0.3,0.6c-0.1,0.1-0.3,0.1-0.5,0c-0.1-0.1-0.2-0.2-0.2-0.3c0-0.1-0.1-0.2-0.1-0.4
		c0-0.1,0-0.3,0-0.4c0-0.1,0-0.3,0-0.3c0.1-0.8,0.1-1.6,0.1-2.4c0-0.8,0-1.6,0-2.4c0-0.8,0-1.6,0-2.4c0-0.8,0-1.6,0-2.4
		c0-0.3,0-0.7,0-1c0-0.3,0-0.7,0-1c0-0.2,0-0.4,0.1-0.7c0-0.2,0.1-0.4,0.4-0.5c0.2-0.1,0.3-0.1,0.5,0c0.2,0.1,0.2,0.2,0.3,0.4
		c0,0.2,0,0.4,0,0.7c0,0.2,0,0.5,0,0.7c0,0.6-0.1,1.3-0.1,1.9c0,0.6,0,1.3,0,1.9c0,0.8,0,1.5,0,2.3c0,0.8,0,1.5,0,2.3
		c0,0.1,0,0.2,0,0.5c0,0.3,0,0.6,0,0.9c0,0.3,0,0.7,0,1C95.5,39.6,95.5,39.9,95.4,40.1z"/>
	<path class="st2" d="M99.9,41.2c-0.5-0.1-1-0.2-1.5-0.5c-0.4-0.3-0.8-0.6-1-1.1c-0.1-0.3-0.2-0.5-0.2-0.8c0-0.3,0-0.5,0-0.8
		c0-0.3,0-0.5-0.1-0.6c-0.1-0.1-0.2-0.3-0.4-0.5c-0.2-0.1-0.2-0.3-0.2-0.5c0.1-0.2,0.2-0.4,0.4-0.4c0.2-0.1,0.4-0.2,0.6-0.2
		c0.2-0.1,0.3-0.2,0.5-0.4c0.2-0.2,0.3-0.5,0.4-0.7c0.1-0.3,0.2-0.5,0.4-0.7c0.1-0.2,0.3-0.4,0.5-0.7c0.2-0.3,0.5-0.5,0.7-0.7
		c0.3-0.2,0.5-0.4,0.8-0.4c0.3-0.1,0.6-0.1,0.8,0.1c0.2,0.1,0.3,0.2,0.3,0.3c0.1,0.1,0.1,0.3,0.1,0.4c0,0.2,0,0.5-0.1,0.8
		c-0.2,0.5-0.5,1-0.9,1.4c-0.4,0.4-0.9,0.7-1.4,1.1c-0.2,0.2-0.5,0.3-0.7,0.5c-0.2,0.2-0.4,0.4-0.6,0.6c-0.1,0.2-0.2,0.5-0.3,0.7
		c0,0.3,0,0.5,0.1,0.8c0.1,0.4,0.3,0.7,0.6,0.9c0.3,0.2,0.6,0.4,0.9,0.5c0.3,0.1,0.7,0.1,1.1,0.1c0.4-0.1,0.8-0.2,1.1-0.3
		c0.1-0.1,0.2-0.1,0.3-0.1c0.1,0,0.2-0.1,0.3-0.1c0.3,0,0.4,0.1,0.4,0.3c0,0.2,0,0.4-0.1,0.5c-0.1,0.1-0.3,0.3-0.6,0.4
		C101.5,41.2,100.7,41.3,99.9,41.2z M99.2,35.2L99.2,35.2c0.3,0,0.5-0.1,0.7-0.2c0.2-0.1,0.3-0.3,0.5-0.4c0.1-0.1,0.3-0.3,0.4-0.5
		c0.1-0.2,0.2-0.4,0.3-0.6c0-0.1,0-0.2-0.1-0.2c-0.1-0.1-0.2-0.1-0.4-0.1c-0.2,0.1-0.4,0.2-0.5,0.3c-0.1,0.1-0.3,0.3-0.4,0.4
		c0,0.1-0.1,0.1-0.2,0.3c-0.1,0.1-0.2,0.3-0.3,0.4c-0.1,0.1-0.1,0.3-0.2,0.4C99.1,35.1,99.1,35.2,99.2,35.2z"/>
	<path class="st2" d="M107.5,32.8c0.2,0.1,0.4,0.2,0.6,0.4c0.3,0.2,0.5,0.4,0.7,0.6c0.2,0.2,0.4,0.4,0.4,0.7c0.1,0.2,0,0.5-0.2,0.7
		c-0.1,0.1-0.2,0.2-0.4,0.2c-0.1,0-0.2-0.1-0.3-0.1c-0.1-0.1-0.2-0.2-0.3-0.3c-0.1-0.1-0.2-0.2-0.2-0.3c-0.2-0.2-0.4-0.4-0.7-0.5
		c-0.3-0.1-0.6-0.2-0.9-0.2c-0.3,0-0.6,0.1-0.8,0.2c-0.2,0.2-0.3,0.4-0.3,0.8c0,0.2,0.1,0.4,0.2,0.6s0.3,0.4,0.5,0.5
		c0.4,0.4,0.9,0.7,1.4,0.9c0.5,0.2,1,0.4,1.5,0.7c0.4,0.3,0.7,0.6,0.9,1c0.1,0.3,0.1,0.5,0,0.8c-0.1,0.3-0.2,0.5-0.4,0.7
		c-0.3,0.5-0.8,0.8-1.3,1.1c-0.5,0.3-1,0.4-1.6,0.4c-0.4,0-0.7-0.1-1.1-0.2c-0.4-0.1-0.7-0.3-1-0.5c-0.1-0.1-0.2-0.2-0.4-0.4
		c-0.1-0.2-0.2-0.4-0.3-0.6c-0.1-0.2,0-0.4,0-0.6c0.1-0.2,0.3-0.2,0.6-0.2c0.2,0,0.3,0.1,0.4,0.1c0.1,0.1,0.2,0.2,0.3,0.3
		c0.1,0.1,0.2,0.2,0.2,0.4c0.1,0.1,0.2,0.2,0.3,0.3c0.2,0.1,0.4,0.2,0.7,0.3c0.3,0.1,0.6,0.1,0.8,0c0.3,0,0.5-0.1,0.8-0.3
		c0.2-0.1,0.4-0.3,0.5-0.5c0.2-0.4,0.2-0.6,0-0.9c-0.2-0.2-0.4-0.4-0.7-0.6c-0.3-0.2-0.7-0.4-1.1-0.6c-0.4-0.2-0.9-0.5-1.3-0.7
		c-0.4-0.3-0.7-0.6-1-1c-0.2-0.4-0.3-0.8-0.3-1.3c0-0.4,0.2-0.7,0.4-0.9c0.2-0.3,0.5-0.5,0.8-0.7c0.3-0.2,0.6-0.3,1-0.4
		c0.4-0.1,0.7-0.1,1-0.1c0.1,0,0.2,0,0.3,0.1C107.3,32.7,107.4,32.7,107.5,32.8z"/>
	<path class="st2" d="M114,33.2c0.2,0.1,0.4,0.2,0.6,0.4c0.3,0.2,0.5,0.4,0.7,0.6c0.2,0.2,0.4,0.4,0.4,0.7c0.1,0.2,0,0.5-0.2,0.7
		c-0.1,0.1-0.2,0.2-0.4,0.2c-0.1,0-0.2-0.1-0.3-0.1c-0.1-0.1-0.2-0.2-0.3-0.3c-0.1-0.1-0.2-0.2-0.2-0.3c-0.2-0.2-0.4-0.4-0.7-0.5
		c-0.3-0.1-0.6-0.2-0.9-0.2c-0.3,0-0.6,0.1-0.8,0.2c-0.2,0.2-0.3,0.4-0.3,0.8c0,0.2,0.1,0.4,0.2,0.6c0.1,0.2,0.3,0.4,0.5,0.5
		c0.4,0.4,0.9,0.7,1.4,0.9c0.5,0.2,1,0.4,1.5,0.7c0.4,0.3,0.7,0.6,0.9,1c0.1,0.3,0.1,0.5,0,0.8c-0.1,0.3-0.2,0.5-0.4,0.7
		c-0.3,0.5-0.8,0.8-1.3,1.1c-0.5,0.3-1,0.4-1.6,0.4c-0.4,0-0.7-0.1-1.1-0.2c-0.4-0.1-0.7-0.3-1-0.5c-0.1-0.1-0.2-0.2-0.4-0.4
		c-0.1-0.2-0.2-0.4-0.3-0.6c-0.1-0.2,0-0.4,0-0.6c0.1-0.2,0.3-0.2,0.6-0.2c0.2,0,0.3,0.1,0.4,0.1c0.1,0.1,0.2,0.2,0.3,0.3
		s0.2,0.2,0.2,0.4c0.1,0.1,0.2,0.2,0.3,0.3c0.2,0.1,0.4,0.2,0.7,0.3c0.3,0.1,0.6,0.1,0.8,0c0.3,0,0.5-0.1,0.8-0.2
		c0.2-0.1,0.4-0.3,0.5-0.5c0.2-0.4,0.2-0.6,0-0.9c-0.2-0.2-0.4-0.4-0.7-0.6c-0.3-0.2-0.7-0.4-1.1-0.6c-0.4-0.2-0.9-0.5-1.3-0.7
		c-0.4-0.3-0.7-0.6-1-1c-0.2-0.4-0.3-0.8-0.3-1.3c0-0.4,0.2-0.7,0.4-0.9c0.2-0.3,0.5-0.5,0.8-0.7c0.3-0.2,0.6-0.3,1-0.4
		c0.4-0.1,0.7-0.1,1-0.1c0.1,0,0.2,0,0.3,0.1C113.8,33.2,113.9,33.2,114,33.2z"/>
	<path class="st2" d="M124.4,36.8c-0.2-0.1-0.4-0.1-0.6,0c-0.3,0-0.5,0-0.7,0.1c-0.2,0-0.5,0.1-0.7,0.1c-0.1,0-0.2,0-0.4,0
		c-0.1,0-0.2-0.1-0.2-0.2c0-0.2,0-0.3,0.1-0.5c0.1-0.1,0.1-0.1,0.2-0.1c0.1,0,0.2-0.1,0.2-0.1c0.3-0.1,0.7-0.1,1-0.2
		c0.3,0,0.6-0.1,1-0.1c0.3,0,0.5-0.1,0.6-0.3c0.1-0.2,0.2-0.4,0.3-0.7c0-0.3,0.1-0.5,0-0.8c0-0.3,0-0.5,0-0.7c0-0.4,0-0.7,0.1-1.1
		c0-0.3,0-0.7,0-1.1c0-0.3,0-0.6,0-1c0-0.4,0-0.7,0.2-0.9c0-0.1,0.1-0.2,0.2-0.3c0.1-0.1,0.2-0.1,0.3-0.2c0.1,0,0.2,0,0.3,0.1
		c0.1,0.1,0.2,0.2,0.2,0.3c0.1,0.2,0.1,0.5,0.1,0.7c0,0.3-0.1,0.5-0.1,0.7c0,0.3,0,0.5-0.1,0.8c0,0.3,0,0.6-0.1,0.8l-0.2,2.5
		c0,0.1-0.1,0.3-0.1,0.4c0,0.2,0,0.3,0.1,0.4c0.1,0.2,0.3,0.2,0.4,0.3c0.2,0,0.4,0,0.5,0c0.2,0,0.3-0.1,0.4-0.1
		c0.1,0,0.3-0.1,0.4-0.1c0.2,0,0.4,0,0.6,0.1c0.2,0.1,0.3,0.2,0.3,0.4c0,0.1,0,0.2,0,0.3s-0.1,0.2-0.2,0.3c-0.2,0.1-0.4,0.2-0.7,0.2
		c-0.2,0-0.4,0-0.5-0.1c-0.2,0-0.4,0-0.6,0c-0.2,0-0.3,0.1-0.5,0.2c-0.1,0.1-0.2,0.3-0.3,0.5c0,0.1,0,0.3,0,0.4c0,0.1,0,0.2,0,0.4
		c0,0.4,0,0.8,0.1,1.2c0,0.4,0,0.8,0.1,1.2c0,0.3,0,0.7,0.1,1.1c0,0.4,0,0.8-0.1,1.1c0,0.1-0.1,0.2-0.3,0.3
		c-0.1,0.1-0.2,0.1-0.4,0.1c-0.1,0-0.2-0.1-0.3-0.1c-0.1-0.1-0.1-0.2-0.2-0.3c0-0.2-0.1-0.4,0-0.6c0-0.7,0-1.4,0-2c0-0.7,0-1.4,0-2
		c0-0.1,0-0.2,0-0.3c0-0.1,0-0.2-0.1-0.3c0-0.2-0.1-0.3-0.3-0.3C124.7,36.9,124.5,36.9,124.4,36.8z"/>
	<path class="st2" d="M131.1,35.6c0,0.3,0,0.7,0,1c0,0.3,0,0.7-0.1,1c0,0.2,0,0.3,0.1,0.4c0.1,0.1,0.1,0.1,0.3,0
		c0.1,0,0.1-0.1,0.2-0.1c0.1-0.1,0.1-0.1,0.1-0.2c0.3-0.5,0.7-0.9,1.2-1.3c0.5-0.4,0.9-0.7,1.4-0.9c0.3-0.1,0.7-0.2,1-0.1
		c0.4,0,0.6,0.2,0.9,0.6c0.2,0.3,0.3,0.8,0.3,1.3c0,0.5-0.1,1-0.2,1.4c-0.1,0.6-0.2,1.2-0.3,1.9c-0.1,0.6-0.1,1.3-0.1,1.9
		c0,0.3,0.1,0.6,0.1,0.9c0.1,0.3,0.1,0.6,0.3,0.9c0.1,0.1,0.1,0.2,0.2,0.4c0.1,0.1,0.1,0.2,0.1,0.4c0,0.1,0,0.2,0,0.3
		c0,0.1-0.1,0.2-0.3,0.3c-0.1,0.1-0.3,0.1-0.4,0.1c-0.2,0-0.3-0.1-0.4-0.2c-0.4-0.3-0.6-0.7-0.6-1.2c-0.1-0.8-0.1-1.6,0-2.3
		c0.1-0.8,0.2-1.6,0.3-2.3c0-0.2,0.1-0.5,0.2-0.8c0.1-0.4,0.1-0.7,0.1-1c0-0.3,0-0.6-0.1-0.9c-0.1-0.2-0.3-0.4-0.6-0.4
		c-0.1,0-0.2,0-0.3,0.1c-0.1,0-0.2,0.1-0.3,0.1c-0.5,0.2-1,0.6-1.4,1c-0.4,0.5-0.8,1-1.1,1.5c-0.3,0.6-0.6,1.2-0.7,1.9
		c-0.1,0.3-0.1,0.7-0.2,1c-0.1,0.3-0.2,0.6-0.4,0.9c-0.1,0.1-0.2,0.2-0.4,0.3c-0.1,0.1-0.3,0-0.4,0c-0.1-0.1-0.2-0.2-0.2-0.3
		c0-0.1-0.1-0.3-0.1-0.4c0-0.4,0.1-0.8,0.2-1.3c0.1-0.4,0.2-0.8,0.3-1.3c0.1-0.9,0.2-1.7,0.3-2.6c0.1-0.9,0.1-1.7,0.1-2.6
		c0-0.6,0-1.2,0-1.9c0-0.6,0-1.3,0-1.9c0-0.2,0-0.5,0-0.9c0-0.4,0-0.6,0.1-0.8c0.1-0.1,0.2-0.2,0.3-0.2c0.1,0,0.2,0.1,0.3,0.2
		c0.1,0.1,0.2,0.2,0.2,0.3c0.1,0.1,0.1,0.2,0.1,0.3c0,0.2,0.1,0.4,0.1,0.6c0,0.2,0,0.4,0,0.6c0,0.8-0.1,1.5-0.1,2.2
		C131.2,34.1,131.1,34.9,131.1,35.6z"/>
	<path class="st2" d="M141.9,39c-0.1,0.7-0.1,1.5-0.2,2.3c0,0.1,0,0.3,0,0.5c0,0.2,0,0.4,0,0.6c0,0.2,0,0.4,0,0.5
		c0,0.2,0.1,0.3,0.2,0.4c0.1,0.1,0.1,0.2,0.2,0.3c0.1,0.1,0.1,0.2,0.2,0.3c0.1,0.1,0.1,0.2,0.1,0.3c0,0.1,0,0.2,0,0.3
		c-0.1,0.2-0.3,0.3-0.5,0.3c-0.3,0-0.5-0.1-0.7-0.3c-0.1-0.2-0.3-0.5-0.3-0.7c0-0.2-0.1-0.4-0.1-0.6c0-0.2,0-0.4-0.1-0.6
		c0-0.1,0-0.2,0-0.2c0,0,0-0.1-0.1-0.1c-0.2,0-0.3,0.1-0.5,0.3c-0.2,0.2-0.3,0.3-0.4,0.4c-0.2,0.2-0.4,0.4-0.6,0.6
		c-0.3,0.2-0.5,0.3-0.8,0.2c-0.3-0.1-0.6-0.2-0.6-0.6c-0.1-0.3-0.1-0.6-0.1-0.9c0-1,0.2-2,0.4-3c0.2-1,0.6-1.9,1.1-2.8
		c0.1-0.2,0.2-0.4,0.4-0.6c0.1-0.2,0.3-0.4,0.5-0.5c0.1-0.1,0.3-0.2,0.5-0.3c0.2-0.1,0.4-0.1,0.7-0.2c0.2,0,0.4,0,0.6,0.1
		c0.2,0.1,0.3,0.2,0.4,0.4c0.1,0.2,0.2,0.4,0.2,0.7c0,0.2,0,0.4,0,0.7l-0.1,1.8L141.9,39z M140.9,37.7c0-0.2,0-0.4,0-0.7
		c0-0.3,0-0.5,0-0.7c0-0.2-0.1-0.4-0.2-0.5c-0.1-0.1-0.2-0.1-0.4,0c-0.3,0.2-0.5,0.5-0.7,0.8c-0.2,0.3-0.3,0.6-0.5,0.9
		c-0.3,0.7-0.5,1.5-0.7,2.2c-0.1,0.8-0.2,1.5-0.2,2.3c0,0.1,0,0.2,0,0.4c0,0.1,0.1,0.2,0.2,0.2c0.2,0.1,0.4,0,0.5-0.1
		c0.1-0.1,0.3-0.2,0.4-0.4c0.5-0.6,0.8-1.3,1-2c0.2-0.7,0.4-1.5,0.5-2.2L140.9,37.7z"/>
	<path class="st2" d="M145.2,41.9c0,0.2,0,0.3,0,0.4c0,0.1,0,0.3,0,0.4c0,0.1,0,0.3-0.1,0.4c0,0.2-0.1,0.3-0.1,0.5
		c0,0.2-0.1,0.3-0.2,0.4c-0.1,0.1-0.2,0.2-0.3,0.2c-0.2,0-0.3,0-0.3-0.1c-0.1-0.1-0.1-0.2-0.2-0.3s-0.1-0.3-0.1-0.4
		c0-0.1,0-0.3,0-0.4c0-0.4,0.1-0.9,0.1-1.3c0.1-0.4,0.1-0.9,0.1-1.3c0-0.6,0-1.2-0.1-1.8c-0.1-0.6-0.2-1.2-0.3-1.8
		c0-0.2-0.1-0.4-0.1-0.6c0-0.2,0.1-0.3,0.2-0.4c0.2-0.1,0.4-0.2,0.6,0c0.1,0.1,0.2,0.2,0.3,0.4c0,0.2,0.1,0.3,0.1,0.5
		c0,0.2,0.1,0.3,0.1,0.5c0,0.2,0.1,0.3,0.1,0.5c0,0.1,0,0.1,0,0.2c0,0.1,0,0.2,0.1,0.2c0,0.1,0.1,0.1,0.1,0.1c0,0,0.1-0.1,0.2-0.2
		c0.3-0.5,0.7-1,1.1-1.5c0.4-0.5,0.9-0.8,1.6-1c0.2,0,0.4-0.1,0.7-0.1c0.2,0,0.5,0,0.7,0c0.2,0,0.5,0.1,0.7,0.2
		c0.2,0.1,0.4,0.2,0.5,0.4c0.2,0.3,0.3,0.7,0.4,1.1c0.1,0.4,0.1,0.8,0.2,1.2c0.1,0.9,0.1,1.8,0.2,2.7c0,0.9,0,1.8,0.1,2.7
		c0,0.1,0,0.2,0,0.4c0,0.1,0,0.2-0.1,0.4c0,0.1-0.1,0.2-0.2,0.3c-0.1,0.1-0.2,0.1-0.4,0.1c-0.3,0-0.5-0.2-0.6-0.4
		c-0.1-0.1-0.1-0.2-0.1-0.4c0-0.1,0-0.2,0-0.4c0-0.9,0.1-1.9,0.1-2.8c0-0.9,0-1.8-0.1-2.8c0-0.3-0.1-0.5-0.1-0.7
		c-0.1-0.2-0.2-0.5-0.4-0.6c-0.2-0.2-0.5-0.4-0.8-0.4c-0.3-0.1-0.6,0-0.9,0.1c-0.3,0.1-0.6,0.2-0.8,0.4c-0.2,0.2-0.4,0.4-0.6,0.7
		c-0.4,0.6-0.7,1.3-0.9,2.1C145.4,40.4,145.3,41.2,145.2,41.9z"/>
	<path class="st2" d="M164.3,44.7c0.4,0,0.8,0.1,1.2,0.1c0.4,0,0.8,0.1,1.2,0.3c0.2,0.1,0.4,0.2,0.4,0.4c0,0.2,0,0.3-0.1,0.4
		c-0.1,0.1-0.2,0.1-0.3,0.2c-0.1,0-0.2,0-0.4,0c-0.1,0-0.3,0-0.4,0c-1.2-0.1-2.3-0.1-3.4-0.2c-1.1-0.1-2.3-0.2-3.4-0.4
		c-0.2,0-0.3-0.1-0.5-0.1c-0.2,0-0.3-0.1-0.5-0.2c-0.3-0.2-0.5-0.5-0.5-0.8s0.1-0.6,0.3-0.9c0.3-0.4,0.6-0.7,1-1
		c0.4-0.3,0.7-0.6,1.1-0.9c0.5-0.6,1-1.2,1.5-1.8c0.5-0.6,0.9-1.3,1.2-2c0.2-0.3,0.4-0.7,0.6-1.3c0.3-0.5,0.4-1.1,0.6-1.6
		c0.1-0.5,0.2-1,0.1-1.5c-0.1-0.5-0.4-0.8-1-0.9c-0.3-0.1-0.7-0.1-1.1-0.1c-0.4,0-0.8,0.1-1.1,0.3c-0.4,0.1-0.7,0.3-1.1,0.5
		c-0.4,0.2-0.7,0.4-0.9,0.6c-0.2,0.1-0.3,0.2-0.5,0.3c-0.2,0.1-0.4,0.1-0.6,0c-0.1-0.1-0.2-0.2-0.2-0.4c0-0.2,0-0.3,0.1-0.4
		c0.1-0.1,0.2-0.2,0.3-0.3c0.1-0.1,0.3-0.1,0.4-0.2c0.6-0.3,1.1-0.5,1.7-0.8c0.6-0.2,1.2-0.4,1.8-0.4c0.6,0,1.2,0.1,1.8,0.4
		c0.6,0.3,1,0.7,1.3,1.3c0.1,0.3,0.2,0.6,0.2,1c0,0.3,0,0.7-0.1,1c-0.1,0.4-0.2,0.7-0.4,1.1c-0.2,0.3-0.3,0.7-0.5,1
		c-0.2,0.4-0.3,0.7-0.5,1.1c-0.2,0.3-0.4,0.7-0.6,1c-0.8,1.4-1.7,2.6-2.8,3.8c-0.1,0.1-0.1,0.2-0.3,0.3c-0.1,0.1-0.2,0.2-0.3,0.3
		c-0.1,0.1-0.2,0.2-0.2,0.3c-0.1,0.1-0.1,0.2,0,0.3c0.1,0.1,0.2,0.3,0.5,0.4c0.4,0.1,0.7,0.2,1.1,0.2c0.4,0,0.7,0,1.1,0
		c0.3,0,0.7,0,1,0C163.7,44.7,164,44.7,164.3,44.7z"/>
	<path class="st2" d="M168.5,34.9c0-0.1,0-0.3,0-0.4c0-0.1,0-0.3,0.1-0.4c0-0.1,0-0.3,0.1-0.5c0-0.2,0.1-0.4,0.1-0.6
		c0-0.2,0.1-0.4,0.2-0.6c0.1-0.2,0.2-0.3,0.3-0.4c0.2-0.2,0.4-0.3,0.6-0.2c0.1,0.1,0.2,0.2,0.2,0.4c0,0.2,0,0.4,0,0.7s0,0.4-0.1,0.5
		c-0.1,0.6-0.3,1.1-0.4,1.7c-0.1,0.6-0.1,1.1,0.1,1.7c0.2,0.6,0.4,1,0.7,1.3c0.3,0.3,0.7,0.6,1.1,0.7c0.4,0.2,0.9,0.3,1.3,0.3
		c0.5,0,1,0.1,1.5,0c0.2,0,0.4,0,0.6,0c0.2,0,0.4-0.1,0.5-0.2c0.4-0.2,0.6-0.4,0.6-0.8c0-0.3,0-0.7,0-1.1c-0.1-0.5-0.2-1-0.3-1.5
		c-0.1-0.5-0.2-1-0.2-1.5c0-0.1,0-0.2,0.1-0.4c0-0.1,0.1-0.3,0.2-0.4c0.1-0.1,0.2-0.2,0.3-0.2c0.1,0,0.2,0,0.3,0.1
		c0.2,0.1,0.3,0.4,0.4,0.7c0.1,0.3,0.1,0.5,0.1,0.8c0.1,1,0.2,2,0.3,3c0.1,1,0.1,2,0.1,3c0,0.5,0,1,0,1.5c0,0.5,0,1,0,1.5
		c0,0.2,0,0.4,0.1,0.6c0,0.2,0.1,0.5,0.1,0.8c0,0.3,0,0.5,0,0.7c0,0.2-0.1,0.4-0.2,0.5c-0.1,0.1-0.2,0.1-0.4,0.1
		c-0.2,0-0.3,0-0.4-0.1c-0.1-0.1-0.2-0.3-0.3-0.5c0-0.2-0.1-0.5-0.1-0.7c0-0.3,0-0.5,0-0.7c0-0.2,0-0.4,0-0.6c0-0.3,0-0.7,0.1-1.2
		c0-0.4,0.1-0.9,0-1.3c0-0.4-0.2-0.8-0.4-1.1c-0.2-0.3-0.6-0.5-1.1-0.5c-0.5,0-1,0-1.4,0.1c-0.5,0.1-0.9,0.1-1.4,0
		c-0.5-0.1-1-0.2-1.4-0.5c-0.5-0.2-0.9-0.6-1.2-1c-0.2-0.3-0.4-0.7-0.5-1.1c-0.1-0.4-0.2-0.8-0.3-1.2
		C168.6,36,168.5,35.5,168.5,34.9z"/>
	<path class="st2" d="M180.3,39c0,0.3,0,0.7,0,1c0,0.3,0,0.7-0.1,1c0,0.2,0,0.3,0.1,0.4c0.1,0.1,0.1,0.1,0.3,0
		c0.1,0,0.1-0.1,0.2-0.1c0.1-0.1,0.1-0.1,0.1-0.2c0.3-0.5,0.7-0.9,1.2-1.3c0.5-0.4,0.9-0.7,1.4-0.9c0.3-0.1,0.7-0.2,1-0.1
		s0.6,0.2,0.9,0.6c0.2,0.3,0.3,0.8,0.3,1.3c0,0.5-0.1,1-0.2,1.4c-0.1,0.6-0.2,1.2-0.3,1.9c-0.1,0.6-0.1,1.3-0.1,1.9
		c0,0.3,0.1,0.6,0.1,0.9c0.1,0.3,0.1,0.6,0.3,0.9c0.1,0.1,0.1,0.2,0.2,0.4c0.1,0.1,0.1,0.2,0.1,0.4c0,0.1,0,0.2,0,0.3
		c0,0.1-0.1,0.2-0.3,0.3c-0.1,0.1-0.3,0.1-0.4,0.1c-0.2,0-0.3-0.1-0.4-0.2c-0.4-0.3-0.6-0.7-0.6-1.2c-0.1-0.8-0.1-1.6,0-2.3
		c0.1-0.8,0.2-1.6,0.3-2.4c0-0.2,0.1-0.5,0.2-0.8c0.1-0.4,0.1-0.7,0.1-1c0-0.3,0-0.6-0.1-0.9c-0.1-0.2-0.3-0.4-0.6-0.4
		c-0.1,0-0.2,0-0.3,0.1c-0.1,0-0.2,0.1-0.3,0.1c-0.5,0.2-1,0.6-1.4,1c-0.4,0.5-0.8,1-1.1,1.5c-0.3,0.6-0.6,1.2-0.7,1.9
		c-0.1,0.3-0.1,0.7-0.2,1c-0.1,0.3-0.2,0.6-0.4,0.9c-0.1,0.1-0.2,0.2-0.4,0.3c-0.1,0.1-0.3,0-0.4,0c-0.1-0.1-0.2-0.2-0.2-0.3
		c0-0.1-0.1-0.3-0.1-0.4c0-0.4,0.1-0.8,0.2-1.3c0.1-0.4,0.2-0.8,0.3-1.3c0.1-0.9,0.2-1.7,0.3-2.6c0.1-0.9,0.1-1.8,0.1-2.6
		c0-0.6,0-1.2,0-1.9c0-0.6,0-1.3,0-1.9c0-0.2,0-0.5,0-0.9c0-0.4,0-0.6,0.1-0.8c0.1-0.1,0.2-0.2,0.3-0.2c0.1,0,0.2,0.1,0.3,0.2
		c0.1,0.1,0.2,0.2,0.2,0.3c0.1,0.1,0.1,0.2,0.2,0.3c0,0.2,0.1,0.4,0.1,0.6c0,0.2,0,0.4,0,0.6c0,0.8-0.1,1.5-0.1,2.2
		C180.4,37.6,180.4,38.3,180.3,39z"/>
</g>
</svg>
