<?xml version="1.0" encoding="utf-8"?>
<!-- Generator: Adobe Illustrator 23.0.4, SVG Export Plug-In . SVG Version: 6.00 Build 0)  -->
<svg version="1.1" id="signup" xmlns="http://www.w3.org/2000/svg" xmlns:xlink="http://www.w3.org/1999/xlink" x="0px" y="0px"
	 viewBox="0 0 166 149" style="enable-background:new 0 0 166 149;" xml:space="preserve">
<style type="text/css">
	.st0{fill:#FFFFFF;}
	.st1{opacity:0.2168;}
</style>
<path id="plane2" class="st0" d="M165.7,1.9c-0.7-1.5-1.1-2.3-3.3-1.8c-0.7,0-1.4,0.1-2,0.5c0.1,0,0.1-0.1,0.2-0.1
	c-0.2,0.1-0.4,0.2-0.7,0.4c-2.9,1.1-7.4,3.1-14.8,6.4c-9.6,4.3-22.3,10.1-35.1,15.8c-25.5,11.5-51,23.1-51,23.1
	c-1.3,0.6-2.2,2-2.1,3.4c0.1,1.5,1.1,2.7,2.5,3.1l33.1,9.9l6.6,29.6c0,0.1,0,0.1,0.1,0.1c0,0.1,0.1,0.2,0.1,0.4
	c0.1,0.3,0.2,0.5,0.4,0.8c0,0.1,0.1,0.1,0.1,0.2c0,0.1,0.1,0.1,0.2,0.1c0.3,0.3,0.6,0.6,1,0.7c0,0,0.1,0.1,0.1,0.1
	c0.3,0.2,0.7,0.3,1.1,0.3c0.1,0,0.2,0,0.3,0c0,0,0,0,0,0c0,0,0,0,0,0c0,0,0,0,0,0c0.4,0,0.7-0.1,1.1-0.2c0.1,0,0.2-0.1,0.3-0.1
	c0.2-0.1,0.5-0.2,0.7-0.4c0,0,0.1,0,0.2-0.1l21-17.6c0,0,0,0,0,0l24.3,11c0.5,0.2,1,0.3,1.5,0.3c0.6,0,1.2-0.1,1.7-0.4
	c1-0.5,1.6-1.5,1.8-2.6l10.3-79.6C166.5,3.7,165.7,2,165.7,1.9L165.7,1.9z M110.4,64.7c-0.2,0.2-0.3,0.5-0.4,0.8
	c-0.1,0.1-0.2,0.2-0.2,0.4l-6.1,14.2l-4.2-18.9c12.4-11,28.7-25.2,41.9-36.4L110.4,64.7z M138.5,18C121.9,32,101.2,50.3,94.7,56
	l-24.2-7.2C92.9,38.6,119.5,26.6,138.5,18z M111.6,79.4l3.3-7.8l3.9,1.8L111.6,79.4z M148.9,79.2l-30.2-13.7L157.1,16L148.9,79.2z"
	/>
<g id="group2" transform="translate(0.000000, 66.000000)" class="st1">
	<path id="Path" d="M92,45.1c-1.1,0-2.2-0.5-2.9-1.6c-1.1-1.6-0.6-3.8,1-4.9c1.7-1.2,1.8-2.8,1.9-3c0.1-1.9,1.8-3.5,3.6-3.4
		c1.9,0,3.4,1.6,3.4,3.5c0,0.6-0.1,5.5-4.9,8.8C93.3,44.9,92.7,45.1,92,45.1L92,45.1z"/>
	<path d="M80.9,46.8c-0.1,0-0.3,0-0.4,0c-1-0.1-2.1-0.3-3.2-0.5c-2.9-0.6-5.8-1.3-8.5-2.2c-1.8-0.6-2.9-2.6-2.3-4.4
		c0.6-1.9,2.5-2.9,4.4-2.3c2.5,0.8,5.1,1.5,7.8,2c1,0.2,1.9,0.3,2.7,0.4c1.9,0.2,3.3,2,3,3.9C84.2,45.5,82.7,46.8,80.9,46.8
		L80.9,46.8z"/>
	<path d="M59.3,39.8c-0.6,0-1.2-0.1-1.7-0.4c-4.3-2.4-6.3-4.4-6.5-4.6c-1.4-1.4-1.4-3.6,0-5c1.4-1.4,3.6-1.4,4.9,0
		c1.4,1.4,1.6,1.5,4.9,3.4c1.7,0.9,2.3,3.1,1.4,4.8C61.7,39.1,60.5,39.8,59.3,39.8L59.3,39.8z"/>
	<path d="M11.6,2.5c1.1,0.3,2,1.1,2.4,2.3c0.6,1.8-0.4,3.8-2.2,4.5c-2,0.7-2.5,2.3-2.6,2.4c-0.6,1.8-2.6,2.9-4.3,2.4
		c-1.8-0.5-2.9-2.4-2.4-4.2c0.1-0.5,1.6-5.3,7.1-7.2C10.3,2.4,11,2.4,11.6,2.5L11.6,2.5z"/>
	<path d="M22.8,3.7c0.1,0,0.3,0.1,0.4,0.1c0.9,0.4,1.9,0.8,3,1.3c2.7,1.3,5.3,2.8,7.6,4.3c1.6,1,2.1,3.2,1.1,4.9
		c-1,1.6-3.2,2.1-4.8,1.1c-2.2-1.4-4.5-2.7-7-3.9c-0.9-0.4-1.7-0.8-2.5-1.1c-1.8-0.7-2.6-2.8-1.9-4.6C19.3,4.2,21.1,3.3,22.8,3.7
		L22.8,3.7z"/>
	<path d="M41.8,16.1c0.6,0.1,1.1,0.4,1.5,0.9c3.5,3.4,4.9,5.8,5.1,6.1c1,1.7,0.4,3.8-1.3,4.8c-1.7,1-3.8,0.4-4.8-1.3
		c-1-1.7-1.1-1.9-3.9-4.6c-1.4-1.3-1.4-3.6-0.1-5C39.3,16.1,40.7,15.8,41.8,16.1L41.8,16.1z"/>
</g>
<path id="plane1" class="st0" d="M0.2,94.9c0.4-0.7,0.6-1.1,1.6-0.9c0.3,0,0.7,0.1,1,0.2c0,0-0.1,0-0.1-0.1c0.1,0,0.2,0.1,0.4,0.2
	c1.4,0.5,3.7,1.5,7.3,3.1c4.7,2.1,11.1,4.9,17.4,7.7c12.6,5.6,25.2,11.2,25.2,11.2c0.7,0.3,1.1,1,1,1.7c0,0.7-0.5,1.3-1.2,1.5
	l-16.4,4.8l-3.3,14.3c0,0,0,0,0,0.1c0,0.1,0,0.1-0.1,0.2c-0.1,0.1-0.1,0.3-0.2,0.4c0,0,0,0.1-0.1,0.1c0,0-0.1,0-0.1,0.1
	c-0.1,0.1-0.3,0.3-0.5,0.4c0,0,0,0-0.1,0c-0.2,0.1-0.4,0.1-0.5,0.1c-0.1,0-0.1,0-0.2,0c0,0,0,0,0,0s0,0,0,0c0,0,0,0,0,0
	c-0.2,0-0.4,0-0.5-0.1c-0.1,0-0.1,0-0.2-0.1c-0.1-0.1-0.2-0.1-0.3-0.2c0,0-0.1,0-0.1,0l-10.4-8.5c0,0,0,0,0,0l-12.1,5.3
	c-0.2,0.1-0.5,0.2-0.7,0.2c-0.3,0-0.6-0.1-0.8-0.2c-0.5-0.3-0.8-0.7-0.9-1.3L0.2,96.5C-0.2,95.8,0.1,94.9,0.2,94.9L0.2,94.9z
	 M27.6,125.3c0.1,0.1,0.1,0.3,0.2,0.4c0,0.1,0.1,0.1,0.1,0.2l3,6.9l2.1-9.2c-6.2-5.3-14.2-12.2-20.8-17.6L27.6,125.3z M13.6,102.7
	c8.2,6.8,18.5,15.6,21.7,18.4l12-3.5C36.2,112.7,23.1,106.9,13.6,102.7z M26.9,132.5l-1.7-3.8l-1.9,0.9L26.9,132.5z M8.5,132.4
	l15-6.6l-19-24L8.5,132.4z"/>
<g id="group1" transform="translate(0.000000, 32.000000)" class="st1">
	<path d="M36.4,116.1c0.6,0,1.1-0.3,1.4-0.8c0.5-0.8,0.3-1.9-0.5-2.4c-0.8-0.6-0.9-1.4-0.9-1.5c0-0.9-0.9-1.7-1.7-1.7
		c-0.9,0-1.7,0.8-1.7,1.7c0,0.3,0.1,2.7,2.4,4.3C35.8,116,36.1,116.1,36.4,116.1L36.4,116.1z"/>
	<path d="M41.8,116.9c0.1,0,0.1,0,0.2,0c0.5-0.1,1-0.1,1.6-0.3c1.4-0.3,2.8-0.6,4.2-1.1c0.9-0.3,1.4-1.3,1.1-2.2
		c-0.3-0.9-1.2-1.4-2.1-1.1c-1.2,0.4-2.5,0.7-3.8,1c-0.5,0.1-0.9,0.2-1.3,0.2c-0.9,0.1-1.6,1-1.5,1.9
		C40.3,116.3,41,116.9,41.8,116.9L41.8,116.9z"/>
	<path d="M52.4,113.5c0.3,0,0.6-0.1,0.8-0.2c2.1-1.2,3.1-2.1,3.2-2.2c0.7-0.7,0.7-1.8,0-2.4c-0.7-0.7-1.7-0.7-2.4,0
		c-0.7,0.7-0.8,0.7-2.4,1.7c-0.8,0.5-1.1,1.5-0.7,2.3C51.3,113.1,51.8,113.5,52.4,113.5L52.4,113.5z"/>
	<path d="M75.8,95.2c-0.5,0.1-1,0.5-1.2,1.1c-0.3,0.9,0.2,1.9,1.1,2.2c1,0.3,1.2,1.1,1.3,1.2c0.3,0.9,1.3,1.4,2.1,1.2
		c0.9-0.3,1.4-1.2,1.2-2.1c-0.1-0.3-0.8-2.6-3.5-3.5C76.4,95.2,76.1,95.2,75.8,95.2L75.8,95.2z"/>
	<path d="M70.3,95.8c-0.1,0-0.1,0-0.2,0.1c-0.5,0.2-0.9,0.4-1.5,0.7c-1.3,0.6-2.6,1.4-3.7,2.1c-0.8,0.5-1,1.6-0.5,2.4
		c0.5,0.8,1.6,1,2.4,0.5c1.1-0.7,2.2-1.3,3.4-1.9c0.4-0.2,0.8-0.4,1.2-0.5c0.9-0.4,1.3-1.4,0.9-2.2C72,96,71.2,95.6,70.3,95.8
		L70.3,95.8z"/>
	<path d="M61,101.9c-0.3,0.1-0.5,0.2-0.7,0.4c-1.7,1.7-2.4,2.9-2.5,3c-0.5,0.8-0.2,1.9,0.6,2.4c0.8,0.5,1.9,0.2,2.3-0.6
		c0.5-0.8,0.5-0.9,1.9-2.2c0.7-0.7,0.7-1.7,0-2.4C62.2,101.9,61.6,101.7,61,101.9L61,101.9z"/>
</g>
</svg>
